<?xml version="1.0" encoding="UTF-8" standalone="no"?>
<svg width="80px" height="64px" viewBox="0 0 80 64" version="1.1" xmlns="http://www.w3.org/2000/svg" xmlns:xlink="http://www.w3.org/1999/xlink">
    <!-- Generator: Sketch 45.2 (43514) - http://www.bohemiancoding.com/sketch -->
    <title>Fill 1 Copy 2</title>
    <desc>Created with Sketch.</desc>
    <defs></defs>
    <g id="Symbols" stroke="none" stroke-width="1" fill="none" fill-rule="evenodd">
        <g id="head_320" transform="translate(-221.000000, -150.000000)" fill="#88B14B">
            <g id="Group-17" transform="translate(-3.000000, 0.000000)">
                <g id="Group-9" transform="translate(0.000000, 121.000000)">
                    <g id="Group" transform="translate(224.000000, 29.000000)">
                        <path d="M75.1926736,16.7650185 C75.4804948,14.3728234 75.6060894,10.4617598 73.8468126,10.1351165 C75.2492864,11.3095745 74.5680304,15.4589009 75.1926736,16.7650185 M77.6926736,35.7335632 C78.0275928,36.5786445 78.2949572,37.4888723 79.0390105,37.9426194 C78.3563273,38.1608372 77.9096099,36.5731777 77.3082778,36.1016633 C76.961941,36.7462941 78.0618459,37.5840863 78.4614653,38.1271251 C78.6574691,38.5120812 77.5589914,37.224642 77.1160799,37.0228247 C77.7117031,38.7230099 78.8339676,39.9188797 80,41.0737482 C78.0937203,40.1134078 76.3663178,37.6756557 75.961941,34.6283518 C75.690295,32.5819339 75.7659372,30.9350503 74.8078021,29.6562669 C74.0342531,31.5746698 73.4352997,32.7782843 73.6546147,34.8124018 C73.8035205,36.1996108 75.2835395,37.5895531 75.1926736,38.8637808 C75.1156042,39.9380136 73.4372027,41.6833001 72.8843958,43.28326 C71.775452,46.4982135 71.0889629,49.3008767 72.3082778,53.2278852 C70.79353,54.2943733 69.4405328,55.5162105 69.8082778,58.3844757 C68.4914367,59.4842203 65.2340628,59.9293117 63.6541389,58.7530314 C63.7549952,56.3330465 65.8268316,55.8000303 66.7312084,54.1490466 C67.2564225,50.0001758 69.4372027,45.3123662 68.8463368,39.7844867 C68.7178877,38.5804166 68.1736441,37.5371626 68.0770695,36.4697634 C66.9134158,37.8715506 64.6460514,38.2177834 64.8078021,40.8896981 C63.7635585,40.87922 63.6450999,39.517523 62.5,40.1530423 C61.5461465,39.9758258 62.1769743,41.3170223 61.7312084,41.6258983 C60.8215985,41.6987894 61.3144624,40.4286619 60.5770695,40.3370924 C60.0256898,40.4837858 60.4557564,41.5721411 59.6156042,41.4423039 C59.0994291,39.2970274 56.4757374,39.1699235 55.0004757,37.9426194 C51.3667935,39.3093277 47.443863,41.1858183 42.1156042,40.3370924 C43.0166508,44.1046517 43.6998097,47.8503436 44.8078021,51.5705236 C45.2307326,52.9891668 46.4719315,55.7089164 46.3463368,56.7271141 C46.2397716,57.599074 45.0908658,57.959885 44.8078021,58.7530314 C44.2026641,60.4509387 44.9719315,61.9606958 44.0385347,63.3565605 C41.7188392,63.8818321 38.3534729,64.3811362 37.1156042,62.6199048 C38.699334,59.3074594 41.8529971,58.2842504 41.1541389,53.5968965 C40.4681256,48.9970118 36.5176023,44.9442661 35.0004757,41.2582538 C33.6160799,41.8354603 32.2378687,42.4185892 30.1921979,42.3630097 C29.3020932,45.9196403 28.3553758,52.6875799 30.1921979,55.9904583 C29.1650809,56.1726861 28.6546147,56.8505734 28.0770695,57.4637699 C28.9229305,58.3917648 28.4928639,59.6509587 28.0770695,60.7780375 C26.2055186,61.3174317 23.8201713,61.8103579 21.7312084,61.1465932 C21.9804948,58.8072441 23.7117031,57.8874494 24.6156042,56.1745083 C24.782588,52.6037551 25.73549,49.325933 25.3853473,46.045833 C25.2697431,44.9684113 24.6898192,43.9411022 24.6156042,42.9151598 C24.5499524,42.0026543 25.0366318,41.0345692 24.8078021,40.1530423 C24.6260704,39.451921 23.6569933,39.0086519 23.0770695,38.3111751 C21.4243578,36.3253479 20.1008563,32.6147349 18.6541389,30.5769728 C16.632255,27.7296638 13.4295909,25.376192 12.3078021,21.5530533 C10.1864891,21.6195665 8.46622265,21.3034013 7.5,20.264703 C5.71217888,21.1721973 3.74452902,20.0660747 2.30780209,19.5275916 C1.18886775,16.1527332 3.53330162,14.5864855 4.61560419,12.7136395 C2.86964795,12.2990713 0.714081827,12.2758373 0,10.8722278 C0.551379638,8.45360969 3.67364415,8.49734436 6.15413892,7.92606029 C3.0661275,7.50875868 -0.42150333,2.58997546 3.07706946,0.375452417 C2.7378687,2.78131462 3.7112274,4.67010551 5.96194101,4.79493154 C6.46003806,4.82272127 7.01332065,4.34710678 7.69219791,4.24278138 C10.1646051,3.86329204 13.5827783,4.78855356 15.5765937,3.87468127 C15.3353949,1.71163758 12.7692674,1.7754173 12.1156042,0.006896741 C15.5789724,-0.110640174 19.1398668,1.25561257 18.6541389,5.53204289 C18.1731684,6.35981256 17.3149382,6.8272268 16.9234063,7.74155466 C19.0918173,8.1091992 22.3173168,7.17892641 24.0390105,9.03081617 C24.1398668,9.80346194 23.7026641,10.059492 23.6541389,10.6881778 C27.7897241,10.7783805 35.9500476,10.4307811 41.7312084,10.6881778 C44.715509,10.8212041 47.3563273,10.7847585 50.3848716,10.5041277 C55.8862988,9.99388997 60.6779258,7.78938945 66.7312084,7.37345456 C70.8377735,7.09145707 75.3606089,8.41944199 76.1541389,11.2403279 C76.7564225,13.3805932 76.2340628,17.7608933 75.961941,19.8956917 C75.5076118,23.4509556 76.9690771,26.2654636 77.3082778,28.7351055 C77.5932445,30.81478 76.8101808,32.4534633 77.3082778,34.075746 C77.7459562,35.5057785 78.8772598,36.2105444 79.4234063,37.7590249 C79.3553758,38.0168772 79.085157,37.7745143 79.0390105,37.5749749 C78.4481446,37.0970826 78.4714558,36.0315056 77.6926736,35.7335632" id="Fill-1-Copy-2"></path>
                    </g>
                </g>
            </g>
        </g>
    </g>
</svg>