<?xml version="1.0" encoding="UTF-8" standalone="no"?>
<svg width="59px" height="73px" viewBox="0 0 59 73" version="1.1" xmlns="http://www.w3.org/2000/svg" xmlns:xlink="http://www.w3.org/1999/xlink">
    <!-- Generator: Sketch 45.2 (43514) - http://www.bohemiancoding.com/sketch -->
    <title>Fill 1</title>
    <desc>Created with Sketch.</desc>
    <defs></defs>
    <g id="Symbols" stroke="none" stroke-width="1" fill="none" fill-rule="evenodd">
        <g id="head_320" transform="translate(-21.000000, -143.000000)" fill="#88B14B">
            <g id="Group-17" transform="translate(-3.000000, 0.000000)">
                <g id="Group-9" transform="translate(0.000000, 121.000000)">
                    <g id="Group-6" transform="translate(24.000000, 22.000000)">
                        <g id="Page-1-Copy">
                            <path d="M31.2008888,70.428149 C31.3054607,70.4553608 31.412083,70.4850465 31.5207558,70.5172059 C31.4105452,70.4890045 31.3039229,70.4593189 31.2008888,70.428149 M29.6584529,64.7651257 L33.7541866,64.7651257 C35.2955972,63.3085522 36.0783488,60.1881007 35.9891551,57.7558604 C35.9537852,57.637118 35.8671545,57.5693358 35.7092714,57.5693358 C35.6805654,57.5693358 35.6503216,57.5723044 35.6164895,57.5762625 C33.6731946,60.0134504 30.1490182,60.9252931 29.6584529,64.7651257 M8.00591347,0.407235623 C8.52364701,0.407235623 8.43599114,0.99105246 8.42881463,1.49719197 C9.04394359,1.45662165 8.62001722,0.414162264 9.27820521,0.414162264 C9.30383558,0.414162264 9.33100378,0.415646544 9.3602224,0.418615104 L9.3602224,1.67678986 C9.4289118,1.75149863 9.49350034,1.78118423 9.55757628,1.78118423 C9.70777026,1.78118423 9.85130035,1.6144501 10.0245617,1.44821073 C10.1973104,1.28048708 10.400303,1.11375295 10.6694219,1.11375295 C10.7268339,1.11375295 10.786809,1.12067959 10.8498597,1.13799619 C10.6591697,1.9202118 11.2343153,1.9647402 11.4086018,2.39617095 C11.3722067,3.31988793 10.2070499,3.15364856 9.91845193,3.8339436 C11.6331239,5.00949343 13.7645458,5.59825787 15.3192842,7.06917944 C19.6128844,11.1316541 20.5319895,18.1285504 24.6307989,21.6284829 C25.3546006,22.2469329 27.1148946,22.4290046 29.0274331,22.4290046 C30.7610716,22.4290046 32.6182484,22.2790923 33.9407757,22.1672766 C37.8970801,21.8343031 40.1663934,19.7889651 41.5760639,17.3146702 C41.6339885,16.1811749 41.5463327,15.1862125 41.3894748,14.2585375 C41.3110458,13.6440455 41.9477043,13.7187543 42.134806,13.3600532 C42.5346399,8.47429793 43.9012514,4.52067052 48.8386865,4.01354149 C49.370773,4.39797004 49.8941453,4.79229378 49.9561708,5.63140679 L52.1906267,5.63140679 C53.6079864,8.09828031 56.1597463,9.46926036 57.4048699,12.1018785 C57.1731713,13.3966655 56.408361,13.692532 57.963612,13.719249 C58.1179069,15.3049549 57.4561306,16.1044871 57.0327169,17.1350723 C58.5454215,18.1884164 56.9727418,19.5193209 56.8461277,20.3703081 C56.6487739,21.6947807 57.1726587,22.8841838 57.7775355,23.9647398 C57.5335344,25.1843232 57.6037616,26.7858615 58.1496885,27.7397588 C57.7119218,28.8133881 57.0388682,29.662891 55.7291561,29.8964178 C57.3905169,35.2734698 50.6974012,36.4910742 53.8668531,39.9618158 C54.2179893,49.6462487 48.5772567,53.5484211 42.3208825,56.8573762 C42.230151,56.8603447 42.1399321,56.861829 42.0517636,56.861829 C41.4725172,56.861829 40.9486324,56.8079001 40.4242349,56.7549608 C39.8972744,56.7005372 39.370314,56.6466084 38.7869667,56.6466084 C38.5480916,56.6466084 38.299477,56.6555141 38.0375346,56.6772835 C37.4300947,60.3291073 38.6203692,62.8147817 41.9487295,63.1477552 C41.6852493,63.2937094 41.3705083,63.3511016 41.0424395,63.3511016 C40.2689149,63.3511016 39.4169612,63.0309918 38.9684297,62.7880646 C38.9715054,65.123332 39.8588289,66.6031592 40.2719905,68.5401448 C38.8515552,68.1740223 39.0771025,66.2192255 37.851458,65.6641047 C34.5036187,66.1474853 33.4707146,68.8637178 29.6584529,68.8998353 C30.2874223,67.0504223 33.2297891,67.4348509 34.1268522,65.8441974 C33.1677636,65.0916674 30.7667102,65.7318868 29.6584529,65.1248163 C28.2605723,67.6193964 28.6224732,69.6380173 31.2008888,70.428149 C30.6201045,70.279721 30.0859675,70.2129284 29.5918139,70.2129284 C27.3722236,70.2129284 25.9625531,71.5423486 24.8168754,72.6738648 C24.5062352,72.434401 24.7548499,71.6556487 24.4442097,71.4156901 C22.9432951,71.3474132 21.5782214,71.2850734 20.2013577,71.2850734 C19.1607646,71.2850734 18.1135075,71.3202014 16.994998,71.4156901 C17.9904817,69.9794017 20.5027709,70.0090873 22.9545724,69.9779174 C22.68084,69.2842639 21.6258939,69.3421508 20.9056804,69.0794332 C21.1840262,68.7563549 21.4987672,68.6465182 21.8509286,68.6465182 C22.2323085,68.6465182 22.6552097,68.7751558 23.1211699,68.9042882 C23.5866174,69.0334205 24.0930736,69.1625529 24.6405384,69.1625529 C24.8778757,69.1625529 25.122902,69.1383096 25.3756175,69.0794332 C26.2870336,67.3764692 29.7809661,63.2150426 29.2862999,60.8119931 C28.9469537,59.1679055 26.7909267,59.6151686 25.561694,58.4747467 C23.7993495,52.866147 17.7136737,51.4298586 13.6430578,48.0491633 L11.2220127,48.0491633 C9.02036365,45.7984999 5.99444177,43.534478 5.0768744,40.5011043 C3.98655832,36.8938089 5.69559162,32.3820922 6.00828217,27.9193567 C6.14412315,25.9704969 7.09193436,24.5337138 7.49791947,22.706565 C7.82803868,21.2178321 7.55276847,19.7380048 7.68399598,18.393247 C7.85725731,16.6106266 8.79789201,14.5796367 7.87007249,13.0003627 C7.83675301,12.9983837 7.80548395,12.9973941 7.7747275,12.9973941 C7.33080944,12.9973941 7.12064038,13.2234995 6.91200914,13.4486153 C6.70286529,13.6737311 6.49320884,13.8998364 6.0513412,13.8998364 C6.03647558,13.8998364 6.02263518,13.8998364 6.00828217,13.8993417 C3.85122995,13.6663097 2.84856974,11.5719905 3.77331361,9.40543631 C3.70769986,9.16993054 3.44575744,9.12342309 3.40116059,8.86664264 C2.45386199,8.88099068 1.88384249,9.25898734 0.922190882,9.25898734 C0.766358211,9.25898734 0.600273392,9.24909214 0.420860778,9.22583842 C0.460331553,7.82616229 2.09657459,7.96667414 1.72442157,6.17020047 C1.81669091,6.18207471 1.90127114,6.18850659 1.9807253,6.18850659 C2.27342417,6.18850659 2.48513105,6.10934498 2.65582934,5.99060258 C2.40772732,4.59933737 2.70555226,3.81068988 3.95939013,3.47425306 C3.75280932,3.13435292 3.72205287,2.62524484 3.5872371,2.2160783 C3.83687694,2.33284167 4.03371821,2.38528623 4.19057609,2.38528623 C4.71907439,2.38528623 4.7882764,1.79503751 4.89079789,1.13799619 C4.93078128,1.13205907 4.96820162,1.12909051 5.00357154,1.12909051 C5.46491826,1.12909051 5.4131449,1.6268191 5.82169305,1.67678986 C6.32353576,1.46453781 5.82066784,0.740703884 5.82169305,0.418615104 C6.69158793,0.477986308 6.62699939,1.43930505 7.49791947,1.49719197 C7.76447536,1.27603424 7.8500808,0.879731453 7.87007249,0.418615104 C7.91928281,0.411193704 7.96439227,0.407235623 8.00591347,0.407235623" id="Fill-1"></path>
                        </g>
                    </g>
                </g>
            </g>
        </g>
    </g>
</svg>