<?xml version="1.0" encoding="UTF-8" standalone="no"?>
<svg width="80px" height="43px" viewBox="0 0 80 43" version="1.1" xmlns="http://www.w3.org/2000/svg" xmlns:xlink="http://www.w3.org/1999/xlink">
    <!-- Generator: Sketch 45.2 (43514) - http://www.bohemiancoding.com/sketch -->
    <title>Fill 1</title>
    <desc>Created with Sketch.</desc>
    <defs></defs>
    <g id="Symbols" stroke="none" stroke-width="1" fill="none" fill-rule="evenodd">
        <g id="head_320" transform="translate(-12.000000, -306.000000)" fill="#88B14B">
            <g id="Group-17" transform="translate(-3.000000, 0.000000)">
                <g id="Group-9" transform="translate(0.000000, 121.000000)">
                    <g id="Group-2" transform="translate(15.000000, 185.166682)">
                        <path d="M79.8880461,11.9728813 C80.4227099,13.3000661 78.8095453,14.3380736 79.8880461,14.7989893 C77.7244922,15.1386779 79.4857378,13.2280874 79.1070176,12.7254999 C76.5699853,13.538732 77.5135097,18.2501748 76.5634331,21.2050867 C75.5294876,24.4289713 73.2820649,25.6715496 75.783715,28.7401119 C76.3445878,29.4321169 77.3497034,29.7970612 77.5423396,30.6241839 C77.9197494,32.240546 76.5201882,34.6448845 76.7600006,36.6527092 C76.856974,37.4558391 77.3746019,37.8700319 77.3470825,38.9130905 C76.9853981,39.3184438 76.7744156,39.8690171 75.783715,39.6669719 L75.783715,41.3628893 C74.3186313,41.4134006 73.0199748,42.352911 71.676763,41.9273532 C71.6846257,39.6366651 73.6725792,37.9697917 73.6332656,35.7106732 C73.5808476,32.7936449 71.1827231,30.519373 68.7452851,29.3045759 C68.0743344,31.8629739 65.6919354,34.2281662 65.0301578,37.4053278 C64.3382399,38.0165147 64.3421713,36.8143454 63.4654799,37.0277557 C62.7683202,37.5505478 62.6215497,38.6011832 62.2926267,39.4775545 C60.9743134,39.4927079 59.6127553,39.5482703 58.7740669,39.1012452 C59.8368423,35.7776007 63.9241376,34.950478 63.0736552,30.6241839 C62.6621737,28.5229133 60.0412726,27.9874933 60.1421773,25.1601226 C57.7191543,25.6387173 56.0876433,27.2437143 53.300315,27.6099213 C51.3307079,27.867529 49.9259049,26.9671648 47.8252527,26.6678853 C45.0641334,26.2726342 40.2993352,26.0693262 37.8540345,26.6678853 C33.0813736,27.8359594 36.8069845,35.3760358 35.7035852,39.8551265 C35.2672051,40.2794216 34.7246786,39.8424987 34.3354748,39.6669719 C34.2175342,40.3690792 34.8360669,40.8577761 34.3354748,41.3628893 C33.4915446,41.9298788 31.8102366,41.6924756 30.4264008,41.7391985 C31.4472418,39.6480301 33.8768171,35.2560714 31.0121722,32.8845652 C30.0175403,33.9970769 30.4722666,36.508752 30.0358866,38.160472 C29.3308642,38.5001605 29.4579779,38.125114 28.8617229,37.9710545 C28.3571994,38.3650428 28.1449064,39.0406316 28.2759515,40.0432812 C26.9288083,39.8993239 26.2971712,39.8993239 24.9513385,40.0432812 C27.7347354,37.1123622 27.9181985,32.885828 26.7112735,28.1743852 C23.9986409,27.8220688 20.9780524,26.1059469 18.3047333,25.7258493 C16.6732224,25.4934972 15.2133805,25.8218208 13.8072671,25.7258493 C8.37544957,25.3508028 4.37857542,21.8478431 0.317489187,19.8854786 C0.0108437599,18.3107884 -0.285318062,16.5795131 0.512746317,15.3634532 C4.30650064,16.3395844 7.12265885,13.5627249 8.72533986,11.2189999 C7.59442104,8.41435923 6.55785467,5.52006095 4.81495545,3.30640262 C7.38605941,2.96292568 8.62574562,3.90496169 10.2887074,4.43659326 C10.5049317,3.22305895 9.56927001,3.12077354 9.70162552,1.98805732 C12.4260522,1.46526523 13.0956924,4.90003457 15.371945,5.19047462 C16.7007419,5.36095031 19.10935,3.88475716 21.4327788,3.49582004 C25.0915567,2.8808448 29.7934532,2.79371278 33.7497034,2.55378404 C37.6325684,2.31638086 40.8366199,1.14199282 44.1114358,0.857866677 C50.0307409,0.343914059 54.2189409,-0.242017182 60.5326916,0.103985318 C68.2473139,0.527017571 76.1545725,4.78259576 78.1294214,11.2189999 C78.6863629,11.4980749 79.6692008,11.3680083 79.8880461,11.9728813" id="Fill-1"></path>
                    </g>
                </g>
            </g>
        </g>
    </g>
</svg>