<?xml version="1.0" encoding="UTF-8" standalone="no"?>
<svg width="26px" height="23px" viewBox="0 0 26 23" version="1.1" xmlns="http://www.w3.org/2000/svg" xmlns:xlink="http://www.w3.org/1999/xlink">
    <!-- Generator: Sketch 45.2 (43514) - http://www.bohemiancoding.com/sketch -->
    <title>cart</title>
    <desc>Created with Sketch.</desc>
    <defs></defs>
    <g id="Symbols" stroke="none" stroke-width="1" fill="none" fill-rule="evenodd">
        <g id="head_320" transform="translate(-260.000000, -22.000000)">
            <g id="Group-17" transform="translate(-3.000000, 0.000000)">
                <g id="Group-28" transform="translate(263.000000, 0.000000)">
                    <g id="cart" transform="translate(1.000000, 23.000000)">
                        <g>
                            <path d="M0.321428571,1.58254894 L3.81942857,0.413740426 C4.45842857,0.200293617 5.24357143,0.549485106 5.56414286,1.18935745 L6.79885714,3.65616596 C7.11942857,4.2960383 7.644,5.34361277 7.96457143,5.98348511 L11.526,13.0965064 C11.8465714,13.7363787 12.6248571,14.062634 13.2557143,13.8220383 L22.6032857,10.2505489 C23.2341429,10.009017 23.715,9.21654894 23.6717143,8.48774043 L23.421,4.24127234 C23.3781429,3.51246383 22.8,2.98586809 22.1361429,3.07105957 L7.62857143,4.91859149" id="Stroke-1" stroke="#EF562D" stroke-width="2" stroke-linecap="round" stroke-linejoin="round"></path>
                            <path d="M16.0356429,19.1572255 C16.0356429,20.5357362 15.0122143,21.6535234 13.7500714,21.6535234 C12.4875,21.6535234 11.4640714,20.5357362 11.4640714,19.1572255 C11.4640714,17.7777787 12.4875,16.6604596 13.7500714,16.6604596 C15.0122143,16.6604596 16.0356429,17.7777787 16.0356429,19.1572255" id="Fill-3" fill="#EF562D"></path>
                            <path d="M23.1210857,19.1572255 C23.1210857,20.5357362 22.0976571,21.6535234 20.8355143,21.6535234 C19.5729429,21.6535234 18.5495143,20.5357362 18.5495143,19.1572255 C18.5495143,17.7777787 19.5729429,16.6604596 20.8355143,16.6604596 C22.0976571,16.6604596 23.1210857,17.7777787 23.1210857,19.1572255" id="Fill-5" fill="#EF562D"></path>
                        </g>
                    </g>
                </g>
            </g>
        </g>
    </g>
</svg>