<?xml version="1.0" encoding="UTF-8" standalone="no"?>
<svg width="39px" height="49px" viewBox="0 0 39 49" version="1.1" xmlns="http://www.w3.org/2000/svg" xmlns:xlink="http://www.w3.org/1999/xlink">
    <!-- Generator: Sketch 45.2 (43514) - http://www.bohemiancoding.com/sketch -->
    <title>Fill 1</title>
    <desc>Created with Sketch.</desc>
    <defs></defs>
    <g id="Symbols" stroke="none" stroke-width="1" fill="none" fill-rule="evenodd">
        <g id="head_768" fill="#88B14B">
            <g id="Group-8">
                <path d="M33.2626863,40.2998497 C32.4810902,41.1059964 29.9942301,42.5585095 29.9942301,40.3960399 C29.9942301,39.5182536 30.5279049,39.4796165 30.9557302,39.1463716 C33.2123776,37.3863717 33.1077355,34.6234174 32.9741156,31.4559811 C32.8891945,29.4392056 33.0860022,27.6687415 32.6859473,25.976759 C31.6717237,21.6856273 28.2692451,17.6134392 24.1306495,16.4603636 C22.3831262,15.9733753 19.4253765,16.0643334 17.4013565,16.1717928 C13.195146,16.3951635 10.4438633,18.3483488 8.46170018,20.9780856 C7.00435749,22.9115499 5.91487209,25.6684672 5.76998301,28.5722859 C5.71725948,29.6327935 5.85168435,30.7190591 5.76998301,31.8403396 C5.5856519,34.3726788 4.70424332,36.8269389 3.65540735,38.6654203 C3.17807832,39.5021548 2.29747467,40.0805037 2.30954876,41.0689692 C2.33772164,43.3529846 6.8715425,44.6577913 9.23081972,45.2023328 C15.2936229,46.6013173 23.6098537,46.5441667 29.5136813,45.1061425 C31.5936446,44.5998357 36.5967451,43.4797626 36.5311426,40.972779 C36.4977376,39.7094267 35.0661529,39.1129666 34.7047352,37.8967033 C34.4403126,38.6646154 34.0140972,39.5250956 33.2626863,40.2998497 M20.189264,2.42544114 C19.0225044,2.74661194 18.131839,3.72380831 16.7284273,3.86748998 C15.0002225,4.04457664 13.8950408,3.41350419 12.0183247,3.09837044 C12.0795001,6.36924147 12.637323,9.96007588 13.5565638,12.4227878 C13.845537,13.1979444 14.104325,14.623492 15.3829711,14.0568147 C15.1744918,12.5346744 13.5018279,7.83262119 15.6715419,7.71228276 C17.3329367,7.62051968 16.8906225,9.71859408 17.1131883,11.1731195 C17.2838354,12.2883629 17.6227149,13.1415986 17.7861176,13.8644342 C19.7223991,13.8696663 21.125006,13.8181502 22.9767689,13.8644342 C24.4325017,11.0906132 24.8651566,7.29331183 25.1879373,3.38694119 C23.3567003,3.05490371 22.1947703,1.87325275 20.189264,2.42544114 M25.2841276,14.3453854 C30.7488608,17.1409398 35.2738273,21.4646715 35.377262,29.1490249 C35.4014102,30.9371977 35.3064273,32.7491162 35.762023,34.3396763 C36.0896333,35.4843001 36.7287552,36.6546819 37.3960499,37.7043228 C38.164767,38.9129392 39.1222423,40.1348371 38.7419085,41.7418985 C38.5217576,42.671201 37.7208429,43.6411529 37.0116913,44.2408327 C30.6184606,49.6484152 11.2411557,49.791292 3.36683659,45.298523 C1.90587168,44.4646059 0.0698050352,42.8945717 0.00259259988,41.164757 C-0.0678395928,39.3620953 1.31424126,38.1897012 2.02097801,36.839013 C2.7031641,35.5362186 3.32377234,33.7436187 3.46302684,31.9365299 C3.55358252,30.7625259 3.41070579,29.6259515 3.46302684,28.5722859 C3.81277299,21.5520074 7.64347933,17.7865011 12.2107052,15.0183147 C10.7738884,12.367247 10.063127,8.89876336 9.80755876,4.73239731 C9.72827224,3.44529929 9.65784005,1.86278854 10.3842978,1.27196306 C12.0658161,-0.095628886 14.2182239,1.83582307 16.5364492,1.56053382 C18.1491452,1.36895825 19.1814799,0.160744295 20.6698128,0.022294728 C22.3473064,-0.133461035 23.5402265,0.563213968 24.8993665,0.983392306 C26.1103978,1.35809157 27.0252114,1.32347918 27.3987032,2.13727286 C28.0032127,3.45334869 27.1882116,7.13956842 26.9181544,8.67378281 C26.5164897,10.9549809 26.0645162,12.5636522 25.2841276,14.3453854" id="Fill-1"></path>
            </g>
        </g>
    </g>
</svg>