<?xml version="1.0" encoding="UTF-8" standalone="no"?>
<svg width="29px" height="37px" viewBox="0 0 29 37" version="1.1" xmlns="http://www.w3.org/2000/svg" xmlns:xlink="http://www.w3.org/1999/xlink">
    <!-- Generator: Sketch 45.2 (43514) - http://www.bohemiancoding.com/sketch -->
    <title>Fill 1</title>
    <desc>Created with Sketch.</desc>
    <defs></defs>
    <g id="Symbols" stroke="none" stroke-width="1" fill="none" fill-rule="evenodd">
        <g id="head_320" transform="translate(-22.000000, -15.000000)" fill="#88B14B">
            <g id="Group-17" transform="translate(-3.000000, 0.000000)">
                <path d="M49.8433392,45.0992777 C49.2595782,45.7013751 47.4021844,46.7862326 47.4021844,45.1711206 C47.4021844,44.5155168 47.8007771,44.4866594 48.1203125,44.2377644 C49.8057644,42.9232502 49.727609,40.8596462 49.6278105,38.4939415 C49.5643844,36.9876459 49.7113767,35.6653161 49.4125825,34.401603 C48.655076,31.1966291 46.1138222,28.1551805 43.0227749,27.2939678 C41.7175792,26.9302445 39.508486,26.9981796 37.9967796,27.0784392 C34.8552319,27.245271 32.8003453,28.7040721 31.3199011,30.6681782 C30.2314364,32.1122501 29.4177182,34.171345 29.3095029,36.3401582 C29.2701246,37.1322334 29.3705243,37.9435469 29.3095029,38.7810124 C29.1718292,40.6723738 28.51352,42.5054192 27.7301621,43.87855 C27.3736531,44.5034929 26.7159451,44.9354519 26.724963,45.6737201 C26.7460048,47.3796127 30.1322391,48.3541508 31.8943435,48.7608596 C36.4225489,49.8057376 42.6338014,49.7630527 47.0432706,48.6890167 C48.5967601,48.3108647 52.3334914,47.474301 52.284494,45.6018773 C52.2595443,44.6583007 51.1903179,44.2128148 50.9203811,43.3044082 C50.7228883,43.8779488 50.4045553,44.5206269 49.8433392,45.0992777 M40.0790206,16.8115211 C39.2075875,17.0513981 38.5423646,17.7812496 37.49418,17.888563 C36.2034131,18.020826 35.3779715,17.5494887 33.9762839,17.3141206 C34.0219748,19.757079 34.4386033,22.4390126 35.1251687,24.2783706 C35.340998,24.857322 35.5342823,25.9220394 36.4892816,25.4987977 C36.3335719,24.3619368 35.0842874,20.8500526 36.7048102,20.7601739 C37.945678,20.6916376 37.615321,22.2586539 37.7815515,23.3450144 C37.909005,24.1779709 38.1621084,24.8152383 38.2841511,25.3551119 C39.7303271,25.3590197 40.7779105,25.3205432 42.160961,25.3551119 C43.2482233,23.2833919 43.5713659,20.4472515 43.8124454,17.5296492 C42.4447253,17.281656 41.5768995,16.3991009 40.0790206,16.8115211 M43.8842882,25.7143263 C47.9658053,27.8022787 51.3454264,31.0316009 51.42268,36.7709149 C51.4407159,38.1064709 51.3697748,39.4597623 51.7100515,40.6477248 C51.9547382,41.502625 52.4320875,42.3767634 52.9304786,43.1607225 C53.5046205,44.0634177 54.2197426,44.9760326 53.9356777,46.1763197 C53.7712507,46.8704 53.1730611,47.5948407 52.6434077,48.0427314 C47.8684116,52.0815636 33.3958295,52.1882758 27.5146334,48.8327025 C26.4234634,48.2098638 25.0521362,47.0372318 25.0019364,45.7452624 C24.9493318,44.3988848 25.9815846,43.5232434 26.5094344,42.5144372 C27.0189477,41.5414021 27.4824695,40.2025394 27.5864763,38.8528553 C27.6541108,37.9760115 27.5473986,37.1271233 27.5864763,36.3401582 C27.8476958,31.0968307 30.7087857,28.2844376 34.1199697,26.2169259 C33.0468355,24.2368881 32.5159798,21.6463362 32.3251002,18.5345477 C32.2658824,17.5732359 32.2132778,16.3912853 32.7558568,15.9500077 C34.0117544,14.9285764 35.6193515,16.3711453 37.3507949,16.1655364 C38.5552903,16.0224518 39.3263237,15.1200572 40.4379344,15.0166516 C41.690826,14.9003202 42.5817979,15.420655 43.5969167,15.7344791 C44.5014155,16.0143357 45.1846743,15.9884843 45.4636291,16.596293 C45.915127,17.5792479 45.3064165,20.3324232 45.1047153,21.478302 C44.8047187,23.1820904 44.4671474,24.3835798 43.8842882,25.7143263" id="Fill-1"></path>
            </g>
        </g>
    </g>
</svg>