<?xml version="1.0" encoding="UTF-8" standalone="no"?>
<svg width="21px" height="22px" viewBox="0 0 21 22" version="1.1" xmlns="http://www.w3.org/2000/svg" xmlns:xlink="http://www.w3.org/1999/xlink">
    <!-- Generator: Sketch 45.2 (43514) - http://www.bohemiancoding.com/sketch -->
    <title>Shape</title>
    <desc>Created with Sketch.</desc>
    <defs></defs>
    <g id="Symbols" stroke="none" stroke-width="1" fill="none" fill-rule="evenodd">
        <g id="head_320" transform="translate(-229.000000, -23.000000)" fill="#88B14B">
            <g id="Group-17" transform="translate(-3.000000, 0.000000)">
                <path d="M248.918651,38.0910286 C250.115355,36.511379 250.833378,34.5495688 250.833378,32.4166888 C250.833378,27.2163224 246.617055,23 241.416689,23 C236.215538,23 232,27.2163224 232,32.4166888 C232,37.6170552 236.215538,41.8333777 241.416689,41.8333777 C243.348679,41.8333777 245.144128,41.2495429 246.639028,40.2505892 L250.151452,43.7637989 C250.151452,43.7645836 250.706252,44.3193835 250.706252,44.3193835 L250.860058,44.1655776 C251.382685,44.3044738 251.961026,44.1749943 252.370652,43.7645836 C252.780278,43.3541729 252.910542,42.7750465 252.771646,42.2524203 L252.926237,42.0978297 L248.918651,38.0910286 Z M233.830918,32.4159041 C233.830918,28.226283 237.227068,24.8301335 241.416689,24.8301335 C245.605551,24.8301335 249.002459,28.226283 249.002459,32.4159041 C249.002459,36.6055252 245.605551,40.0016747 241.416689,40.0016747 C237.227068,40.0016747 233.830918,36.6055252 233.830918,32.4159041 L233.830918,32.4159041 Z" id="Shape"></path>
            </g>
        </g>
    </g>
</svg>