<?xml version="1.0" encoding="UTF-8" standalone="no"?>
<svg width="18px" height="23px" viewBox="0 0 18 23" version="1.1" xmlns="http://www.w3.org/2000/svg" xmlns:xlink="http://www.w3.org/1999/xlink">
    <!-- Generator: Sketch 45.2 (43514) - http://www.bohemiancoding.com/sketch -->
    <title>Rectangle 130</title>
    <desc>Created with Sketch.</desc>
    <defs>
        <path d="M22,674 L40,674 L40,697 C40,697 33.9277344,689.597656 31,689.597656 C27.9277344,689.597656 22,697 22,697 L22,674 Z" id="path-1"></path>
    </defs>
    <g id="Mobile" stroke="none" stroke-width="1" fill="none" fill-rule="evenodd">
        <g id="page_main_320" transform="translate(-22.000000, -3657.000000)">
            <g id="Group-11" transform="translate(0.000000, 2983.000000)">
                <g id="Rectangle-130">
                    <use fill="#FFFFFF" fill-rule="evenodd" xlink:href="#path-1"></use>
                    <path stroke="#FFFFFF" stroke-width="1" d="M22.5,674.5 L22.5,695.627 C22.531947,695.590072 22.5642778,695.552804 22.5969845,695.515209 C23.3591573,694.639112 24.1699161,693.762904 24.9958132,692.943815 C25.7165761,692.228993 26.4164292,691.590607 27.0847874,691.047927 C28.6256845,689.796779 29.9329747,689.097656 31,689.097656 C32.0689967,689.097656 33.4205962,689.8562 35.0483918,691.210217 C35.6569389,691.716413 36.2930473,692.298529 36.9482733,692.942123 C37.7815586,693.760615 38.6037479,694.636243 39.3796599,695.511757 C39.4203409,695.55766 39.4604592,695.603074 39.5,695.647976 L39.5,674.5 L22.5,674.5 Z"></path>
                </g>
            </g>
        </g>
    </g>
</svg>