<?xml version="1.0" encoding="UTF-8" standalone="no"?>
<svg width="47px" height="48px" viewBox="0 0 47 48" version="1.1" xmlns="http://www.w3.org/2000/svg" xmlns:xlink="http://www.w3.org/1999/xlink">
    <!-- Generator: Sketch 45.2 (43514) - http://www.bohemiancoding.com/sketch -->
    <title>Fill 1</title>
    <desc>Created with Sketch.</desc>
    <defs></defs>
    <g id="PC" stroke="none" stroke-width="1" fill="none" fill-rule="evenodd">
        <g id="page_catalog_list_nopic_1024_01" transform="translate(-354.000000, -632.000000)" fill="#88B14B">
            <g id="Group" transform="translate(341.000000, 621.000000)">
                <g id="Group-8-Copy">
                    <g id="Group-4-Copy-3" transform="translate(13.000000, 11.000000)">
                        <path d="M21.5161835,0.9248 C22.0498418,0.104059259 22.9523608,0.0845037037 23.5217152,0.881540741 L24.7681076,2.62613333 C25.337462,3.42317037 26.4380949,3.58435556 27.2144873,2.98642963 L28.6732722,1.8605037 C29.4496646,1.26139259 30.3355253,1.53161481 30.6425127,2.4608 L31.3368038,4.56272593 C31.6437911,5.49131852 32.6611329,6.01161481 33.5975633,5.71768889 L35.3193101,5.17842963 C36.2551456,4.88568889 37.0357025,5.4450963 37.0535506,6.42228148 L37.0922215,8.58939259 C37.1094747,9.56657778 37.9263228,10.4050963 38.9067785,10.4525037 L40.809981,10.5449481 C41.7904367,10.5923556 42.3562215,11.3959111 42.0670823,12.3304296 L41.4656013,14.2765037 C41.176462,15.2110222 41.684538,16.2747259 42.5953861,16.6409481 L44.5330949,17.4196148 C45.4433481,17.7852444 45.7080949,18.7256889 45.1208924,19.5096889 L43.9702848,21.0468741 C43.3830823,21.8308741 43.5187278,22.9864296 44.2713228,23.6133926 L45.9954494,25.0522074 C46.7480443,25.6791704 46.6891456,26.6267259 45.8633734,27.1565037 L44.2576392,28.1870222 C43.432462,28.7162074 43.187943,29.8255407 43.715057,30.6504296 L44.9483608,32.5834667 C45.4748797,33.4083556 45.1214873,34.2563556 44.1630443,34.4679111 L42.200943,34.9010963 C41.2425,35.1126519 40.6582722,36.0608 40.9027911,37.007763 L41.4614367,39.1730963 C41.7065506,40.1200593 41.1086392,40.799763 40.1341329,40.6836148 L37.9935506,40.4276148 C37.0190443,40.3114667 36.156981,41.0136889 36.0778544,41.9885037 L35.9047278,44.1224296 C35.8256013,45.0972444 35.0355253,45.5511704 34.1490696,45.1316148 L32.1131962,44.1680593 C31.2267405,43.7479111 30.168943,44.1330963 29.7631962,45.0231704 L28.899943,46.9165037 C28.4936013,47.8065778 27.5821582,47.9813926 26.8735886,47.3046519 L25.234538,45.7384296 C24.5259684,45.0610963 23.3848797,45.0800593 22.6989177,45.7787259 L21.2407278,47.263763 C20.5541709,47.9630222 19.6225,47.8255407 19.170943,46.9573926 L18.1417025,44.9828741 C17.6895506,44.1147259 16.5984367,43.7568 15.7167405,44.1870222 L13.822462,45.1120593 C12.9407658,45.5428741 12.1042848,45.1031704 11.9632848,44.1354667 L11.6485633,41.9754667 C11.5075633,41.0083556 10.5949304,40.3126519 9.62042405,40.4293926 L7.52267722,40.681837 C6.54817089,40.7985778 5.90266456,40.1088 6.08887975,39.1493926 L6.4981962,37.0314667 C6.68441139,36.0720593 6.05139873,35.1150222 5.0929557,34.9064296 L3.05589241,34.4631704 C2.09685443,34.2539852 1.71014557,33.3888 2.19739873,32.5396148 L3.25638608,30.6930963 C3.7430443,29.8450963 3.45866456,28.7292444 2.62396835,28.2148741 L0.860575949,27.1286519 C0.0252848101,26.6142815 -0.056221519,25.6631704 0.678525316,25.0142815 L2.22357595,23.6513185 C2.95832278,23.0024296 3.05351266,21.8510222 2.43596835,21.0907259 L1.11342405,19.465837 C0.49528481,18.7061333 0.731474684,17.7781333 1.63875316,17.4048 L3.45509494,16.655763 C4.36237342,16.281837 4.82344937,15.225837 4.48136076,14.3096889 L3.72817089,12.2972444 C3.38548734,11.3810963 3.90724684,10.5923556 4.88770253,10.5443556 L6.77305696,10.4530963 C7.75351266,10.4050963 8.51800633,9.56717037 8.4721962,8.59057778 L8.37046203,6.4210963 C8.3246519,5.4445037 9.05463924,4.88094815 9.99285443,5.16894815 L11.8133608,5.72776296 C12.7521709,6.01576296 13.7248924,5.47828148 13.9759557,4.5325037 L14.518538,2.49102222 C14.7701962,1.54524444 15.6215506,1.24717037 16.4116266,1.82731852 L18.0322342,3.01902222 C18.8223101,3.59976296 19.9050949,3.40361481 20.4381582,2.58228148 L21.5161835,0.9248 Z" id="Fill-1"></path>
                    </g>
                </g>
            </g>
        </g>
    </g>
</svg>