<?xml version="1.0" encoding="UTF-8" standalone="no"?>
<svg width="79px" height="81px" viewBox="0 0 79 81" version="1.1" xmlns="http://www.w3.org/2000/svg" xmlns:xlink="http://www.w3.org/1999/xlink">
    <!-- Generator: Sketch 45.2 (43514) - http://www.bohemiancoding.com/sketch -->
    <title>Fill 1</title>
    <desc>Created with Sketch.</desc>
    <defs></defs>
    <g id="Mobile" stroke="none" stroke-width="1" fill="none" fill-rule="evenodd">
        <g id="page_main_320" transform="translate(-22.000000, -1671.000000)" fill="#EF562D">
            <g id="Group-10" transform="translate(-6.000000, 1654.000000)">
                <g id="Group-4" transform="translate(28.000000, 17.000000)">
                    <path d="M36.1655,1.5606 C37.0625,0.1756 38.5795,0.1426 39.5365,1.4876 L41.6315,4.4316 C42.5885,5.7766 44.4385,6.0486 45.7435,5.0396 L48.1955,3.1396 C49.5005,2.1286 50.9895,2.5846 51.5055,4.1526 L52.6725,7.6996 C53.1885,9.2666 54.8985,10.1446 56.4725,9.6486 L59.3665,8.7386 C60.9395,8.2446 62.2515,9.1886 62.2815,10.8376 L62.3465,14.4946 C62.3755,16.1436 63.7485,17.5586 65.3965,17.6386 L68.5955,17.7946 C70.2435,17.8746 71.1945,19.2306 70.7085,20.8076 L69.6975,24.0916 C69.2115,25.6686 70.0655,27.4636 71.5965,28.0816 L74.8535,29.3956 C76.3835,30.0126 76.8285,31.5996 75.8415,32.9226 L73.9075,35.5166 C72.9205,36.8396 73.1485,38.7896 74.4135,39.8476 L77.3115,42.2756 C78.5765,43.3336 78.4775,44.9326 77.0895,45.8266 L74.3905,47.5656 C73.0035,48.4586 72.5925,50.3306 73.4785,51.7226 L75.5515,54.9846 C76.4365,56.3766 75.8425,57.8076 74.2315,58.1646 L70.9335,58.8956 C69.3225,59.2526 68.3405,60.8526 68.7515,62.4506 L69.6905,66.1046 C70.1025,67.7026 69.0975,68.8496 67.4595,68.6536 L63.8615,68.2216 C62.2235,68.0256 60.7745,69.2106 60.6415,70.8556 L60.3505,74.4566 C60.2175,76.1016 58.8895,76.8676 57.3995,76.1596 L53.9775,74.5336 C52.4875,73.8246 50.7095,74.4746 50.0275,75.9766 L48.5765,79.1716 C47.8935,80.6736 46.3615,80.9686 45.1705,79.8266 L42.4155,77.1836 C41.2245,76.0406 39.3065,76.0726 38.1535,77.2516 L35.7025,79.7576 C34.5485,80.9376 32.9825,80.7056 32.2235,79.2406 L30.4935,75.9086 C29.7335,74.4436 27.8995,73.8396 26.4175,74.5656 L23.2335,76.1266 C21.7515,76.8536 20.3455,76.1116 20.1085,74.4786 L19.5795,70.8336 C19.3425,69.2016 17.8085,68.0276 16.1705,68.2246 L12.6445,68.6506 C11.0065,68.8476 9.9215,67.6836 10.2345,66.0646 L10.9225,62.4906 C11.2355,60.8716 10.1715,59.2566 8.5605,58.9046 L5.1365,58.1566 C3.5245,57.8036 2.8745,56.3436 3.6935,54.9106 L5.4735,51.7946 C6.2915,50.3636 5.8135,48.4806 4.4105,47.6126 L1.4465,45.7796 C0.0425,44.9116 -0.0945,43.3066 1.1405,42.2116 L3.7375,39.9116 C4.9725,38.8166 5.1325,36.8736 4.0945,35.5906 L1.8715,32.8486 C0.8325,31.5666 1.2295,30.0006 2.7545,29.3706 L5.8075,28.1066 C7.3325,27.4756 8.1075,25.6936 7.5325,24.1476 L6.2665,20.7516 C5.6905,19.2056 6.5675,17.8746 8.2155,17.7936 L11.3845,17.6396 C13.0325,17.5586 14.3175,16.1446 14.2405,14.4966 L14.0695,10.8356 C13.9925,9.1876 15.2195,8.2366 16.7965,8.7226 L19.8565,9.6656 C21.4345,10.1516 23.0695,9.2446 23.4915,7.6486 L24.4035,4.2036 C24.8265,2.6076 26.2575,2.1046 27.5855,3.0836 L30.3095,5.0946 C31.6375,6.0746 33.4575,5.7436 34.3535,4.3576 L36.1655,1.5606 Z" id="Fill-1"></path>
                </g>
            </g>
        </g>
    </g>
</svg>