<?xml version="1.0" encoding="UTF-8" standalone="no"?>
<svg width="48px" height="49px" viewBox="0 0 48 49" version="1.1" xmlns="http://www.w3.org/2000/svg" xmlns:xlink="http://www.w3.org/1999/xlink">
    <!-- Generator: Sketch 45.2 (43514) - http://www.bohemiancoding.com/sketch -->
    <title>Fill 1</title>
    <desc>Created with Sketch.</desc>
    <defs></defs>
    <g id="PC" stroke="none" stroke-width="1" fill="none" fill-rule="evenodd">
        <g id="page_catalog_list_nopic_1024_01" transform="translate(-356.000000, -491.000000)" fill="#EF562D">
            <g id="Group-8" transform="translate(342.000000, 480.000000)">
                <g id="Group-4-Copy" transform="translate(14.000000, 11.000000)">
                    <path d="M22.2993,0.944066667 C22.8375,0.10622716 23.7477,0.0862641975 24.3219,0.899906173 L25.5789,2.68084444 C26.1531,3.49448642 27.2631,3.65902963 28.0461,3.04864691 L29.5173,1.8992642 C30.3003,1.2876716 31.1937,1.56352346 31.5033,2.51206667 L32.2035,4.65778272 C32.5131,5.60572099 33.5391,6.13685679 34.4835,5.83680741 L36.2199,5.28631358 C37.1637,4.98747407 37.9509,5.5585358 37.9689,6.55607901 L38.0079,8.76833827 C38.0253,9.76588148 38.8491,10.6218691 39.8379,10.6702642 L41.7573,10.7646346 C42.7461,10.8130296 43.3167,11.6333259 43.0251,12.5873136 L42.4185,14.5739309 C42.1269,15.5279185 42.6393,16.6137827 43.5579,16.9876346 L45.5121,17.7825235 C46.4301,18.1557704 46.6971,19.1158074 46.1049,19.9161407 L44.9445,21.4853506 C44.3523,22.285684 44.4891,23.4653136 45.2481,24.1053383 L46.9869,25.5741284 C47.7459,26.2141531 47.6865,27.1814494 46.8537,27.7222642 L45.2343,28.7742519 C44.4021,29.3144617 44.1555,30.4469062 44.6871,31.2889802 L45.9309,33.2622889 C46.4619,34.104363 46.1055,34.9700296 45.1389,35.1859926 L43.1601,35.6282025 C42.1935,35.8441654 41.6043,36.8120667 41.8509,37.778758 L42.4143,39.9892025 C42.6615,40.9558938 42.0585,41.649758 41.0757,41.5311901 L38.9169,41.2698568 C37.9341,41.1512889 37.0647,41.8681407 36.9849,42.8632642 L36.8103,45.0416469 C36.7305,46.0367704 35.9337,46.5001531 35.0397,46.0718568 L32.9865,45.0882272 C32.0925,44.6593259 31.0257,45.0525358 30.6165,45.9611531 L29.7459,47.8939309 C29.3361,48.8025481 28.4169,48.9810049 27.7023,48.2901654 L26.0493,46.6913136 C25.3347,45.9998691 24.1839,46.0192272 23.4921,46.7324494 L22.0215,48.2484247 C21.3291,48.9622519 20.3895,48.8219062 19.9341,47.9356716 L18.8961,45.9200173 C18.4401,45.0337827 17.3397,44.6684 16.4505,45.1075852 L14.5401,46.0518938 C13.6509,46.491684 12.8073,46.0428198 12.6651,45.0549556 L12.3477,42.8499556 C12.2055,41.8626963 11.2851,41.1524988 10.3023,41.2716716 L8.1867,41.5293753 C7.2039,41.6485481 6.5529,40.9444 6.7407,39.9650049 L7.1535,37.8029556 C7.3413,36.8235605 6.7029,35.8465852 5.7363,35.6336469 L3.6819,35.1811531 C2.7147,34.9676099 2.3247,34.0844 2.8161,33.2175235 L3.8841,31.3325358 C4.3749,30.4668691 4.0881,29.3277704 3.2463,28.802684 L1.4679,27.6938321 C0.6255,27.1687457 0.5433,26.1978198 1.2843,25.5354123 L2.8425,24.1440543 C3.5835,23.4816469 3.6795,22.3062519 3.0567,21.530116 L1.7229,19.8713753 C1.0995,19.0958444 1.3377,18.1485111 2.2527,17.7674 L4.0845,17.002758 C4.9995,16.621042 5.4645,15.543042 5.1195,14.6078074 L4.3599,12.553437 C4.0143,11.6182025 4.5405,10.8130296 5.5293,10.7640296 L7.4307,10.6708691 C8.4195,10.6218691 9.1905,9.76648642 9.1443,8.76954815 L9.0417,6.55486914 C8.9955,5.55793086 9.7317,4.98263457 10.6779,5.27663457 L12.5139,5.84709136 C13.4607,6.14109136 14.4417,5.59241235 14.6949,4.62693086 L15.2421,2.54291852 C15.4959,1.57743704 16.3545,1.27315309 17.1513,1.86538765 L18.7857,3.08191852 C19.5825,3.67475802 20.6745,3.47452346 21.2121,2.63607901 L22.2993,0.944066667 Z" id="Fill-1"></path>
                </g>
            </g>
        </g>
    </g>
</svg>