<?xml version="1.0" encoding="UTF-8" standalone="no"?>
<svg width="21px" height="25px" viewBox="0 0 21 25" version="1.1" xmlns="http://www.w3.org/2000/svg" xmlns:xlink="http://www.w3.org/1999/xlink">
    <!-- Generator: Sketch 45.2 (43514) - http://www.bohemiancoding.com/sketch -->
    <title>Page 1</title>
    <desc>Created with Sketch.</desc>
    <defs></defs>
    <g id="Mobile" stroke="none" stroke-width="1" fill="none" fill-rule="evenodd">
        <g id="page_product_320" transform="translate(-24.000000, -1404.000000)" stroke="#EF562D" stroke-width="2">
            <path d="M36.9860654,1411.8005 C39.5766491,1413.12575 41.7217318,1415.17543 41.7709563,1418.81824 C41.7824039,1419.66612 41.737186,1420.52507 41.9531634,1421.27908 C42.1084687,1421.82151 42.4114475,1422.37652 42.7277819,1422.87392 C43.092196,1423.44687 43.5460919,1424.02612 43.3657928,1424.78795 C43.2616199,1425.22849 42.8817516,1425.6883 42.5455748,1425.97278 C39.5148323,1428.53608 30.3289253,1428.604 26.5960655,1426.47399 C25.9034879,1426.07867 25.0332822,1425.33438 25.001229,1424.51455 C24.9678403,1423.65999 25.6230225,1423.10421 25.9582454,1422.46391 C26.2816391,1421.84612 26.5758415,1420.99652 26.641665,1420.13967 C26.6845933,1419.58332 26.6168619,1419.04433 26.641665,1418.54483 C26.8074638,1415.21703 28.6234291,1413.43197 30.788545,1412.11951 C30.107415,1410.86275 29.770475,1409.2185 29.6493216,1407.24361 C29.6119262,1406.63326 29.5783467,1405.88306 29.9227276,1405.60298 C30.7198596,1404.95467 31.7402192,1405.87028 32.8391853,1405.73978 C33.6036918,1405.64896 34.0930752,1405.0762 34.7988175,1405.01057 C35.5938508,1404.93673 36.1593605,1405.26699 36.8036675,1405.46637 C37.3777628,1405.64381 37.8116255,1405.62759 37.9884904,1406.01318 C38.2750611,1406.63708 37.8887058,1408.38474 37.7608747,1409.11185 C37.5702727,1410.19345 37.3560125,1410.95605 36.9860654,1411.8005 L36.9860654,1411.8005 Z" id="Page-1"></path>
        </g>
    </g>
</svg>