<?xml version="1.0" encoding="UTF-8" standalone="no"?>
<svg width="24px" height="23px" viewBox="0 0 24 23" version="1.1" xmlns="http://www.w3.org/2000/svg" xmlns:xlink="http://www.w3.org/1999/xlink">
    <!-- Generator: Sketch 45.2 (43514) - http://www.bohemiancoding.com/sketch -->
    <title>Fill 1</title>
    <desc>Created with Sketch.</desc>
    <defs></defs>
    <g id="Mobile" stroke="none" stroke-width="1" fill="none" fill-rule="evenodd">
        <g id="page_product_320" transform="translate(-21.000000, -1578.000000)" stroke="#EF562D" stroke-width="0.5" fill="#EF562D">
            <path d="M22.9565399,1599.4151 C24.2833199,1598.55251 25.3244582,1597.12092 26.0104865,1595.80533 C24.9003236,1596.88148 23.4856539,1597.94426 22.9565399,1599.4151 M39.480699,1592.73429 C40.6345848,1593.077 42.1127305,1594.03103 43.516303,1593.43463 C43.1039314,1592.34926 40.7832872,1592.5819 39.480699,1592.73429 M29.1736294,1593.59644 C31.0093265,1592.96737 32.9033948,1592.39618 35.0087536,1592.03374 C33.7929455,1590.90057 32.6610322,1589.68387 31.7912345,1588.20865 C31.0481666,1590.13249 30.0809356,1591.83486 29.1736294,1593.59644 M32.0094052,1583.68279 C32.5860152,1582.59808 32.8481308,1579.92786 31.7368582,1579.21087 C31.4165933,1580.55606 31.5566399,1582.59106 32.0094052,1583.68279 M28.5191171,1594.88924 C27.4568942,1596.37322 26.3138836,1598.65139 24.8106583,1599.84595 C24.452663,1600.13078 23.8776066,1600.45003 23.3928814,1600.49257 C22.6258436,1600.5601 21.7109913,1600.15753 21.538541,1599.68457 C21.2957345,1599.01779 21.8834417,1598.1177 22.3566258,1597.58335 C22.9392283,1596.92534 23.6958347,1596.39471 24.428915,1595.91299 C25.2046086,1595.40363 26.2148967,1595.11946 26.8285713,1594.56604 C27.2646908,1594.17289 27.5594322,1593.40305 27.9738012,1592.62641 C28.7244151,1591.22004 29.3562891,1589.97001 30.0460904,1588.53185 C30.343939,1587.91089 30.9343095,1586.97769 30.9733716,1586.43062 C31.0226431,1585.73489 30.5394715,1584.76991 30.3732356,1583.95227 C30.1828078,1583.01403 30.0381004,1582.08719 29.9917142,1581.25837 C29.9266847,1580.09999 30.0116891,1578.80544 31.1367222,1578.56447 C34.2690149,1577.89396 33.1144633,1582.63229 32.82749,1584.49122 C32.756468,1584.9508 32.5811324,1585.45314 32.6093193,1585.83795 C32.6639174,1586.58236 33.4065414,1587.72692 33.8635236,1588.42397 C34.6290078,1589.59178 35.3556517,1590.42389 36.4267525,1591.11787 C36.673332,1591.27793 37.0104647,1591.55355 37.2994355,1591.60288 C37.8886962,1591.70352 38.7145491,1591.43098 39.4263228,1591.38734 C41.0387445,1591.28845 43.7049552,1591.28144 44.1705933,1592.41109 C44.4080732,1592.98667 44.2314059,1594.05471 43.8434482,1594.45838 C43.0471138,1595.28742 40.9584008,1594.64322 39.9716387,1594.3505 C39.3692833,1594.17202 38.7380751,1593.99266 38.1718965,1593.75782 C37.6594283,1593.54558 37.0499706,1593.05596 36.5903251,1593.00377 C35.9793138,1592.93404 35.1237205,1593.24694 34.4634377,1593.38069 C32.251102,1593.82887 30.5430226,1594.20863 28.5191171,1594.88924" id="Fill-1"></path>
        </g>
    </g>
</svg>