<?xml version="1.0" encoding="UTF-8" standalone="no"?>
<svg width="16px" height="20px" viewBox="0 0 16 20" version="1.1" xmlns="http://www.w3.org/2000/svg" xmlns:xlink="http://www.w3.org/1999/xlink">
    <!-- Generator: Sketch 45.2 (43514) - http://www.bohemiancoding.com/sketch -->
    <title>Fill 1 Copy 3</title>
    <desc>Created with Sketch.</desc>
    <defs></defs>
    <g id="PC" stroke="none" stroke-width="1" fill="none" fill-rule="evenodd">
        <g id="page_test_1024" transform="translate(-43.000000, -1787.000000)" fill="#EF562D">
            <path d="M53.1805339,1792.72664 C55.3808817,1793.8425 57.2027947,1795.56871 57.2445339,1798.6363 C57.254273,1799.35009 57.2160121,1800.07285 57.3996643,1800.70802 C57.5311426,1801.16526 57.7892295,1801.63216 58.0577513,1802.05147 C58.3673165,1802.53354 58.7527078,1803.02113 58.5996643,1803.6625 C58.5113165,1804.03423 58.1885339,1804.42113 57.9026208,1804.66044 C55.3287078,1806.81906 47.526273,1806.8763 44.3554904,1805.08319 C43.7669687,1804.75009 43.0281861,1804.12319 43.0010556,1803.43285 C42.9725339,1802.71285 43.5290556,1802.24526 43.8135774,1801.70595 C44.08836,1801.18595 44.3380991,1800.47009 44.3944469,1799.74871 C44.4306208,1799.27975 44.3728817,1798.82664 44.3944469,1798.40595 C44.5349687,1795.60319 46.0779252,1794.10044 47.9165339,1792.99492 C47.3377513,1791.93699 47.0518382,1790.55216 46.9488817,1788.8894 C46.9168817,1788.37561 46.88836,1787.74388 47.1805339,1787.50802 C47.8580991,1786.96182 48.7248817,1787.73285 49.6584469,1787.62319 C50.3074904,1787.54664 50.7234904,1787.06457 51.3224469,1787.00871 C51.9979252,1786.94733 52.4786208,1787.22457 53.0254034,1787.39285 C53.5137513,1787.5425 53.8817513,1787.52871 54.0320121,1787.85354 C54.2754904,1788.37906 53.9471426,1789.85009 53.8386208,1790.4625 C53.6765339,1791.37354 53.4949687,1792.01561 53.1805339,1792.72664" id="Fill-1-Copy-3"></path>
        </g>
    </g>
</svg>