<?xml version="1.0" encoding="UTF-8" standalone="no"?>
<svg width="57px" height="76px" viewBox="0 0 57 76" version="1.1" xmlns="http://www.w3.org/2000/svg" xmlns:xlink="http://www.w3.org/1999/xlink">
    <!-- Generator: Sketch 45.2 (43514) - http://www.bohemiancoding.com/sketch -->
    <title>Fill 1</title>
    <desc>Created with Sketch.</desc>
    <defs></defs>
    <g id="Symbols" stroke="none" stroke-width="1" fill="none" fill-rule="evenodd">
        <g id="head_320" transform="translate(-236.000000, -278.000000)" fill="#88B14B">
            <g id="Group-17" transform="translate(-3.000000, 0.000000)">
                <g id="Group-9" transform="translate(0.000000, 121.000000)">
                    <g id="Group-5" transform="translate(224.000000, 157.166682)">
                        <path d="M64.6408164,2.99048481 C66.6374837,4.35682701 70.4414405,3.98731308 71.4181523,6.33329686 C69.211231,6.93626338 67.0386065,6.39488251 64.8242295,6.86178771 C63.8355884,7.06946026 62.7828273,7.93452388 61.5272681,8.44439581 C60.6176586,8.81390974 59.4560427,8.75805298 58.7790547,9.14905028 C54.2310075,11.7657245 56.7958079,20.9835215 58.4122286,25.158456 C59.368064,27.6276111 61.1977211,29.4178918 62.441351,32.0188115 C63.2689465,33.7475065 63.3002609,35.549245 63.7252423,37.2979911 C64.4708238,40.3758416 66.9565926,43.4723111 66.4719646,46.9741 C66.1036473,49.6351732 63.5224442,53.0037653 61.70919,54.3629464 C59.7751515,55.8137898 56.3812645,57.1901576 53.6494539,58.4104129 C51.098074,59.5504636 47.4641098,61.4452966 47.0555311,63.6881603 C46.5962529,66.2088754 48.4661713,70.6143981 49.0715835,72.6596147 C52.4535412,72.2628885 55.2166662,71.7501521 56.3976673,74.4198186 C52.4729263,75.0843708 45.3362202,76.1399203 45.591209,71.251738 C42.8146635,71.5725563 41.3876205,70.5986436 40.0962734,69.4929663 C39.8487403,67.9132226 39.5266491,66.4050902 39.3626212,64.7437097 C29.9041742,64.5145538 27.9000512,55.8639177 21.9607489,52.0756838 C20.4203775,51.09461 18.4565158,51.0759911 17.9301353,48.9090354 C16.8236924,48.5653015 15.5263805,48.4063246 15,47.5025909 C18.6742256,47.0142023 21.9831164,46.7478086 25.4411234,46.2708778 C27.3513032,46.0073485 29.2883239,44.6567607 31.3043763,44.1597788 C32.0350462,43.9793185 32.8328184,44.1683722 33.5008594,43.982183 C34.5759879,43.6857125 35.6511165,42.6358919 36.6158989,42.2234113 C38.6811597,41.341161 41.5755071,40.7725678 44.3088089,39.7599851 C45.3541141,39.3732845 46.6499348,38.764589 47.9711052,38.3535406 C51.3441159,37.3051522 53.1185999,37.1232597 53.284119,32.8996296 C53.4600762,28.3652068 51.2680666,23.6503236 50.9027317,18.8251592 C50.5448525,14.097386 50.7610712,8.43437024 52.3685449,5.10158376 C53.8940047,1.93779978 57.410167,0.327979417 62.441351,0 C63.4508684,0.733298958 63.9250582,1.97646985 64.6408164,2.99048481 Z" id="Fill-1"></path>
                    </g>
                </g>
            </g>
        </g>
    </g>
</svg>