<?xml version="1.0" encoding="UTF-8" standalone="no"?>
<svg width="80px" height="64px" viewBox="0 0 80 64" version="1.1" xmlns="http://www.w3.org/2000/svg" xmlns:xlink="http://www.w3.org/1999/xlink">
    <!-- Generator: Sketch 45.2 (43514) - http://www.bohemiancoding.com/sketch -->
    <title>Fill 1</title>
    <desc>Created with Sketch.</desc>
    <defs></defs>
    <g id="Symbols" stroke="none" stroke-width="1" fill="none" fill-rule="evenodd">
        <g id="head_320" transform="translate(-120.000000, -292.000000)" fill="#88B14B">
            <g id="Group-17" transform="translate(-3.000000, 0.000000)">
                <g id="Group-9" transform="translate(0.000000, 121.000000)">
                    <path d="M139.138116,171.346198 C137.750257,173.02777 135.480204,173.856806 134.977259,176.385692 C137.984059,175.452211 140.441697,172.484654 144.926071,172.389347 C143.886196,174.415589 140.641516,174.684537 139.317545,176.559333 C136.014414,181.238491 144.043876,185.029862 149.269076,185.074251 C153.001749,185.104279 157.161247,184.743942 161.209281,185.768814 C163.918392,186.454237 166.770231,187.541776 169.530995,187.680166 C174.935624,187.951724 180.06703,185.417616 185.994994,186.116095 C188.020371,186.355014 189.829616,188.065309 191.782949,188.027447 C193.990473,187.985669 195.97643,184.954139 198.837784,185.942454 C201.035793,186.844602 202.158585,188.778149 203,190.981949 C201.671951,191.010671 200.984139,188.920456 199.20072,188.548369 C196.994555,188.088809 194.852278,188.979207 192.86904,189.417878 C192.004517,193.010802 195.859529,196.380475 196.125954,200.712351 C196.290431,203.40835 195.545527,206.088682 195.764377,208.531401 C195.931572,210.404892 196.853187,212.069492 197.029897,213.744536 C197.254184,215.879141 196.468501,218.71353 196.66832,221.216305 C196.876295,223.814386 198.083365,230.304368 193.049829,228.165846 C192.321237,226.720582 193.38422,225.31579 193.592195,223.648579 C194.197089,218.798392 193.539181,212.468996 191.421372,209.573245 C190.813759,208.742903 189.342982,207.32375 187.985029,208.18412 C187.517425,209.479244 188.613031,210.600727 188.706824,212.006825 C188.830521,213.85551 187.730837,216.225116 187.622092,218.609085 C187.524221,220.776328 187.627529,222.789515 186.718149,224.518088 C185.6674,224.484143 184.376053,224.681284 183.824171,224.169501 C183.003146,222.625013 184.794721,221.319445 185.089692,219.825875 C185.751677,216.470563 184.369256,213.002973 184.185749,209.921832 C180.636582,208.588846 175.819177,210.257363 170.977304,210.269113 C168.326644,210.274335 165.93969,209.662023 163.380104,209.573245 C159.538685,215.278579 160.679149,225.584737 160.846344,233.0317 C160.297182,234.388186 158.298992,235.090582 156.685487,234.422131 C156.397313,231.914134 157.802843,230.522398 157.952367,228.339487 C158.134515,225.683961 156.431296,223.589829 156.325269,221.216305 C156.28449,220.345491 156.824137,219.590872 156.866276,218.782725 C156.975021,216.796955 156.011268,215.178051 155.781544,213.222309 C153.084667,217.3231 155.440357,224.176029 154.335235,229.035355 C153.697717,229.728612 152.033918,230.259978 150.716744,229.729917 C150.211079,227.699758 151.658748,226.378523 151.982264,224.169501 C152.28675,222.087119 151.155802,220.204489 151.078321,218.088163 C151.00084,216.02667 152.252768,213.64923 151.25911,211.138621 C150.491098,209.197241 148.321634,208.321205 147.279041,206.793689 C145.844966,200.893825 143.884837,195.131046 138.776539,192.371074 C137.275857,191.560316 134.869873,190.808308 133.166654,190.808308 C130.095966,190.808308 123.701757,194.752431 123.037053,190.461027 C122.644212,187.926918 125.482457,185.813203 126.473397,184.031102 C127.240049,182.653727 127.738917,181.135351 128.645579,179.513835 C129.230083,178.461546 130.399092,177.405341 131.177979,176.385692 C133.438516,173.424663 134.331585,171.946759 138.59575,171.172557 C138.749352,171.141224 138.765664,171.240447 138.776539,171.346198 L139.138116,171.346198 Z" id="Fill-1"></path>
                </g>
            </g>
        </g>
    </g>
</svg>