<?xml version="1.0" encoding="UTF-8" standalone="no"?>
<svg width="80px" height="69px" viewBox="0 0 80 69" version="1.1" xmlns="http://www.w3.org/2000/svg" xmlns:xlink="http://www.w3.org/1999/xlink">
    <!-- Generator: Sketch 45.2 (43514) - http://www.bohemiancoding.com/sketch -->
    <title>Page 1</title>
    <desc>Created with Sketch.</desc>
    <defs></defs>
    <g id="Symbols" stroke="none" stroke-width="1" fill="none" fill-rule="evenodd">
        <g id="head_320" transform="translate(-118.000000, -146.000000)" fill="#88B14B">
            <g id="Group-17" transform="translate(-3.000000, 0.000000)">
                <g id="Group-9" transform="translate(0.000000, 121.000000)">
                    <g id="Group-7" transform="translate(121.000000, 25.000000)">
                        <path d="M28.6602185,51.5888732 C28.0914639,48.9300313 28.6993889,45.9812705 31.1028863,44.5602171 C30.1533952,43.9788771 29.2587426,43.3449611 28.6602185,42.4301392 C28.7322921,38.3817895 30.8521956,36.2967767 32.6571689,33.9098277 C32.116617,32.4091593 32.7402102,30.9114952 33.324633,29.8629801 C29.6958846,32.0291101 24.8904565,33.4922243 19.1057678,32.4181723 C19.257749,31.3576399 20.5503731,31.3906876 21.5500025,31.1413273 C20.5691749,30.8453997 18.4978427,31.3351073 16.8840211,31.1413273 C17.0109333,30.2685662 18.452405,30.6576284 19.1057678,30.2880944 C18.1829125,29.6827197 15.7480787,30.5269395 15.1072505,29.6511741 C15.2952686,28.8369976 16.4390451,28.9376431 17.1065091,28.584633 C16.0489076,27.6818285 13.5545348,28.1550122 13.3289131,26.4545551 C13.3101113,25.1596841 15.3062363,25.7936 16.2181238,25.3895162 C14.1984966,22.3566338 8.51721778,22.8328218 5.33031179,20.9160522 C5.49326077,20.7177657 5.7345506,20.5930855 5.99777588,20.4894357 C5.66247702,20.1003736 5.03888381,19.9892129 4.66441452,19.637705 C4.62524409,19.1735343 4.8461653,18.9602261 5.33031179,18.9992825 C4.16146623,18.2451929 4.67538224,17.1966778 3.33105316,16.6558964 C3.13520103,15.9724088 4.06432357,16.3644753 3.99851725,15.8041657 C2.4458015,15.1627389 0.606358219,14.7962092 0,13.2489736 C0.0924422092,12.4858709 0.708201331,12.222991 1.55428257,12.1839346 C1.26912185,11.4628927 0.172349881,11.5199752 0.220921212,10.478971 C0.481012851,9.37938214 1.92875186,9.41843858 3.33105316,9.41393206 C1.7125311,9.08796105 0.285160713,6.37654315 2.66515589,5.79370097 C2.30008751,5.27695429 2.09953492,4.75870544 2.44266787,4.08873736 C3.02552383,3.6531079 3.74312606,3.3466651 4.88690255,3.45031487 C4.91040481,2.5039474 4.26487616,2.20050895 4.44192649,1.10692877 C5.26763911,0.761429533 6.62763635,0.929672638 7.77454647,0.893620544 C11.5458752,3.24902401 14.8455921,5.89735074 18.8848466,8.98881779 C22.0388494,11.4028059 26.5230799,15.6299139 30.8803983,16.22928 C40.3909781,17.5406749 49.0492095,13.0386697 59.7646716,14.3140125 C60.1391409,14.3575754 60.6984946,14.2794626 61.0948994,14.3140125 C66.8404177,14.811231 70.4205948,18.853572 73.5385608,14.3140125 C72.585936,9.33281485 66.4675152,9.30577578 67.094242,2.8103902 C67.951291,0.75241651 71.0316534,-0.823360427 73.9835369,0.46850627 C75.3498014,2.13891995 77.5308108,3.02970711 78.6479514,4.94197025 C76.4685088,6.03104392 78.5241728,9.11199578 77.7595661,11.1188957 C75.7650079,10.1484935 77.8849114,6.43362564 76.6486928,4.94197025 C75.9592932,4.91943769 75.5863908,5.20184576 75.0928434,5.36558236 C75.3435341,6.44414083 75.5801235,8.43902336 74.8719222,9.20212601 C77.1015029,12.7427421 78.5711773,17.013413 79.9813127,21.3426686 C80.0283172,22.2394645 78.9863839,22.0937539 78.6479514,22.6195136 C78.7262922,25.7800805 80.1802985,28.2376316 79.9813127,30.9280191 C79.7556911,33.9759232 77.6310871,38.8820123 75.0928434,40.9384838 C71.9983796,43.4471087 65.6559039,45.7950013 60.8739781,46.4769867 C59.032968,46.7398666 57.3564737,46.6647581 55.5420995,46.4769867 C52.2329818,51.8487487 54.1303973,61.1426781 56.651406,66.2876123 C59.1943502,66.8329002 61.4239309,67.6771201 63.9841101,68.204382 C61.1983093,68.6024572 57.5507591,67.9820607 54.4312262,67.9910738 C54.0066188,67.6170333 53.6337163,67.1934212 53.5428409,66.5009206 C52.9991554,67.1138061 51.8052407,67.1062953 51.3195274,67.7777655 C50.8510491,66.5414792 52.7845014,65.7768743 53.3203529,64.7959569 C53.1495698,59.0666784 51.0108645,55.2226238 50.877685,49.4587953 C49.1197162,50.1888502 48.1091192,51.6354405 46.2101369,52.2287979 C47.4573233,54.7494401 51.3257947,56.5265079 50.877685,60.322493 C50.6395288,62.330895 48.9128964,64.5120467 46.8760341,65.4343794 C47.0389831,64.9491783 47.0750199,64.3468079 47.322577,63.9442262 C47.1063562,63.4169644 46.4686617,64.2371495 45.7667276,63.9442262 C46.4420258,62.0169414 48.5556621,60.4862296 47.5434982,58.1924151 C46.7240529,58.1293239 46.4012886,59.6375032 45.9876488,59.257454 C47.7064472,57.0342416 46.1161278,54.968757 44.8783423,53.2923347 C43.3334607,53.7294663 42.3604672,54.713388 41.1007463,55.4239147 C40.3878445,55.2556716 40.1308865,54.6502969 39.5448969,54.3588758 C38.7019493,54.4009365 38.7019493,55.2541694 37.7681263,55.2106065 C36.4331981,55.0168265 35.7500659,53.4951277 36.879741,52.6539122 C35.175044,51.9914549 32.9376292,55.276702 31.7687836,52.6539122 C31.2235313,52.8957616 30.5388322,53.7114402 29.992013,53.2923347 C29.2618762,51.7225664 31.1138541,50.8107489 28.6602185,51.5888732" id="Page-1"></path>
                    </g>
                </g>
            </g>
        </g>
    </g>
</svg>