<?xml version="1.0" encoding="UTF-8" standalone="no"?>
<svg width="65px" height="59px" viewBox="0 0 65 59" version="1.1" xmlns="http://www.w3.org/2000/svg" xmlns:xlink="http://www.w3.org/1999/xlink">
    <!-- Generator: Sketch 45.2 (43514) - http://www.bohemiancoding.com/sketch -->
    <title>Fill 1</title>
    <desc>Created with Sketch.</desc>
    <defs></defs>
    <g id="Symbols" stroke="none" stroke-width="1" fill="none" fill-rule="evenodd">
        <g id="head_320" transform="translate(-128.000000, -447.000000)" fill="#88B14B">
            <g id="Group-17" transform="translate(-3.000000, 0.000000)">
                <g id="Group-9" transform="translate(0.000000, 121.000000)">
                    <path d="M132.978683,378.667542 C133.095869,378.410556 132.200141,378.410556 132.318673,378.667542 C131.856666,378.463503 132.838599,378.340822 132.648678,377.877215 C132.18263,377.746785 132.221692,378.100624 131.824339,378.034764 C133.004275,377.426522 131.09294,377.491091 131.988668,376.611658 C131.894381,376.281064 131.366373,376.840233 131,376.770499 C131.245147,376.374044 131.740828,376.215204 132.154344,375.97888 C132.025036,375.628915 131.133349,376.008582 131.330005,375.346102 C132.0412,375.481697 132.084302,374.918654 131.66001,374.713324 C133.023133,374.528656 132.969255,373.681508 134.628708,373.924288 C134.099353,370.378148 135.461129,367.743724 135.783053,364.59533 C136.04571,362.024184 138.082312,359.753931 139.740419,357.796193 C145.182135,351.372848 152.625432,348.725511 164.808679,349.257561 C168.718901,349.428024 172.001441,349.304051 175.693457,350.364277 C175.596476,349.691466 175.811989,349.318256 175.859133,348.782332 C177.606139,346.580522 179.471678,344.682187 177.837816,341.668097 C176.548776,339.286785 174.448866,337.019114 174.374784,334.236182 C174.291272,331.125237 175.787744,326.150826 179.65217,328.227372 C180.027972,327.035424 181.133825,326.081091 182.456539,326.17278 C184.235873,326.29417 185.185479,328.914388 185.258215,330.757193 C185.409074,334.525452 184.722125,338.732781 186.743911,341.509257 C188.366997,343.738186 190.800952,342.92074 192.351303,345.462183 C192.053625,349.315673 197.068354,352.723636 194.329986,355.740309 C192.89278,357.323546 189.972572,357.184077 187.56825,358.112582 C186.40313,361.5722 185.566669,365.283637 183.115203,368.231867 C181.885429,369.711793 180.414549,369.873216 178.99216,370.919237 C176.022115,373.105551 177.589975,378.818634 180.476509,379.933098 C182.193882,380.595578 183.647251,380.246905 184.105218,382.304079 C182.933363,383.548974 181.307583,382.851626 179.65217,383.095698 C177.169724,383.458577 175.022671,385.316878 172.560429,383.569636 C171.760336,383.000135 171.123224,381.675175 170.250394,380.565876 C169.256338,379.297737 167.710029,378.364067 167.611701,376.928048 C167.462188,374.721072 169.840919,373.63631 170.086065,371.394467 C166.967854,372.929922 163.072448,374.693953 160.026973,376.928048 C159.127204,377.587945 157.933798,378.347279 157.552609,379.457869 C160.277508,381.751367 168.733718,377.475594 168.767392,382.779309 C167.564557,383.417252 165.553547,384.279897 163.324329,384.043574 C162.630645,383.969965 161.911369,383.387551 161.015641,383.253247 C158.818751,382.922652 155.47021,382.91103 153.099561,383.095698 C150.750464,383.276492 148.870109,383.64841 147.986504,381.830141 C147.942054,381.260641 148.290917,381.068225 148.316509,380.565876 C147.405964,381.060477 144.74572,382.583018 142.709117,381.513752 C141.503589,381.955406 139.227227,382.159444 137.761736,381.830141 C137.788675,381.645474 138.062108,381.697129 138.25607,381.671301 C137.690347,381.229648 137.371118,380.966205 136.441716,381.197363 C136.421511,380.913259 136.643759,380.864186 136.607392,380.565876 C134.322949,380.946835 134.934468,379.140188 133.144359,379.615418 C133.19285,379.293863 133.590203,379.306777 133.638693,378.983931 C133.34775,379.074328 132.67023,378.792806 132.648678,379.142771 C132.256713,379.09499 132.831865,378.714032 132.978683,378.667542" id="Fill-1"></path>
                </g>
            </g>
        </g>
    </g>
</svg>