<svg width="42" height="42" viewBox="0 0 42 42" xmlns="http://www.w3.org/2000/svg"><title>Group 4</title><g fill="none" fill-rule="evenodd"><path d="M18.882 21.097c.053.066.023.525.023.61l.002 9.683h4.22c.025-2.548.001-5.164.001-7.725 0-.036-.009-2.48.003-2.53.008-.034.009-.03.018-.044.006 0 2.684.022 2.778 0l.046-.014.37-3.534h-3.202c-.012-.523.003-1.059.003-1.582 0-.478-.01-1.068.276-1.33l2.907-.291-.004-3.545c-.55-.033-1.203-.004-1.766-.004-.583 0-1.175-.011-1.75.027-1.095.071-1.979.396-2.62.939-.926 1.478-1.284.208-1.29 5.787l-2.122.001.004 3.55 2.103.002z" fill="#FFF"/><path d="M40.968 20.87c0 10.973-8.942 19.869-19.971 19.869-11.03 0-19.972-8.896-19.972-19.87C1.025 9.897 9.966 1 20.997 1c11.03 0 19.971 8.896 19.971 19.87z" stroke="#FFF" stroke-width="2"/></g></svg>