<svg width="29" height="20" viewBox="0 0 29 20" xmlns="http://www.w3.org/2000/svg"><title>Fill 1</title><path d="M24.793 10.99c.081-.073.017.025.08-.118l.145-.508c.785-.025 1.327-.084 1.96-.335l1.307-.89c-.432-.006-.887.11-1.59.002l-1.426-.297c.118-.074.299-.077.465-.101a5.71 5.71 0 0 0 .488-.088c.328-.076.569-.15.845-.276l1.095-1.066c-.5.196-.953.277-1.627.285-.328.003-1.518-.015-1.627-.306-.132-.346-.13-.672-.403-1.319a6.788 6.788 0 0 0-.63-1.16 6.395 6.395 0 0 0-1.839-1.805l-3.001-.836c.188-.18.895-.321 1.15-.389 1.339-.355 1.223-.841.9-.931-.414-.116-1.423.262-1.874.4l.808-.853c-.84.078-1.39.496-2.02.882l.262-.64c-.793.265-2.224 2.145-2.62 2.898l-1.68 3.664c-.143-.058-1.136-1.07-1.895-1.522-.662-.394-1.547-.815-2.308-1.165-1.831-.844-3.14-1.357-5.015-2.04-.093 1.638.964 2.54 2.282 3.42l-1.607.21c.028.7.57 1.428.983 1.778.75.637 1.142.639 1.83.898l.141.072c-1.108.191-.777.069-1.74.69.012.436.966 1.363 1.686 1.522l1.602.207c-.111.1-.285.172-.416.256a1.228 1.228 0 0 0-.348.307c-.22.266-.336.568-.19.938l1.854.841c-.1.196-.705.68-.908.82-1.11.765-2.358 1.303-3.949 1.373a7.634 7.634 0 0 1-3.089-.51c-.996-.396-1.405-.728-2.165-1.312.223.382.728.91 1.037 1.235 2.91 3.069 7.615 4.763 12.534 3.89 3.004-.535 4.94-1.566 6.698-2.845.29-.21.98-.827 1.23-1.082.764-.785 1.445-1.626 1.943-2.597.149-.292.664-1.301.642-1.597" fill="#FFF" fill-rule="evenodd"/></svg>