<svg width="43" height="42" viewBox="0 0 43 42" xmlns="http://www.w3.org/2000/svg"><title>Group 3</title><g fill="none" fill-rule="evenodd"><path d="M19.267 26.688h2.845c.962 0 1.639-.183 2.03-.554.396-.37.593-.869.593-1.496 0-.58-.194-1.047-.585-1.4-.39-.353-1.07-.531-2.05-.531h-2.833v3.98zm0-7.72h2.425c.87 0 1.475-.165 1.82-.49.34-.329.508-.8.508-1.414 0-.571-.168-1.02-.508-1.34-.345-.326-.938-.486-1.783-.486h-2.462v3.73zm-5.627-7.71h10.443c1.74 0 3.077.471 4.005 1.409.933.938 1.4 2.1 1.4 3.482 0 1.162-.332 2.16-.997 2.993-.444.554-1.092.993-1.946 1.314 1.295.338 2.25.923 2.862 1.747.61.83.916 1.868.916 3.117 0 1.02-.218 1.936-.65 2.75a5.059 5.059 0 0 1-1.786 1.932c-.467.292-1.173.507-2.119.64-1.257.178-2.088.27-2.5.27H13.64V11.257z" fill="#ef562d"/><path d="M41.456 20.87c0 10.973-8.942 19.869-19.971 19.869-11.031 0-19.973-8.896-19.973-19.87C1.512 9.897 10.454 1 21.485 1c11.029 0 19.971 8.896 19.971 19.87z" stroke="#ef562d" stroke-width="2"/></g></svg>