<svg width="119" height="34" viewBox="0 0 119 34" xmlns="http://www.w3.org/2000/svg"><title>Page 1</title><g fill="none" fill-rule="evenodd"><path d="M53.327 12.2l-.005.028c-.206 1.074-1.144 1.503-1.928 1.448-.778-.055-1.614-.621-1.614-1.735V7.517c0-.86-.181-1.398-1.078-1.415-.36-.008-.624.064-.807.22-.338.282-.377.817-.377 1.195v4.364c0 1.097-1 1.776-1.926 1.776-.764 0-1.655-.478-1.655-1.828V7.517c0-1.044-.298-1.415-1.138-1.415-.915 0-1.108.77-1.108 1.415v4.37c0 .356.102 3.474 3.575 3.474 2.24 0 3.09-1.245 3.125-1.297l.35-.531.357.528c.036.054.899 1.3 3.208 1.3 1.925 0 3.266-1.552 3.266-2.943V7.152c0-.223-.11-1.059-1.082-1.059-.97 0-1.163.808-1.163 1.059v5.047zm17.002-.37c0 1.302-.756 1.961-1.706 1.961-.992 0-1.704-.659-1.704-1.962V9.624c0-1.146.531-2.058 1.704-2.137 1.173.08 1.706.991 1.706 2.137v2.205zm2.093-2.896c-.13-1.421-.971-2.84-3.496-2.84-.66 0-1.447.297-1.96.688V3.56c0-.223-.106-1.059-1.035-1.059-.929 0-1.112.807-1.112 1.059v5.716a3.187 3.187 0 0 0-.016.29v1.781s.056 1.257.272 1.877c.582 1.672 2.169 2.145 3.625 2.145 1.011 0 2.219-.367 2.979-1.199.454-.498.72-1.18.763-2.004v-2.058l-.02-1.173zm-13.79.69c0-1.188.567-2.125 1.83-2.145.608.047 1.26.385 1.28 1.518-.142.555-2.383 1.065-3.11 1.305v-.678zm5.128-.253l.02-.02c.178-1.433-.754-3.286-3.432-3.258-2.677.028-3.475 1.827-3.475 1.827s.006.012.01.016a4.196 4.196 0 0 0-.367 1.629v2.323c0 .356.1 3.472 3.574 3.472 2.242 0 3.253-1.244 3.287-1.296l.108-.164c.91-1.652-1.227-1.818-1.647-1.095-.266.458-.717.851-1.422.851-.739 0-1.711-.455-1.772-1.708a85.031 85.031 0 0 1 3.582-1.238c1.259-.396 1.504-.87 1.534-1.339zM5.491 20.047c.216.231.564.586 1 .96.394.34.911.526 1.454.523h.056l.1-.006c.546-.046 1.328-.476 1.632-.753l.02-.017.02-.022c.006-.006.768-.792 1.928-1.846l1.92-1.756 3.67 3.465c.294.277.985.93 2.123.93 1.021 0 1.6-.545 1.944-.87l.103-.096c-.009.008 1.128-1.035 2.752-2.627l3.206-2.91.595-.542-1.583-1.474a2.188 2.188 0 0 0-1.456-.524h-.047l-.098.006c-.512.044-.972.24-1.32.556l-2.286 2.078-1.925 1.76c-.47-.446-4.146-3.92-4.146-3.92a2.224 2.224 0 0 0-2.986-.026l-3.443 3.128-3.74 3.438.507.545z" fill="#F26F27"/><path d="M29.485 23.119c-.966-.134-1.676.868-1.968 1.31-2.35 3.554-6.284 5.629-10.813 5.629-6.584 0-12.062-4.785-13.108-11.04l.54-.5a.074.074 0 0 1 .007.007l2.934-2.72-2.963-2.766a2.983 2.983 0 0 0-.418-.34 1.377 1.377 0 0 0-.21-.123c-.021-.011-.04-.023-.062-.032l-.03-.013a1.479 1.479 0 0 0-.422-.121 2.61 2.61 0 0 0-1.11.039c-.742.196-1.296.72-1.562 1.48l-.02.056-.012.059A17.12 17.12 0 0 0 0 17.034c0 9.203 7.49 16.76 16.698 16.847 5.786.054 10.839-2.598 13.927-7.202.441-.658 1.425-3.204-1.14-3.56" fill="#F26F27"/><path d="M101.26 18.09c-.93 0-1.112.807-1.112 1.059v7.143c0 .251.183 1.059 1.113 1.059.929 0 1.036-.836 1.036-1.06V19.15c0-.223-.107-1.058-1.036-1.058m-47.934 3.159l-.005-.028c-.205-1.073-1.144-1.503-1.929-1.448-.777.055-1.613.622-1.613 1.735v4.423c0 .862-.181 1.399-1.078 1.416-.36.008-.624-.064-.807-.219-.338-.283-.378-.818-.378-1.197V21.57c0-1.096-.999-1.775-1.926-1.775-.763 0-1.655.48-1.655 1.827v4.312c0 1.046-.297 1.416-1.137 1.416-.915 0-1.108-.769-1.108-1.416v-4.37c0-.356.11-3.444 4.027-3.472 2.241-.016 3.023 1.476 3.023 1.476s.634-1.615 3.321-1.448c1.92.119 3.51 1.531 3.51 3.286V26.3c0 .223-.11 1.059-1.082 1.059-.97 0-1.163-.807-1.163-1.059v-5.048zM94.66 18.09c-3.918.029-4.027 3.117-4.027 3.473v4.37c0 .647.191 1.417 1.107 1.417.84 0 1.138-.37 1.138-1.416V21.62c0-1.348.895-1.77 1.655-1.826 1.21-.09 1.926.678 1.926 1.774v4.365c0 .378.039.913.376 1.197.183.154.448.226.808.219.898-.018 1.078-.554 1.078-1.416V21.51c0-2.137-1.821-3.435-4.062-3.42m-17.625 0c-.762.006-1.378.13-1.879.324v-2.858c0-.223-.107-1.059-1.035-1.059-.93 0-1.113.808-1.113 1.059v10.378c0 .646.192 1.416 1.108 1.416.84 0 1.137-.37 1.137-1.416V21.62c0-1.348.894-1.77 1.655-1.826 1.21-.09 1.926.678 1.926 1.774v4.365c0 .378.04.913.377 1.197.183.154.448.226.807.219.898-.018 1.08-.554 1.08-1.416V21.51c0-2.137-1.823-3.435-4.063-3.42m-6.813 6.713c-.265.457-.715.85-1.421.85-.764 0-1.785-.478-1.785-1.827v-2.205c0-1.188.551-1.978 1.815-1.999.476.037.911.26 1.132.891.074.212.602.96 1.359.807.972-.194.837-.968.63-1.451-.42-.976-1.43-1.798-3.22-1.778-2.678.028-3.476 1.827-3.476 1.827l.01.015a4.183 4.183 0 0 0-.365 1.63v2.322c.013.5.35 3.473 3.823 3.473 2.242 0 3.002-1.245 3.038-1.297l.109-.164c.907-1.652-1.229-1.819-1.649-1.094m-11.46-3.182c0-1.187.567-2.125 1.83-2.145.608.048 1.26.384 1.28 1.518-.142.556-2.383 1.064-3.11 1.304v-.677zm5.128-.253l.02-.019c.178-1.434-.754-3.286-3.431-3.259-2.678.028-3.476 1.828-3.476 1.828s.006.012.01.016a4.194 4.194 0 0 0-.366 1.628v2.323c0 .356.1 3.473 3.573 3.473 2.242 0 3.252-1.245 3.287-1.298l.108-.164c.91-1.65-1.225-1.818-1.647-1.094-.267.458-.716.852-1.42.852-.741 0-1.713-.457-1.774-1.71a85.222 85.222 0 0 1 3.583-1.238c1.259-.396 1.503-.869 1.533-1.338zm23.351 3.434c0 1.188-.551 1.19-1.562 1.142-.627-.048-1.519-.17-1.549-1.578.037-.935.256-1.506 1.094-1.736.713-.195 1.942.194 2.008.612l.009-.022v1.582zm-1.628-6.711c-2.03-.078-2.599.073-2.808.674-.218.628.45.955 1.392.955.534 0 .788-.037 1.157-.037.764 0 2.004.467 2.006 2.08-.012-.016-.017-.038-.031-.052-.388-.39-2.17-1.038-3.82-.139-1.514.824-1.465 2.304-1.433 2.917 0 .014.008.03.01.044-.078 1.546 1.019 2.86 3.559 2.86 1.943 0 3.712-.142 3.712-2.758v-3.072c0-.356-.274-3.342-3.744-3.472zm23.208 6.712c-.265.457-.715.85-1.421.85-.764 0-1.784-.478-1.784-1.827v-2.205c0-1.188.552-1.978 1.814-1.999.477.037.912.26 1.132.891.075.212.603.96 1.36.807.971-.194.838-.968.63-1.451-.42-.976-1.431-1.798-3.22-1.778-2.678.028-3.476 1.827-3.476 1.827l.01.015a4.187 4.187 0 0 0-.366 1.63v2.322c.013.5.35 3.473 3.825 3.473 2.239 0 3-1.245 3.035-1.297l.11-.164c.908-1.652-1.228-1.819-1.649-1.094m7.698-.001c0 1.188-.552 1.19-1.563 1.142-.627-.048-1.519-.17-1.548-1.578.037-.935.255-1.506 1.093-1.736.713-.195 1.943.194 2.008.612l.01-.024v1.584zm-1.63-6.711c-2.029-.078-2.597.073-2.806.674-.22.628.45.955 1.392.955.533 0 .788-.037 1.157-.037.763 0 2.005.467 2.007 2.08-.013-.016-.019-.038-.033-.052-.389-.39-2.169-1.038-3.82-.139-1.514.824-1.465 2.304-1.432 2.917.001.012.008.025.01.038-.083 1.55 1.016 2.865 3.559 2.865 1.942 0 3.71-.14 3.71-2.757v-3.072c0-.356-.272-3.342-3.743-3.472zM16.768 0C11.353 0 6.291 2.525 3.17 6.616c-.604.791-1.63 2.355-.575 3.39 1.593 1.562 3.284-.46 3.88-1.213 2.465-3.12 6.182-4.972 10.23-4.972 6.192 0 11.555 4.58 12.94 10.523l-3.772 3.363 1.965 1.814.528.454c.318.278.62.538.917.754l-.004.018.428.284c.636.444 1.466.526 2.22.216.649-.264 1.107-.862 1.29-1.68l.007-.028.003-.027c.121-.825.182-1.658.182-2.477C33.41 7.642 25.944 0 16.768 0" fill="#58585B"/></g></svg>