<svg width="57" height="76" viewBox="0 0 57 76" xmlns="http://www.w3.org/2000/svg"><title>Fill 1</title><path d="M49.64 3.157c1.997 1.367 5.801.997 6.778 3.343-2.207.603-4.38.062-6.594.528-.988.208-2.041 1.073-3.297 1.583-.91.37-2.071.314-2.748.705-4.548 2.616-1.983 11.834-.367 16.01.956 2.468 2.786 4.259 4.03 6.86.827 1.728.858 3.53 1.283 5.279.746 3.078 3.232 6.174 2.747 9.676-.368 2.66-2.95 6.03-4.763 7.389-1.934 1.45-5.328 2.827-8.06 4.047-2.55 1.14-6.185 3.035-6.593 5.278-.46 2.52 1.41 6.926 2.016 8.971 3.382-.396 6.145-.91 7.326 1.76-3.925.665-11.062 1.72-10.807-3.168-2.776.321-4.203-.653-5.495-1.758-.247-1.58-.57-3.088-.733-4.75-9.459-.229-11.463-8.88-17.402-12.668-1.54-.98-3.504-1-4.03-3.166C1.823 48.732.525 48.573 0 47.669c3.674-.488 6.983-.755 10.441-1.231 1.91-.264 3.847-1.615 5.863-2.112.731-.18 1.529.01 2.197-.177 1.075-.297 2.15-1.346 3.115-1.759 2.065-.882 4.96-1.45 7.693-2.463 1.045-.387 2.34-.996 3.662-1.407 3.373-1.048 5.148-1.23 5.313-5.454.176-4.534-2.016-9.249-2.381-14.074-.358-4.728-.142-10.39 1.466-13.724C38.894 2.104 42.41.495 47.44.167c1.01.733 1.484 1.976 2.2 2.99z" fill="#88B14B" fill-rule="evenodd"/></svg>