<svg width="65" height="59" viewBox="0 0 65 59" xmlns="http://www.w3.org/2000/svg"><title>Fill 1</title><path d="M1.979 52.668c.117-.257-.779-.257-.66 0-.462-.204.52-.327.33-.79-.466-.131-.427.223-.825.157 1.18-.608-.731-.544.165-1.423-.095-.33-.623.228-.989.158.245-.396.74-.555 1.154-.791-.129-.35-1.02.03-.824-.633.711.136.754-.427.33-.633 1.363-.184 1.31-1.031 2.969-.789-.53-3.546.832-6.18 1.154-9.329.263-2.57 2.3-4.841 3.957-6.799 5.442-6.423 12.885-9.07 25.069-8.538 3.91.17 7.192.046 10.884 1.106-.097-.673.119-1.046.166-1.582 1.747-2.201 3.613-4.1 1.979-7.114-1.29-2.381-3.39-4.649-3.463-7.432-.084-3.11 1.413-8.085 5.277-6.009.376-1.192 1.482-2.146 2.805-2.054 1.779.121 2.728 2.741 2.801 4.584.151 3.768-.536 7.976 1.486 10.752 1.623 2.23 4.057 1.412 5.607 3.953-.297 3.854 4.717 7.262 1.979 10.278-1.437 1.584-4.357 1.444-6.762 2.373-1.165 3.46-2.001 7.17-4.453 10.119-1.23 1.48-2.7 1.641-4.123 2.687-2.97 2.187-1.402 7.9 1.485 9.014 1.717.663 3.17.314 3.628 2.371-1.172 1.245-2.797.548-4.453.792-2.482.363-4.63 2.22-7.092.474-.8-.57-1.437-1.895-2.31-3.004-.994-1.268-2.54-2.202-2.638-3.638-.15-2.207 2.229-3.292 2.474-5.534-3.118 1.536-7.014 3.3-10.059 5.534-.9.66-2.093 1.42-2.474 2.53 2.725 2.293 11.18-1.982 11.214 3.321-1.202.638-3.213 1.5-5.443 1.265-.693-.074-1.413-.656-2.308-.79-2.197-.331-5.546-.343-7.916-.158-2.35.18-4.23.552-5.113-1.266-.045-.57.304-.762.33-1.264-.911.494-3.571 2.017-5.608.948-1.205.441-3.482.645-4.947.316.027-.185.3-.133.494-.159-.566-.441-.885-.705-1.814-.474-.02-.284.202-.333.165-.631-2.284.38-1.673-1.426-3.463-.95.049-.322.446-.31.495-.632-.291.09-.969-.191-.99.159-.392-.048.183-.429.33-.475" fill="#88B14B" fill-rule="evenodd"/></svg>