<?xml version="1.0" encoding="UTF-8" standalone="no"?><svg width="240" height="231" viewBox="0 0 240 231" xmlns="http://www.w3.org/2000/svg" xmlns:xlink="http://www.w3.org/1999/xlink"><svg width="15" height="10" viewBox="0 0 15 10" id="L1VzZXJzL3ZlYm1laGFuaWNhL0RvY3VtZW50cy9rb21iaWtvcm0vZnJvbnRlbmQvaW1nL3Nwcml0ZS9jb250ZW50L2FjY29yZGlvbi0tY2xvc2Uuc3Zn" x="60" y="187" xmlns="http://www.w3.org/2000/svg"><title>Path 760</title><path d="M1 8.59L7.6 2l6.732 6.59" stroke-width="2" stroke="#979797" fill="none" fill-rule="evenodd"/></svg><svg width="15" height="9" viewBox="0 0 15 9" id="L1VzZXJzL3ZlYm1laGFuaWNhL0RvY3VtZW50cy9rb21iaWtvcm0vZnJvbnRlbmQvaW1nL3Nwcml0ZS9jb250ZW50L2FjY29yZGlvbi0tb3Blbi5zdmc=" x="119" y="106" xmlns="http://www.w3.org/2000/svg"><title>Path 760</title><path d="M1 1l6.6 6.59L14.331 1" stroke-width="2" stroke="#979797" fill="none" fill-rule="evenodd"/></svg><svg width="26" height="23" viewBox="0 0 26 23" id="L1VzZXJzL3ZlYm1laGFuaWNhL0RvY3VtZW50cy9rb21iaWtvcm0vZnJvbnRlbmQvaW1nL3Nwcml0ZS9jb250ZW50L2NhcnQuc3Zn" x="68" y="164" xmlns="http://www.w3.org/2000/svg"><title>cart</title><g transform="translate(1 1)" fill="none" fill-rule="evenodd"><path d="M.321 1.583L3.82.413C4.46.2 5.244.55 5.564 1.19L6.8 3.656l1.166 2.327 3.561 7.114c.32.64 1.099.966 1.73.725l9.347-3.571c.631-.242 1.112-1.034 1.069-1.763L23.42 4.24c-.043-.729-.621-1.255-1.285-1.17L7.63 4.92" stroke="#EF562D" stroke-width="1.8" stroke-linecap="round" stroke-linejoin="round"/><path d="M16.036 19.157c0 1.379-1.024 2.497-2.286 2.497s-2.286-1.118-2.286-2.497c0-1.38 1.024-2.497 2.286-2.497s2.286 1.118 2.286 2.497M23.121 19.157c0 1.379-1.023 2.497-2.285 2.497-1.263 0-2.286-1.118-2.286-2.497 0-1.38 1.023-2.497 2.286-2.497 1.262 0 2.285 1.118 2.285 2.497" fill="#EF562D"/></g></svg><svg width="20" height="20" viewBox="0 0 20 20" id="L1VzZXJzL3ZlYm1laGFuaWNhL0RvY3VtZW50cy9rb21iaWtvcm0vZnJvbnRlbmQvaW1nL3Nwcml0ZS9jb250ZW50L2NhdGFsb2ctLW11bHRpLWNvbG9ucy0tb3JhbmdlLnN2Zw==" x="83" y="206" xmlns="http://www.w3.org/2000/svg"><title>Group 6</title><g fill="#ef562d" fill-rule="evenodd"><path d="M0 0h4v4H0zM0 8h4v4H0zM0 16h4v4H0zM8 0h4v4H8zM8 8h4v4H8zM8 16h4v4H8zM16 0h4v4h-4zM16 8h4v4h-4zM16 16h4v4h-4z"/></g></svg><svg width="20" height="20" viewBox="0 0 20 20" id="L1VzZXJzL3ZlYm1laGFuaWNhL0RvY3VtZW50cy9rb21iaWtvcm0vZnJvbnRlbmQvaW1nL3Nwcml0ZS9jb250ZW50L2NhdGFsb2ctLW11bHRpLWNvbG9ucy5zdmc=" x="183" y="206" xmlns="http://www.w3.org/2000/svg"><title>Group 6</title><g fill="#4A4A4A" fill-rule="evenodd"><path d="M0 0h4v4H0zM0 8h4v4H0zM0 16h4v4H0zM8 0h4v4H8zM8 8h4v4H8zM8 16h4v4H8zM16 0h4v4h-4zM16 8h4v4h-4zM16 16h4v4h-4z"/></g></svg><svg width="20" height="20" viewBox="0 0 20 20" id="L1VzZXJzL3ZlYm1laGFuaWNhL0RvY3VtZW50cy9rb21iaWtvcm0vZnJvbnRlbmQvaW1nL3Nwcml0ZS9jb250ZW50L2NhdGFsb2ctLXNob3J0LWxpc3QtLW9yYW5nZS5zdmc=" x="163" y="206" xmlns="http://www.w3.org/2000/svg"><title>Group 3</title><g fill="#ef562d" fill-rule="evenodd"><path d="M0 18h20v2H0zM0 9h20v2H0zM0 0h20v2H0z"/></g></svg><svg width="20" height="20" viewBox="0 0 20 20" id="L1VzZXJzL3ZlYm1laGFuaWNhL0RvY3VtZW50cy9rb21iaWtvcm0vZnJvbnRlbmQvaW1nL3Nwcml0ZS9jb250ZW50L2NhdGFsb2ctLXNob3J0LWxpc3Quc3Zn" x="143" y="206" xmlns="http://www.w3.org/2000/svg"><title>Group 3</title><g fill="#4A4A4A" fill-rule="evenodd"><path d="M0 18h20v2H0zM0 9h20v2H0zM0 0h20v2H0z"/></g></svg><svg width="20" height="20" viewBox="0 0 20 20" id="L1VzZXJzL3ZlYm1laGFuaWNhL0RvY3VtZW50cy9rb21iaWtvcm0vZnJvbnRlbmQvaW1nL3Nwcml0ZS9jb250ZW50L2NhdGFsb2ctLXdpdGgtb3B0aW9ucy0tb3JhbmdlLnN2Zw==" x="123" y="206" xmlns="http://www.w3.org/2000/svg"><title>Group 2</title><g fill="#ef562d" fill-rule="evenodd"><path d="M5.031 18h14.907v2H5.03zM0 18h2.031v2H0zM5.031 9h14.907v2H5.03zM0 9h2.031v2H0zM5.031 0h14.907v2H5.03zM0 0h2.031v2H0z"/></g></svg><svg width="20" height="20" viewBox="0 0 20 20" id="L1VzZXJzL3ZlYm1laGFuaWNhL0RvY3VtZW50cy9rb21iaWtvcm0vZnJvbnRlbmQvaW1nL3Nwcml0ZS9jb250ZW50L2NhdGFsb2ctLXdpdGgtb3B0aW9ucy5zdmc=" x="103" y="206" xmlns="http://www.w3.org/2000/svg"><title>Group 2</title><g fill="#4A4A4A" fill-rule="evenodd"><path d="M5.031 18h14.907v2H5.03zM0 18h2.031v2H0zM5.031 9h14.907v2H5.03zM0 9h2.031v2H0zM5.031 0h14.907v2H5.03zM0 0h2.031v2H0z"/></g></svg><svg width="17" height="17" viewBox="0 0 17 17" id="L1VzZXJzL3ZlYm1laGFuaWNhL0RvY3VtZW50cy9rb21iaWtvcm0vZnJvbnRlbmQvaW1nL3Nwcml0ZS9jb250ZW50L2Nsb3NlLS1ncmF5LnN2Zw==" x="181" y="135" xmlns="http://www.w3.org/2000/svg"><title>x_gray</title><g stroke-width="2" transform="translate(1 1)" stroke="#979797" fill="none" fill-rule="evenodd"><path d="M0 0l14.5 14.5M14.5 0L0 14.5"/></g></svg><svg width="17" height="17" viewBox="0 0 17 17" id="L1VzZXJzL3ZlYm1laGFuaWNhL0RvY3VtZW50cy9rb21iaWtvcm0vZnJvbnRlbmQvaW1nL3Nwcml0ZS9jb250ZW50L2Nsb3NlLS1vcmFuZ2UtLW1pZGRsZS5zdmc=" x="203" y="206" xmlns="http://www.w3.org/2000/svg"><title>x_gray</title><g stroke-width="2" transform="translate(1 1)" stroke="#ef562d" fill="none" fill-rule="evenodd"><path d="M0 0l14.5 14.5M14.5 0L0 14.5"/></g></svg><svg width="20" height="20" viewBox="0 0 20 20" id="L1VzZXJzL3ZlYm1laGFuaWNhL0RvY3VtZW50cy9rb21iaWtvcm0vZnJvbnRlbmQvaW1nL3Nwcml0ZS9jb250ZW50L2Nsb3NlLS1vcmFuZ2Uuc3Zn" x="63" y="206" xmlns="http://www.w3.org/2000/svg"><title>x_orange_big</title><g transform="translate(1 1)" stroke="#EF562D" stroke-width="2" fill="none" fill-rule="evenodd"><path d="M0 0l17.678 17.678M17.678 0L0 17.678"/></g></svg><svg width="18" height="23" viewBox="0 0 18 23" id="L1VzZXJzL3ZlYm1laGFuaWNhL0RvY3VtZW50cy9rb21iaWtvcm0vZnJvbnRlbmQvaW1nL3Nwcml0ZS9jb250ZW50L2NvbXBhcmUtLXdoaXRlLnN2Zw==" x="144" y="164" xmlns="http://www.w3.org/2000/svg"><title>Rectangle 130</title><defs><path d="M22 674h18v23s-6.072-7.402-9-7.402c-3.072 0-9 7.402-9 7.402v-23z" id="ama"/></defs><g transform="translate(-22 -674)" fill="none" fill-rule="evenodd"><use fill="#FFF" xlink:href="#ama"/><path stroke="#FFF" d="M22.5 674.5v21.127l.097-.112a48.237 48.237 0 0 1 2.399-2.571c.72-.715 1.42-1.353 2.089-1.896 1.54-1.251 2.848-1.95 3.915-1.95 1.069 0 2.42.758 4.048 2.112a31.4 31.4 0 0 1 1.9 1.732 51.601 51.601 0 0 1 2.552 2.706V674.5h-17z"/></g></svg><svg width="18" height="23" viewBox="0 0 18 23" id="L1VzZXJzL3ZlYm1laGFuaWNhL0RvY3VtZW50cy9rb21iaWtvcm0vZnJvbnRlbmQvaW1nL3Nwcml0ZS9jb250ZW50L2NvbXBhcmUuc3Zn" x="179" y="81" xmlns="http://www.w3.org/2000/svg"><title>Rectangle 130</title><defs><path d="M22 674h18v23s-6.072-7.402-9-7.402c-3.072 0-9 7.402-9 7.402v-23z" id="ana"/></defs><g transform="translate(-22 -674)" fill="none" fill-rule="evenodd"><use fill="#EF562D" xlink:href="#ana"/><path stroke="#FFF" d="M22.5 674.5v21.127l.097-.112a48.237 48.237 0 0 1 2.399-2.571c.72-.715 1.42-1.353 2.089-1.896 1.54-1.251 2.848-1.95 3.915-1.95 1.069 0 2.42.758 4.048 2.112a31.4 31.4 0 0 1 1.9 1.732 51.601 51.601 0 0 1 2.552 2.706V674.5h-17z"/></g></svg><svg width="22" height="22" viewBox="0 0 22 22" id="L1VzZXJzL3ZlYm1laGFuaWNhL0RvY3VtZW50cy9rb21iaWtvcm0vZnJvbnRlbmQvaW1nL3Nwcml0ZS9jb250ZW50L2RhdGUtMTIuc3Zn" x="184" y="164" xmlns="http://www.w3.org/2000/svg"><title>Group</title><g transform="translate(1)" stroke-width="2" stroke="#EF562D" fill="none" fill-rule="evenodd"><path d="M0 0v21h20V0M6 7v9M4 0v3M7 0v3M10 0v3M13 0v3M16 0v3"/><path d="M10 7.5h4.5v4h-4v4H15"/></g></svg><svg width="18" height="16" viewBox="0 0 18 16" id="L1VzZXJzL3ZlYm1laGFuaWNhL0RvY3VtZW50cy9rb21iaWtvcm0vZnJvbnRlbmQvaW1nL3Nwcml0ZS9jb250ZW50L2Rvd24uc3Zn" x="42" y="187" xmlns="http://www.w3.org/2000/svg"><title>Page 1</title><g transform="rotate(90 8.5 9.5)" stroke="#979797" stroke-width="2" fill="none" fill-rule="evenodd"><path d="M7 16.83V0"/><path stroke-linejoin="round" d="M14 10l-6.998 6.773L0 10"/></g></svg><svg width="12" height="11" viewBox="0 0 12 11" id="L1VzZXJzL3ZlYm1laGFuaWNhL0RvY3VtZW50cy9rb21iaWtvcm0vZnJvbnRlbmQvaW1nL3Nwcml0ZS9jb250ZW50L2ZpbHRlci0tY2hlY2stLXdoaXRlLnN2Zw==" x="227" y="126" xmlns="http://www.w3.org/2000/svg"><title>Page 1</title><path d="M1 4.337l4.495 5.069L10.553 1" stroke-width="1.741" stroke="#FFF" fill="none" fill-rule="evenodd" stroke-linecap="round" stroke-linejoin="round"/></svg><svg width="29" height="29" viewBox="0 0 29 29" id="L1VzZXJzL3ZlYm1laGFuaWNhL0RvY3VtZW50cy9rb21iaWtvcm0vZnJvbnRlbmQvaW1nL3Nwcml0ZS9jb250ZW50L2ZpbHRlcnMtLXNldHRpbmdzLnN2Zw==" x="79" y="83" xmlns="http://www.w3.org/2000/svg"><title>Page 1</title><g transform="translate(1 1)" stroke-width="2" stroke="#FFF" fill="none" fill-rule="evenodd"><path d="M23.802 10.516c-.069 0-.138.004-.206.008a10.44 10.44 0 0 0-.849-2.049 2.988 2.988 0 1 0-4.214-4.214 10.45 10.45 0 0 0-2.05-.849 2.988 2.988 0 1 0-5.96 0c-.717.212-1.403.497-2.048.849a2.987 2.987 0 1 0-4.214 4.214 10.441 10.441 0 0 0-.85 2.05 2.988 2.988 0 1 0 0 5.96c.212.717.498 1.403.85 2.048a2.987 2.987 0 1 0 4.214 4.214c.645.352 1.33.638 2.049.85a2.988 2.988 0 1 0 5.96 0 10.452 10.452 0 0 0 2.049-.85 2.988 2.988 0 1 0 4.214-4.214c.352-.645.637-1.331.849-2.05a2.988 2.988 0 1 0 .206-5.968v.001z" stroke-linecap="round" stroke-linejoin="round"/><path d="M17.763 13.504a4.26 4.26 0 1 1-8.518 0 4.26 4.26 0 0 1 8.518 0z"/></g></svg><svg width="47" height="48" viewBox="0 0 47 48" id="L1VzZXJzL3ZlYm1laGFuaWNhL0RvY3VtZW50cy9rb21iaWtvcm0vZnJvbnRlbmQvaW1nL3Nwcml0ZS9jb250ZW50L2l0ZW0tLW5ldy0tbWluaS5zdmc=" x="48" y="115" xmlns="http://www.w3.org/2000/svg"><title>Fill 1</title><path d="M21.516.925c.534-.82 1.436-.84 2.006-.043l1.246 1.744a1.71 1.71 0 0 0 2.446.36l1.46-1.125c.776-.6 1.662-.33 1.969.6l.694 2.102a1.82 1.82 0 0 0 2.26 1.155l1.722-.54c.936-.292 1.717.267 1.735 1.244l.038 2.167c.017.978.834 1.816 1.815 1.864l1.903.092c.98.047 1.546.85 1.257 1.785l-.601 1.947c-.29.934.219 1.998 1.13 2.364l1.937.779c.91.365 1.175 1.306.588 2.09l-1.15 1.537a1.903 1.903 0 0 0 .3 2.566l1.724 1.44c.753.626.694 1.574-.132 2.104l-1.605 1.03a1.792 1.792 0 0 0-.543 2.463l1.233 1.933c.527.825.173 1.673-.785 1.885l-1.962.433a1.712 1.712 0 0 0-1.298 2.107l.558 2.165c.246.947-.352 1.627-1.327 1.51l-2.14-.255a1.707 1.707 0 0 0-1.916 1.56l-.173 2.134c-.08.975-.87 1.43-1.756 1.01l-2.036-.964a1.755 1.755 0 0 0-2.35.855l-.863 1.894c-.406.89-1.318 1.064-2.026.388l-1.64-1.567a1.816 1.816 0 0 0-2.535.04l-1.458 1.486c-.687.699-1.619.562-2.07-.307l-1.03-1.974a1.844 1.844 0 0 0-2.424-.796l-1.895.925c-.881.43-1.718-.009-1.859-.977l-.314-2.16A1.842 1.842 0 0 0 9.62 40.43l-2.097.253c-.975.117-1.62-.573-1.434-1.533l.41-2.118a1.837 1.837 0 0 0-1.406-2.125l-2.037-.443c-.96-.209-1.346-1.074-.859-1.923l1.06-1.847a1.856 1.856 0 0 0-.633-2.478L.861 27.129c-.836-.515-.917-1.466-.182-2.115l1.545-1.363c.734-.649.83-1.8.212-2.56l-1.323-1.625c-.618-.76-.382-1.688.526-2.061l1.816-.75a1.86 1.86 0 0 0 1.026-2.345l-.753-2.013c-.343-.916.18-1.705 1.16-1.753l1.885-.09a1.79 1.79 0 0 0 1.7-1.863L8.37 6.42c-.045-.976.685-1.54 1.623-1.252l1.82.559a1.706 1.706 0 0 0 2.163-1.195l.543-2.042c.251-.946 1.103-1.244 1.893-.664l1.62 1.192c.79.58 1.873.385 2.406-.437L21.516.925z" fill="#88B14B" fill-rule="evenodd"/></svg><svg width="79" height="81" viewBox="0 0 79 81" id="L1VzZXJzL3ZlYm1laGFuaWNhL0RvY3VtZW50cy9rb21iaWtvcm0vZnJvbnRlbmQvaW1nL3Nwcml0ZS9jb250ZW50L2l0ZW0tLW5ldy5zdmc=" x="119" xmlns="http://www.w3.org/2000/svg"><title>Fill 1</title><path d="M36.166 1.56c.897-1.384 2.414-1.417 3.37-.072l2.096 2.944a2.867 2.867 0 0 0 4.111.608l2.453-1.9c1.305-1.011 2.794-.555 3.31 1.013L52.671 7.7a3.057 3.057 0 0 0 3.8 1.949l2.895-.91c1.573-.494 2.885.45 2.915 2.099l.065 3.657c.029 1.649 1.401 3.064 3.05 3.144l3.198.156c1.648.08 2.6 1.436 2.114 3.013l-1.011 3.284c-.486 1.577.368 3.372 1.899 3.99l3.257 1.314c1.53.617 1.975 2.204.987 3.527l-1.933 2.594c-.987 1.323-.76 3.273.505 4.33l2.898 2.429c1.265 1.058 1.166 2.657-.222 3.55l-2.698 1.74a3.03 3.03 0 0 0-.913 4.157l2.074 3.262c.884 1.392.29 2.823-1.32 3.18l-3.299.73a2.89 2.89 0 0 0-2.182 3.556l.94 3.654c.412 1.598-.594 2.745-2.231 2.549l-3.598-.432a2.872 2.872 0 0 0-3.22 2.634l-.292 3.6c-.133 1.646-1.46 2.412-2.95 1.704l-3.422-1.626a2.946 2.946 0 0 0-3.95 1.443l-1.451 3.195c-.683 1.502-2.215 1.797-3.407.655l-2.755-2.643a3.043 3.043 0 0 0-4.261.068l-2.452 2.506c-1.154 1.18-2.72.948-3.478-.517l-1.73-3.332c-.76-1.465-2.595-2.07-4.076-1.343l-3.184 1.56c-1.483.728-2.889-.014-3.126-1.647l-.529-3.645c-.236-1.632-1.77-2.806-3.409-2.61l-3.526.427c-1.637.197-2.723-.967-2.41-2.586l.688-3.574c.313-1.62-.75-3.234-2.362-3.586l-3.424-.748c-1.611-.353-2.262-1.813-1.443-3.246l1.78-3.116c.819-1.431.34-3.314-1.063-4.182L1.446 45.78c-1.403-.868-1.54-2.473-.305-3.568l2.596-2.3c1.236-1.095 1.396-3.038.357-4.321l-2.223-2.742C.834 31.567 1.23 30 2.756 29.37l3.053-1.264c1.524-.631 2.3-2.413 1.724-3.96l-1.266-3.395c-.575-1.546.301-2.877 1.95-2.958l3.168-.154a3.017 3.017 0 0 0 2.857-3.143l-.171-3.661c-.078-1.648 1.15-2.6 2.727-2.113l3.06.943a2.865 2.865 0 0 0 3.634-2.017l.913-3.445c.422-1.596 1.854-2.1 3.181-1.12l2.724 2.01a2.793 2.793 0 0 0 4.044-.736l1.813-2.797z" fill="#88B14B" fill-rule="evenodd"/></svg><svg width="48" height="49" viewBox="0 0 48 49" id="L1VzZXJzL3ZlYm1laGFuaWNhL0RvY3VtZW50cy9rb21iaWtvcm0vZnJvbnRlbmQvaW1nL3Nwcml0ZS9jb250ZW50L2l0ZW0tLWJlc3QtLW1pbmkuc3Zn" y="115" xmlns="http://www.w3.org/2000/svg"><title>Fill 1</title><path d="M22.3.944C22.836.106 23.747.086 24.321.9l1.257 1.78a1.711 1.711 0 0 0 2.467.369l1.471-1.15c.783-.611 1.677-.335 1.986.613l.7 2.146a1.831 1.831 0 0 0 2.28 1.179l1.737-.55c.944-.3 1.73.272 1.749 1.27l.039 2.211c.017.998.841 1.854 1.83 1.902l1.92.095c.988.048 1.559.868 1.267 1.822l-.606 1.987c-.292.954.22 2.04 1.139 2.414l1.954.795c.918.373 1.185 1.333.593 2.133l-1.16 1.57c-.593.8-.456 1.98.303 2.62l1.739 1.468c.759.64.7 1.607-.133 2.148l-1.62 1.052a1.842 1.842 0 0 0-.547 2.515l1.244 1.973c.53.842.175 1.708-.792 1.924l-1.979.442a1.749 1.749 0 0 0-1.31 2.15l.564 2.211c.247.967-.355 1.66-1.338 1.542l-2.16-.261a1.727 1.727 0 0 0-1.931 1.593l-.175 2.179c-.08.995-.876 1.458-1.77 1.03l-2.053-.984a1.761 1.761 0 0 0-2.37.873l-.871 1.933c-.41.909-1.33 1.087-2.044.396l-1.653-1.599a1.815 1.815 0 0 0-2.557.041l-1.47 1.516c-.693.714-1.632.574-2.088-.312l-1.038-2.016a1.849 1.849 0 0 0-2.445-.812l-1.91.944c-.89.44-1.734-.01-1.876-.997l-.317-2.205c-.143-.987-1.063-1.698-2.046-1.578l-2.115.257c-.983.12-1.634-.585-1.446-1.564l.413-2.162c.187-.98-.451-1.956-1.418-2.17l-2.054-.452c-.967-.213-1.357-1.097-.866-1.963l1.068-1.885c.49-.866.204-2.005-.638-2.53l-1.778-1.11c-.843-.524-.925-1.495-.184-2.158l1.558-1.39a1.932 1.932 0 0 0 .215-2.615l-1.334-1.659c-.624-.775-.385-1.722.53-2.104l1.832-.764c.915-.382 1.38-1.46 1.035-2.395l-.76-2.055c-.346-.935.18-1.74 1.17-1.789l1.9-.093A1.82 1.82 0 0 0 9.145 8.77l-.102-2.215c-.046-.997.69-1.572 1.636-1.278l1.836.57a1.718 1.718 0 0 0 2.18-1.22l.548-2.084c.254-.966 1.113-1.27 1.91-.678l1.634 1.217a1.667 1.667 0 0 0 2.426-.446L22.3.944z" fill="#EF562D" fill-rule="evenodd"/></svg><svg width="79" height="81" viewBox="0 0 79 81" id="L1VzZXJzL3ZlYm1laGFuaWNhL0RvY3VtZW50cy9rb21iaWtvcm0vZnJvbnRlbmQvaW1nL3Nwcml0ZS9jb250ZW50L2l0ZW0tLWJlc3Quc3Zn" y="34" xmlns="http://www.w3.org/2000/svg"><title>Fill 1</title><path d="M36.166 1.56c.897-1.384 2.414-1.417 3.37-.072l2.096 2.944a2.867 2.867 0 0 0 4.111.608l2.453-1.9c1.305-1.011 2.794-.555 3.31 1.013L52.671 7.7a3.057 3.057 0 0 0 3.8 1.949l2.895-.91c1.573-.494 2.885.45 2.915 2.099l.065 3.657c.029 1.649 1.401 3.064 3.05 3.144l3.198.156c1.648.08 2.6 1.436 2.114 3.013l-1.011 3.284c-.486 1.577.368 3.372 1.899 3.99l3.257 1.314c1.53.617 1.975 2.204.987 3.527l-1.933 2.594c-.987 1.323-.76 3.273.505 4.33l2.898 2.429c1.265 1.058 1.166 2.657-.222 3.55l-2.698 1.74a3.03 3.03 0 0 0-.913 4.157l2.074 3.262c.884 1.392.29 2.823-1.32 3.18l-3.299.73a2.89 2.89 0 0 0-2.182 3.556l.94 3.654c.412 1.598-.594 2.745-2.231 2.549l-3.598-.432a2.872 2.872 0 0 0-3.22 2.634l-.292 3.6c-.133 1.646-1.46 2.412-2.95 1.704l-3.422-1.626a2.946 2.946 0 0 0-3.95 1.443l-1.451 3.195c-.683 1.502-2.215 1.797-3.407.655l-2.755-2.643a3.043 3.043 0 0 0-4.261.068l-2.452 2.506c-1.154 1.18-2.72.948-3.478-.517l-1.73-3.332c-.76-1.465-2.595-2.07-4.076-1.343l-3.184 1.56c-1.483.728-2.889-.014-3.126-1.647l-.529-3.645c-.236-1.632-1.77-2.806-3.409-2.61l-3.526.427c-1.637.197-2.723-.967-2.41-2.586l.688-3.574c.313-1.62-.75-3.234-2.362-3.586l-3.424-.748c-1.611-.353-2.262-1.813-1.443-3.246l1.78-3.116c.819-1.431.34-3.314-1.063-4.182L1.446 45.78c-1.403-.868-1.54-2.473-.305-3.568l2.596-2.3c1.236-1.095 1.396-3.038.357-4.321l-2.223-2.742C.834 31.567 1.23 30 2.756 29.37l3.053-1.264c1.524-.631 2.3-2.413 1.724-3.96l-1.266-3.395c-.575-1.546.301-2.877 1.95-2.958l3.168-.154a3.017 3.017 0 0 0 2.857-3.143l-.171-3.661c-.078-1.648 1.15-2.6 2.727-2.113l3.06.943a2.865 2.865 0 0 0 3.634-2.017l.913-3.445c.422-1.596 1.854-2.1 3.181-1.12l2.724 2.01a2.793 2.793 0 0 0 4.044-.736l1.813-2.797z" fill="#EF562D" fill-rule="evenodd"/></svg><svg width="21" height="25" viewBox="0 0 21 25" id="L1VzZXJzL3ZlYm1laGFuaWNhL0RvY3VtZW50cy9rb21iaWtvcm0vZnJvbnRlbmQvaW1nL3Nwcml0ZS9jb250ZW50L3BhY2thZ2luZy5zdmc=" y="206" xmlns="http://www.w3.org/2000/svg"><title>Page 1</title><path d="M12.986 7.8c2.59 1.326 4.736 3.375 4.785 7.018.011.848-.034 1.707.182 2.461.155.543.458 1.098.775 1.595.364.573.818 1.152.638 1.914-.104.44-.484.9-.82 1.185-3.031 2.563-12.217 2.631-15.95.501-.693-.395-1.563-1.14-1.595-1.96-.033-.854.622-1.41.957-2.05.324-.618.618-1.467.684-2.324.043-.557-.025-1.096 0-1.595.165-3.328 1.981-5.113 4.147-6.425-.682-1.257-1.019-2.902-1.14-4.876-.037-.61-.07-1.36.274-1.641.797-.648 1.817.267 2.916.137.765-.091 1.254-.664 1.96-.73.795-.073 1.36.257 2.005.456.574.178 1.008.162 1.184.547.287.624-.1 2.372-.227 3.099-.19 1.081-.405 1.844-.775 2.689z" stroke="#EF562D" stroke-width="2" fill="none" fill-rule="evenodd"/></svg><svg width="24" height="23" viewBox="0 0 24 23" id="L1VzZXJzL3ZlYm1laGFuaWNhL0RvY3VtZW50cy9rb21iaWtvcm0vZnJvbnRlbmQvaW1nL3Nwcml0ZS9jb250ZW50L3BkZi5zdmc=" x="120" y="164" xmlns="http://www.w3.org/2000/svg"><title>Fill 1</title><path d="M1.957 21.415c1.326-.862 2.367-2.294 3.053-3.61-1.11 1.076-2.524 2.14-3.053 3.61m16.524-6.68c1.154.342 2.632 1.296 4.035.7-.412-1.086-2.733-.853-4.035-.7m-10.307.861c1.835-.629 3.73-1.2 5.835-1.562-1.216-1.133-2.348-2.35-3.218-3.825-.743 1.923-1.71 3.626-2.617 5.387m2.835-9.913c.577-1.085.84-3.755-.272-4.472-.32 1.345-.18 3.38.272 4.472M7.52 16.889c-1.062 1.484-2.205 3.762-3.708 4.957-.358.285-.933.604-1.418.647-.767.067-1.682-.335-1.854-.808-.243-.667.344-1.567.818-2.102.582-.658 1.339-1.188 2.072-1.67.776-.51 1.786-.794 2.4-1.347.436-.393.73-1.163 1.145-1.94.75-1.406 1.382-2.656 2.072-4.094.298-.621.888-1.554.927-2.101.05-.696-.434-1.661-.6-2.479-.19-.938-.335-1.865-.381-2.694C8.927 2.1 9.012.805 10.137.564c3.132-.67 1.977 4.068 1.69 5.927-.07.46-.246.962-.218 1.347.055.744.798 1.889 1.255 2.586.765 1.168 1.492 2 2.563 2.694.246.16.583.436.872.485.59.1 1.416-.172 2.127-.216 1.613-.099 4.279-.106 4.745 1.024.237.576.06 1.644-.328 2.047-.796.83-2.885.185-3.871-.107-.603-.179-1.234-.358-1.8-.593-.513-.212-1.122-.702-1.582-.754-.61-.07-1.466.243-2.127.377-2.212.448-3.92.828-5.944 1.508" stroke="#EF562D" stroke-width=".5" fill="#EF562D" fill-rule="evenodd"/></svg><svg width="22" height="22" viewBox="0 0 22 22" id="L1VzZXJzL3ZlYm1laGFuaWNhL0RvY3VtZW50cy9rb21iaWtvcm0vZnJvbnRlbmQvaW1nL3Nwcml0ZS9jb250ZW50L3ByaW50LnN2Zw==" x="162" y="164" xmlns="http://www.w3.org/2000/svg"><title>Group 3</title><defs><path id="aya" d="M6 0h10v12H6z"/><path id="ayb" d="M6 17h10v5H6z"/></defs><g fill="none" fill-rule="evenodd"><path d="M1 10v9h20v-9H1z" stroke="#EF562D" stroke-width="2"/><use fill="#FFF" xlink:href="#aya"/><path stroke="#EF562D" stroke-width="2" d="M7 1h8v10H7z"/><g><use fill="#FFF" xlink:href="#ayb"/><path stroke="#EF562D" stroke-width="2" d="M7 18h8v3H7z"/></g></g></svg><svg width="30" height="25" viewBox="0 0 30 25" id="L1VzZXJzL3ZlYm1laGFuaWNhL0RvY3VtZW50cy9rb21iaWtvcm0vZnJvbnRlbmQvaW1nL3Nwcml0ZS9jb250ZW50L3NsaWRlci0tYXJyb3dzLS1uZXh0LnN2Zw==" x="149" y="81" xmlns="http://www.w3.org/2000/svg"><title>Group 6</title><g transform="translate(0 1.094)" stroke="#4A4A4A" stroke-width="1.597" fill="none" fill-rule="evenodd" stroke-linecap="round"><path d="M28.543 11.669H.997"/><path stroke-linejoin="round" d="M17.963.585l11.085 11.084L17.963 22.75"/></g></svg><svg width="30" height="25" viewBox="0 0 30 25" id="L1VzZXJzL3ZlYm1laGFuaWNhL0RvY3VtZW50cy9rb21iaWtvcm0vZnJvbnRlbmQvaW1nL3Nwcml0ZS9jb250ZW50L3NsaWRlci0tYXJyb3dzLS1wcmV2LnN2Zw==" x="119" y="81" xmlns="http://www.w3.org/2000/svg"><title>Group 6</title><g transform="matrix(-1 0 0 1 30 1.094)" stroke="#4A4A4A" stroke-width="1.597" fill="none" fill-rule="evenodd" stroke-linecap="round"><path d="M28.543 11.669H.997"/><path stroke-linejoin="round" d="M17.963.585l11.085 11.084L17.963 22.75"/></g></svg><svg width="16" height="20" viewBox="0 0 16 20" id="L1VzZXJzL3ZlYm1laGFuaWNhL0RvY3VtZW50cy9rb21iaWtvcm0vZnJvbnRlbmQvaW1nL3Nwcml0ZS9jb250ZW50L3VsLS1tYXJrZXIuc3Zn" x="181" y="115" xmlns="http://www.w3.org/2000/svg"><title>Fill 1 Copy 3</title><path d="M10.18 5.727c2.2 1.115 4.023 2.842 4.065 5.91.01.713-.029 1.436.155 2.071.131.457.39.924.658 1.343.31.483.695.97.542 1.611-.089.372-.411.76-.697.998-2.574 2.16-10.377 2.216-13.548.423-.588-.333-1.327-.96-1.354-1.65-.028-.72.528-1.188.813-1.727.274-.52.524-1.236.58-1.957.037-.47-.021-.922 0-1.343.141-2.803 1.684-4.306 3.523-5.411-.58-1.058-.865-2.443-.968-4.106-.032-.513-.06-1.145.232-1.381.677-.546 1.544.225 2.477.115C7.308.547 7.723.065 8.322.01c.676-.062 1.157.216 1.703.384.489.15.857.136 1.007.46.243.526-.085 1.997-.193 2.61-.162.91-.344 1.553-.658 2.264" fill="#EF562D" fill-rule="evenodd"/></svg><svg width="42" height="42" viewBox="0 0 42 42" id="L1VzZXJzL3ZlYm1laGFuaWNhL0RvY3VtZW50cy9rb21iaWtvcm0vZnJvbnRlbmQvaW1nL3Nwcml0ZS9mb290ZXIvZmFjZWJvb2stLW9yYW5nZS5zdmc=" y="164" xmlns="http://www.w3.org/2000/svg"><title>Group 4</title><g transform="translate(1 1)" fill="none" fill-rule="evenodd"><path d="M17.882 20.097c.053.066.023.525.023.61l.002 9.683h4.22c.025-2.548.001-5.164.001-7.725 0-.036-.009-2.48.003-2.53.008-.034.009-.03.018-.044.006 0 2.684.022 2.778 0l.046-.014.37-3.534h-3.202c-.012-.523.003-1.059.003-1.582 0-.478-.01-1.068.276-1.33l2.907-.291-.004-3.545c-.55-.033-1.203-.004-1.766-.004-.583 0-1.175-.011-1.75.027-1.095.071-1.979.396-2.62.939-.926 1.478-1.284.208-1.29 5.787l-2.122.001.004 3.55 2.103.002z" fill="#ef562d"/><path d="M39.968 19.87c0 10.973-8.942 19.869-19.971 19.869-11.03 0-19.972-8.896-19.972-19.87C.025 8.897 8.966 0 19.997 0c11.03 0 19.971 8.896 19.971 19.87z" stroke="#ef562d" stroke-width="2"/></g></svg><svg width="42" height="42" viewBox="0 0 42 42" id="L1VzZXJzL3ZlYm1laGFuaWNhL0RvY3VtZW50cy9rb21iaWtvcm0vZnJvbnRlbmQvaW1nL3Nwcml0ZS9mb290ZXIvZmFjZWJvb2suc3Zn" x="198" y="84" xmlns="http://www.w3.org/2000/svg"><title>Group 4</title><g transform="translate(1 1)" fill="none" fill-rule="evenodd"><path d="M17.882 20.097c.053.066.023.525.023.61l.002 9.683h4.22c.025-2.548.001-5.164.001-7.725 0-.036-.009-2.48.003-2.53.008-.034.009-.03.018-.044.006 0 2.684.022 2.778 0l.046-.014.37-3.534h-3.202c-.012-.523.003-1.059.003-1.582 0-.478-.01-1.068.276-1.33l2.907-.291-.004-3.545c-.55-.033-1.203-.004-1.766-.004-.583 0-1.175-.011-1.75.027-1.095.071-1.979.396-2.62.939-.926 1.478-1.284.208-1.29 5.787l-2.122.001.004 3.55 2.103.002z" fill="#FFF"/><path d="M39.968 19.87c0 10.973-8.942 19.869-19.971 19.869-11.03 0-19.972-8.896-19.972-19.87C.025 8.897 8.966 0 19.997 0c11.03 0 19.971 8.896 19.971 19.87z" stroke="#FFF" stroke-width="2"/></g></svg><svg width="119" height="34" viewBox="0 0 119 34" id="L1VzZXJzL3ZlYm1laGFuaWNhL0RvY3VtZW50cy9rb21iaWtvcm0vZnJvbnRlbmQvaW1nL3Nwcml0ZS9mb290ZXIvd2ViLW1lY2hhbmljYS5zdmc=" xmlns="http://www.w3.org/2000/svg"><title>Page 1</title><g fill="none" fill-rule="evenodd"><path d="M53.327 12.2l-.005.028c-.206 1.074-1.144 1.503-1.928 1.448-.778-.055-1.614-.621-1.614-1.735V7.517c0-.86-.181-1.398-1.078-1.415-.36-.008-.624.064-.807.22-.338.282-.377.817-.377 1.195v4.364c0 1.097-1 1.776-1.926 1.776-.764 0-1.655-.478-1.655-1.828V7.517c0-1.044-.298-1.415-1.138-1.415-.915 0-1.108.77-1.108 1.415v4.37c0 .356.102 3.474 3.575 3.474 2.24 0 3.09-1.245 3.125-1.297l.35-.531.357.528c.036.054.899 1.3 3.208 1.3 1.925 0 3.266-1.552 3.266-2.943V7.152c0-.223-.11-1.059-1.082-1.059-.97 0-1.163.808-1.163 1.059v5.047zM70.329 11.83c0 1.302-.756 1.961-1.706 1.961-.992 0-1.704-.659-1.704-1.962V9.624c0-1.146.531-2.058 1.704-2.137 1.173.08 1.706.991 1.706 2.137v2.205zm2.093-2.896c-.13-1.421-.971-2.84-3.496-2.84-.66 0-1.447.297-1.96.688V3.56c0-.223-.106-1.059-1.035-1.059-.929 0-1.112.807-1.112 1.059v5.716a3.187 3.187 0 0 0-.016.29v1.781s.056 1.257.272 1.877c.582 1.672 2.169 2.145 3.625 2.145 1.011 0 2.219-.367 2.979-1.199.454-.498.72-1.18.763-2.004v-2.058l-.02-1.173zM58.632 9.624c0-1.188.567-2.125 1.83-2.145.608.047 1.26.385 1.28 1.518-.142.555-2.383 1.065-3.11 1.305v-.678zm5.128-.253l.02-.02c.178-1.433-.754-3.286-3.432-3.258-2.677.028-3.475 1.827-3.475 1.827s.006.012.01.016a4.196 4.196 0 0 0-.367 1.629v2.323c0 .356.1 3.472 3.574 3.472 2.242 0 3.253-1.244 3.287-1.296l.108-.164c.91-1.652-1.227-1.818-1.647-1.095-.266.458-.717.851-1.422.851-.739 0-1.711-.455-1.772-1.708a85.031 85.031 0 0 1 3.582-1.238c1.259-.396 1.504-.87 1.534-1.339zM5.491 20.047c.216.231.564.586 1 .96.394.34.911.526 1.454.523h.056l.1-.006c.546-.046 1.328-.476 1.632-.753l.02-.017.02-.022c.006-.006.768-.792 1.928-1.846l1.92-1.756 3.67 3.465c.294.277.985.93 2.123.93 1.021 0 1.6-.545 1.944-.87l.103-.096c-.009.008 1.128-1.035 2.752-2.627l3.206-2.91.595-.542-1.583-1.474a2.188 2.188 0 0 0-1.456-.524h-.047l-.098.006c-.512.044-.972.24-1.32.556l-2.286 2.078-1.925 1.76c-.47-.446-4.146-3.92-4.146-3.92a2.224 2.224 0 0 0-2.986-.026l-3.443 3.128-3.74 3.438.507.545z" fill="#F26F27"/><path d="M29.485 23.119c-.966-.134-1.676.868-1.968 1.31-2.35 3.554-6.284 5.629-10.813 5.629-6.584 0-12.062-4.785-13.108-11.04l.54-.5a.074.074 0 0 1 .007.007l2.934-2.72-2.963-2.766a2.983 2.983 0 0 0-.418-.34 1.377 1.377 0 0 0-.21-.123c-.021-.011-.04-.023-.062-.032l-.03-.013a1.479 1.479 0 0 0-.422-.121 2.61 2.61 0 0 0-1.11.039c-.742.196-1.296.72-1.562 1.48l-.02.056-.012.059A17.12 17.12 0 0 0 0 17.034c0 9.203 7.49 16.76 16.698 16.847 5.786.054 10.839-2.598 13.927-7.202.441-.658 1.425-3.204-1.14-3.56" fill="#F26F27"/><path d="M101.26 18.09c-.93 0-1.112.807-1.112 1.059V26.292c0 .251.183 1.059 1.113 1.059.929 0 1.036-.836 1.036-1.06V19.15c0-.223-.107-1.058-1.036-1.058M53.327 21.251l-.005-.028c-.205-1.073-1.144-1.503-1.929-1.448-.777.055-1.613.622-1.613 1.735v4.423c0 .862-.181 1.399-1.078 1.416-.36.008-.624-.064-.807-.219-.338-.283-.378-.818-.378-1.197V21.57c0-1.096-.999-1.775-1.926-1.775-.763 0-1.655.48-1.655 1.827v4.312c0 1.046-.297 1.416-1.137 1.416-.915 0-1.108-.769-1.108-1.416v-4.37c0-.356.11-3.444 4.027-3.472 2.241-.016 3.023 1.476 3.023 1.476s.634-1.615 3.321-1.448c1.92.119 3.51 1.531 3.51 3.286v4.894c0 .223-.11 1.059-1.082 1.059-.97 0-1.163-.807-1.163-1.059v-5.048zM94.66 18.09c-3.918.029-4.027 3.117-4.027 3.473v4.37c0 .647.191 1.417 1.107 1.417.84 0 1.138-.37 1.138-1.416V21.62c0-1.348.895-1.77 1.655-1.826 1.21-.09 1.926.678 1.926 1.774v4.365c0 .378.039.913.376 1.197.183.154.448.226.808.219.898-.018 1.078-.554 1.078-1.416V21.51c0-2.137-1.821-3.435-4.062-3.42M77.034 18.09c-.762.006-1.378.13-1.879.324v-2.858c0-.223-.107-1.059-1.035-1.059-.93 0-1.113.808-1.113 1.059v10.378c0 .646.192 1.416 1.108 1.416.84 0 1.137-.37 1.137-1.416V21.62c0-1.348.894-1.77 1.655-1.826 1.21-.09 1.926.678 1.926 1.774v4.365c0 .378.04.913.377 1.197.183.154.448.226.807.219.898-.018 1.08-.554 1.08-1.416V21.51c0-2.137-1.823-3.435-4.063-3.42M70.221 24.803c-.265.457-.715.85-1.421.85-.764 0-1.785-.478-1.785-1.827v-2.205c0-1.188.551-1.978 1.815-1.999.476.037.911.26 1.132.891.074.212.602.96 1.359.807.972-.194.837-.968.63-1.451-.42-.976-1.43-1.798-3.22-1.778-2.678.028-3.476 1.827-3.476 1.827l.01.015a4.183 4.183 0 0 0-.365 1.63v2.322c.013.5.35 3.473 3.823 3.473 2.242 0 3.002-1.245 3.038-1.297l.109-.164c.907-1.652-1.229-1.819-1.649-1.094M58.761 21.621c0-1.187.567-2.125 1.83-2.145.608.048 1.26.384 1.28 1.518-.142.556-2.383 1.064-3.11 1.304v-.677zm5.128-.253l.02-.019c.178-1.434-.754-3.286-3.431-3.259-2.678.028-3.476 1.828-3.476 1.828s.006.012.01.016a4.194 4.194 0 0 0-.366 1.628v2.323c0 .356.1 3.473 3.573 3.473 2.242 0 3.252-1.245 3.287-1.298l.108-.164c.91-1.65-1.225-1.818-1.647-1.094-.267.458-.716.852-1.42.852-.741 0-1.713-.457-1.774-1.71a85.222 85.222 0 0 1 3.583-1.238c1.259-.396 1.503-.869 1.533-1.338zM87.24 24.802c0 1.188-.551 1.19-1.562 1.142-.627-.048-1.519-.17-1.549-1.578.037-.935.256-1.506 1.094-1.736.713-.195 1.942.194 2.008.612l.009-.022v1.582zm-1.628-6.711c-2.03-.078-2.599.073-2.808.674-.218.628.45.955 1.392.955.534 0 .788-.037 1.157-.037.764 0 2.004.467 2.006 2.08-.012-.016-.017-.038-.031-.052-.388-.39-2.17-1.038-3.82-.139-1.514.824-1.465 2.304-1.433 2.917 0 .014.008.03.01.044-.078 1.546 1.019 2.86 3.559 2.86 1.943 0 3.712-.142 3.712-2.758v-3.072c0-.356-.274-3.342-3.744-3.472zM108.82 24.803c-.265.457-.715.85-1.421.85-.764 0-1.784-.478-1.784-1.827v-2.205c0-1.188.552-1.978 1.814-1.999.477.037.912.26 1.132.891.075.212.603.96 1.36.807.971-.194.838-.968.63-1.451-.42-.976-1.431-1.798-3.22-1.778-2.678.028-3.476 1.827-3.476 1.827l.01.015a4.187 4.187 0 0 0-.366 1.63v2.322c.013.5.35 3.473 3.825 3.473 2.239 0 3-1.245 3.035-1.297l.11-.164c.908-1.652-1.228-1.819-1.649-1.094M116.518 24.802c0 1.188-.552 1.19-1.563 1.142-.627-.048-1.519-.17-1.548-1.578.037-.935.255-1.506 1.093-1.736.713-.195 1.943.194 2.008.612l.01-.024v1.584zm-1.63-6.711c-2.029-.078-2.597.073-2.806.674-.22.628.45.955 1.392.955.533 0 .788-.037 1.157-.037.763 0 2.005.467 2.007 2.08-.013-.016-.019-.038-.033-.052-.389-.39-2.169-1.038-3.82-.139-1.514.824-1.465 2.304-1.432 2.917.001.012.008.025.01.038-.083 1.55 1.016 2.865 3.559 2.865 1.942 0 3.71-.14 3.71-2.757v-3.072c0-.356-.272-3.342-3.743-3.472zM16.768 0C11.353 0 6.291 2.525 3.17 6.616c-.604.791-1.63 2.355-.575 3.39 1.593 1.562 3.284-.46 3.88-1.213 2.465-3.12 6.182-4.972 10.23-4.972 6.192 0 11.555 4.58 12.94 10.523l-3.772 3.363 1.965 1.814.528.454c.318.278.62.538.917.754l-.004.018.428.284c.636.444 1.466.526 2.22.216.649-.264 1.107-.862 1.29-1.68l.007-.028.003-.027c.121-.825.182-1.658.182-2.477C33.41 7.642 25.944 0 16.768 0" fill="#58585B"/></g></svg><svg width="42" height="42" viewBox="0 0 42 42" id="L1VzZXJzL3ZlYm1laGFuaWNhL0RvY3VtZW50cy9rb21iaWtvcm0vZnJvbnRlbmQvaW1nL3Nwcml0ZS9mb290ZXIvdHdpdHRlci0tb3JhbmdlLnN2Zw==" x="198" y="42" xmlns="http://www.w3.org/2000/svg"><title>Group</title><g transform="translate(1 1)" fill="none" fill-rule="evenodd"><path d="M30.793 20.99c.081-.073.017.025.08-.118l.145-.508c.785-.025 1.327-.084 1.96-.335l1.307-.89c-.432-.006-.887.11-1.59.002l-1.426-.297c.118-.074.299-.077.465-.101a5.71 5.71 0 0 0 .488-.088c.328-.076.569-.15.845-.276l1.095-1.066c-.5.196-.953.277-1.627.285-.328.003-1.518-.015-1.627-.306-.132-.346-.13-.672-.403-1.319a6.788 6.788 0 0 0-.63-1.16 6.395 6.395 0 0 0-1.839-1.805l-3.001-.836c.188-.18.895-.321 1.15-.389 1.339-.355 1.223-.841.9-.931-.414-.116-1.423.262-1.874.4l.808-.853c-.84.078-1.39.496-2.02.882l.262-.64c-.793.265-2.224 2.145-2.62 2.898l-1.68 3.664c-.143-.058-1.136-1.07-1.895-1.522-.662-.394-1.547-.815-2.308-1.165-1.831-.844-3.14-1.357-5.015-2.04-.093 1.638.964 2.54 2.282 3.42l-1.607.21c.028.7.57 1.428.983 1.778.75.637 1.142.639 1.83.898l.141.072c-1.108.191-.777.069-1.74.69.012.436.966 1.363 1.686 1.522l1.602.207c-.111.1-.285.172-.416.256a1.228 1.228 0 0 0-.348.307c-.22.266-.336.568-.19.938l1.854.841c-.1.196-.705.68-.908.82-1.11.765-2.358 1.303-3.949 1.373a7.634 7.634 0 0 1-3.089-.51c-.996-.396-1.405-.728-2.165-1.312.223.382.728.91 1.037 1.235 2.91 3.069 7.615 4.763 12.534 3.89 3.004-.535 4.94-1.566 6.698-2.845.29-.21.98-.827 1.23-1.082.764-.785 1.445-1.626 1.943-2.597.149-.292.664-1.301.642-1.597" fill="#ef562d"/><path d="M39.944 19.87c0 10.973-8.943 19.869-19.972 19.869C8.942 39.739 0 30.843 0 19.869 0 8.897 8.942 0 19.972 0c11.03 0 19.972 8.896 19.972 19.87z" stroke="#ef562d" stroke-width="2"/></g></svg><svg width="42" height="42" viewBox="0 0 42 42" id="L1VzZXJzL3ZlYm1laGFuaWNhL0RvY3VtZW50cy9rb21iaWtvcm0vZnJvbnRlbmQvaW1nL3Nwcml0ZS9mb290ZXIvdHdpdHRlci5zdmc=" x="198" xmlns="http://www.w3.org/2000/svg"><title>Group</title><g transform="translate(1 1)" fill="none" fill-rule="evenodd"><path d="M30.793 20.99c.081-.073.017.025.08-.118l.145-.508c.785-.025 1.327-.084 1.96-.335l1.307-.89c-.432-.006-.887.11-1.59.002l-1.426-.297c.118-.074.299-.077.465-.101a5.71 5.71 0 0 0 .488-.088c.328-.076.569-.15.845-.276l1.095-1.066c-.5.196-.953.277-1.627.285-.328.003-1.518-.015-1.627-.306-.132-.346-.13-.672-.403-1.319a6.788 6.788 0 0 0-.63-1.16 6.395 6.395 0 0 0-1.839-1.805l-3.001-.836c.188-.18.895-.321 1.15-.389 1.339-.355 1.223-.841.9-.931-.414-.116-1.423.262-1.874.4l.808-.853c-.84.078-1.39.496-2.02.882l.262-.64c-.793.265-2.224 2.145-2.62 2.898l-1.68 3.664c-.143-.058-1.136-1.07-1.895-1.522-.662-.394-1.547-.815-2.308-1.165-1.831-.844-3.14-1.357-5.015-2.04-.093 1.638.964 2.54 2.282 3.42l-1.607.21c.028.7.57 1.428.983 1.778.75.637 1.142.639 1.83.898l.141.072c-1.108.191-.777.069-1.74.69.012.436.966 1.363 1.686 1.522l1.602.207c-.111.1-.285.172-.416.256a1.228 1.228 0 0 0-.348.307c-.22.266-.336.568-.19.938l1.854.841c-.1.196-.705.68-.908.82-1.11.765-2.358 1.303-3.949 1.373a7.634 7.634 0 0 1-3.089-.51c-.996-.396-1.405-.728-2.165-1.312.223.382.728.91 1.037 1.235 2.91 3.069 7.615 4.763 12.534 3.89 3.004-.535 4.94-1.566 6.698-2.845.29-.21.98-.827 1.23-1.082.764-.785 1.445-1.626 1.943-2.597.149-.292.664-1.301.642-1.597" fill="#FFF"/><path d="M39.944 19.87c0 10.973-8.943 19.869-19.972 19.869C8.942 39.739 0 30.843 0 19.869 0 8.897 8.942 0 19.972 0c11.03 0 19.972 8.896 19.972 19.87z" stroke="#FFF" stroke-width="2"/></g></svg><svg width="43" height="42" viewBox="0 0 43 42" id="L1VzZXJzL3ZlYm1laGFuaWNhL0RvY3VtZW50cy9rb21iaWtvcm0vZnJvbnRlbmQvaW1nL3Nwcml0ZS9mb290ZXIvdmstLW9yYW5nZS5zdmc=" x="138" y="115" xmlns="http://www.w3.org/2000/svg"><title>Group 3</title><g transform="translate(1 1)" fill="none" fill-rule="evenodd"><path d="M18.267 25.688h2.845c.962 0 1.639-.183 2.03-.554.396-.37.593-.869.593-1.496 0-.58-.194-1.047-.585-1.4-.39-.353-1.07-.531-2.05-.531h-2.833v3.98zm0-7.72h2.425c.87 0 1.475-.165 1.82-.49.34-.329.508-.8.508-1.414 0-.571-.168-1.02-.508-1.34-.345-.326-.938-.486-1.783-.486h-2.462v3.73zm-5.627-7.71h10.443c1.74 0 3.077.471 4.005 1.409.933.938 1.4 2.1 1.4 3.482 0 1.162-.332 2.16-.997 2.993-.444.554-1.092.993-1.946 1.314 1.295.338 2.25.923 2.862 1.747.61.83.916 1.868.916 3.117 0 1.02-.218 1.936-.65 2.75a5.059 5.059 0 0 1-1.786 1.932c-.467.292-1.173.507-2.119.64-1.257.178-2.088.27-2.5.27H12.64V10.257z" fill="#ef562d"/><path d="M40.456 19.87c0 10.973-8.942 19.869-19.971 19.869-11.031 0-19.973-8.896-19.973-19.87C.512 8.897 9.454 0 20.485 0c11.029 0 19.971 8.896 19.971 19.87z" stroke="#ef562d" stroke-width="2"/></g></svg><svg width="43" height="42" viewBox="0 0 43 42" id="L1VzZXJzL3ZlYm1laGFuaWNhL0RvY3VtZW50cy9rb21iaWtvcm0vZnJvbnRlbmQvaW1nL3Nwcml0ZS9mb290ZXIvdmsuc3Zn" x="95" y="115" xmlns="http://www.w3.org/2000/svg"><title>Group 3</title><g transform="translate(1 1)" fill="none" fill-rule="evenodd"><path d="M18.267 25.688h2.845c.962 0 1.639-.183 2.03-.554.396-.37.593-.869.593-1.496 0-.58-.194-1.047-.585-1.4-.39-.353-1.07-.531-2.05-.531h-2.833v3.98zm0-7.72h2.425c.87 0 1.475-.165 1.82-.49.34-.329.508-.8.508-1.414 0-.571-.168-1.02-.508-1.34-.345-.326-.938-.486-1.783-.486h-2.462v3.73zm-5.627-7.71h10.443c1.74 0 3.077.471 4.005 1.409.933.938 1.4 2.1 1.4 3.482 0 1.162-.332 2.16-.997 2.993-.444.554-1.092.993-1.946 1.314 1.295.338 2.25.923 2.862 1.747.61.83.916 1.868.916 3.117 0 1.02-.218 1.936-.65 2.75a5.059 5.059 0 0 1-1.786 1.932c-.467.292-1.173.507-2.119.64-1.257.178-2.088.27-2.5.27H12.64V10.257z" fill="#FFF"/><path d="M40.456 19.87c0 10.973-8.942 19.869-19.971 19.869-11.031 0-19.973-8.896-19.973-19.87C.512 8.897 9.454 0 20.485 0c11.029 0 19.971 8.896 19.971 19.87z" stroke="#FFF" stroke-width="2"/></g></svg><svg width="26" height="23" viewBox="0 0 26 23" id="L1VzZXJzL3ZlYm1laGFuaWNhL0RvY3VtZW50cy9rb21iaWtvcm0vZnJvbnRlbmQvaW1nL3Nwcml0ZS9oZWFkZXIvY2FydC0td2hpdGUuc3Zn" x="94" y="164" xmlns="http://www.w3.org/2000/svg"><title>cart</title><g transform="translate(1 1)" fill="none" fill-rule="evenodd"><path d="M.321 1.583L3.82.413C4.46.2 5.244.55 5.564 1.19L6.8 3.656l1.166 2.327 3.561 7.114c.32.64 1.099.966 1.73.725l9.347-3.571c.631-.242 1.112-1.034 1.069-1.763L23.42 4.24c-.043-.729-.621-1.255-1.285-1.17L7.63 4.92" stroke="#FFF" stroke-width="1.8" stroke-linecap="round" stroke-linejoin="round"/><path d="M16.036 19.157c0 1.379-1.024 2.497-2.286 2.497s-2.286-1.118-2.286-2.497c0-1.38 1.024-2.497 2.286-2.497s2.286 1.118 2.286 2.497M23.121 19.157c0 1.379-1.023 2.497-2.285 2.497-1.263 0-2.286-1.118-2.286-2.497 0-1.38 1.023-2.497 2.286-2.497 1.262 0 2.285 1.118 2.285 2.497" fill="#FFF"/></g></svg><svg width="26" height="23" viewBox="0 0 26 23" id="L1VzZXJzL3ZlYm1laGFuaWNhL0RvY3VtZW50cy9rb21iaWtvcm0vZnJvbnRlbmQvaW1nL3Nwcml0ZS9oZWFkZXIvY2FydC5zdmc=" x="42" y="164" xmlns="http://www.w3.org/2000/svg"><title>cart</title><g transform="translate(1 1)" fill="none" fill-rule="evenodd"><path d="M.321 1.583L3.82.413C4.46.2 5.244.55 5.564 1.19L6.8 3.656l1.166 2.327 3.561 7.114c.32.64 1.099.966 1.73.725l9.347-3.571c.631-.242 1.112-1.034 1.069-1.763L23.42 4.24c-.043-.729-.621-1.255-1.285-1.17L7.63 4.92" stroke="#EF562D" stroke-width="2" stroke-linecap="round" stroke-linejoin="round"/><path d="M16.036 19.157c0 1.379-1.024 2.497-2.286 2.497s-2.286-1.118-2.286-2.497c0-1.38 1.024-2.497 2.286-2.497s2.286 1.118 2.286 2.497M23.121 19.157c0 1.379-1.023 2.497-2.285 2.497-1.263 0-2.286-1.118-2.286-2.497 0-1.38 1.023-2.497 2.286-2.497 1.262 0 2.285 1.118 2.285 2.497" fill="#EF562D"/></g></svg><svg width="7" height="10" viewBox="0 0 7 10" id="L1VzZXJzL3ZlYm1laGFuaWNhL0RvY3VtZW50cy9rb21iaWtvcm0vZnJvbnRlbmQvaW1nL3Nwcml0ZS9oZWFkZXIvb3Blbi1zdWJtZW51LnN2Zw==" x="227" y="137" xmlns="http://www.w3.org/2000/svg"><title>Path 760</title><path d="M1 9.013l3.96-3.967L1 1" stroke-width="2" stroke="#979797" fill="none" fill-rule="evenodd"/></svg><svg width="39" height="49" viewBox="0 0 39 49" id="L1VzZXJzL3ZlYm1laGFuaWNhL0RvY3VtZW50cy9rb21iaWtvcm0vZnJvbnRlbmQvaW1nL3Nwcml0ZS9oZWFkZXIvbG9nby0tbWlkZGxlLnN2Zw==" x="79" y="34" xmlns="http://www.w3.org/2000/svg"><title>Fill 1</title><path d="M33.263 40.3c-.782.806-3.269 2.259-3.269.096 0-.878.534-.916.962-1.25 2.256-1.76 2.152-4.523 2.018-7.69-.085-2.017.112-3.787-.288-5.48-1.014-4.29-4.417-8.363-8.555-9.516-1.748-.487-4.706-.396-6.73-.288-4.206.223-6.957 2.176-8.94 4.806-1.457 1.934-2.546 4.69-2.691 7.594-.053 1.06.082 2.147 0 3.268-.184 2.533-1.066 4.987-2.115 6.825-.477.837-1.358 1.416-1.345 2.404.028 2.284 4.562 3.589 6.92 4.133 6.064 1.4 14.38 1.342 20.284-.096 2.08-.506 7.083-1.626 7.017-4.133-.033-1.264-1.465-1.86-1.826-3.076-.265.768-.69 1.628-1.442 2.403M20.189 2.425c-1.166.322-2.057 1.299-3.46 1.442-1.729.178-2.834-.453-4.71-.769.06 3.271.618 6.862 1.538 9.325.289.775.547 2.2 1.826 1.634-.209-1.522-1.881-6.224.289-6.345 1.66-.091 1.219 2.007 1.441 3.461.17 1.115.51 1.969.673 2.691 1.936.006 3.339-.046 5.19 0 1.457-2.773 1.89-6.57 2.212-10.477-1.831-.332-2.993-1.514-4.999-.962m5.095 11.92c5.465 2.796 9.99 7.12 10.093 14.804.024 1.788-.07 3.6.385 5.19.328 1.145.967 2.316 1.634 3.365.769 1.209 1.726 2.43 1.346 4.038-.22.93-1.021 1.9-1.73 2.499-6.394 5.407-25.77 5.55-33.645 1.058C1.906 44.465.07 42.895.003 41.165c-.07-1.803 1.311-2.975 2.018-4.326.682-1.303 1.303-3.095 1.442-4.902.09-1.174-.052-2.311 0-3.365.35-7.02 4.18-10.785 8.748-13.554-1.437-2.65-2.148-6.12-2.403-10.286-.08-1.287-.15-2.87.576-3.46 1.682-1.368 3.834.564 6.152.289C18.15 1.369 19.181.16 20.67.022c1.677-.155 2.87.541 4.23.961 1.21.375 2.125.34 2.499 1.154.604 1.316-.21 5.003-.48 6.537-.403 2.281-.854 3.89-1.635 5.671" fill="#88B14B" fill-rule="evenodd"/></svg><svg width="29" height="37" viewBox="0 0 29 37" id="L1VzZXJzL3ZlYm1laGFuaWNhL0RvY3VtZW50cy9rb21iaWtvcm0vZnJvbnRlbmQvaW1nL3Nwcml0ZS9oZWFkZXIvbG9nby5zdmc=" x="198" y="126" xmlns="http://www.w3.org/2000/svg"><title>Fill 1</title><path d="M24.843 30.1c-.583.601-2.44 1.686-2.44.071 0-.655.398-.684.717-.933 1.686-1.315 1.608-3.378 1.508-5.744-.064-1.506.083-2.829-.215-4.092-.758-3.205-3.3-6.247-6.39-7.108-1.305-.364-3.515-.296-5.026-.216-3.142.167-5.197 1.626-6.677 3.59-1.089 1.444-1.902 3.503-2.01 5.672-.04.792.06 1.604 0 2.441-.138 1.891-.796 3.724-1.58 5.098-.356.624-1.014 1.056-1.005 1.795.021 1.706 3.407 2.68 5.17 3.087 4.528 1.045 10.739 1.002 15.148-.072 1.554-.378 5.29-1.215 5.241-3.087-.024-.944-1.094-1.39-1.364-2.298a4.76 4.76 0 0 1-1.077 1.795M15.08 1.812c-.871.24-1.537.97-2.585 1.077-1.29.132-2.116-.34-3.518-.575.046 2.443.463 5.125 1.15 6.964.215.58.408 1.644 1.363 1.22-.155-1.136-1.405-4.648.216-4.738 1.24-.068.91 1.499 1.077 2.585.127.833.38 1.47.502 2.01 1.446.004 2.494-.034 3.877 0 1.087-2.072 1.41-4.908 1.651-7.825-1.367-.248-2.235-1.13-3.733-.718m3.805 8.902c4.082 2.088 7.461 5.318 7.539 11.057.018 1.335-.053 2.689.287 3.877.245.855.722 1.729 1.22 2.513.575.902 1.29 1.815 1.006 3.015-.165.694-.763 1.419-1.293 1.867-4.775 4.039-19.247 4.145-25.128.79C1.423 33.21.052 32.037.002 30.745c-.053-1.346.98-2.222 1.507-3.23.51-.974.973-2.312 1.077-3.662.068-.877-.039-1.726 0-2.513.262-5.243 3.123-8.056 6.534-10.123-1.073-1.98-1.604-4.57-1.795-7.682-.06-.962-.112-2.144.43-2.585 1.257-1.021 2.864.421 4.596.216 1.204-.144 1.975-1.046 3.087-1.15 1.253-.116 2.144.405 3.159.718.904.28 1.588.254 1.867.862.451.983-.158 3.736-.36 4.882-.3 1.704-.637 2.906-1.22 4.236" fill="#88B14B" fill-rule="evenodd"/></svg><svg width="21" height="22" viewBox="0 0 21 22" id="L1VzZXJzL3ZlYm1laGFuaWNhL0RvY3VtZW50cy9rb21iaWtvcm0vZnJvbnRlbmQvaW1nL3Nwcml0ZS9oZWFkZXIvc2VhcmgtLW9yYW5nZS5zdmc=" x="206" y="164" xmlns="http://www.w3.org/2000/svg"><title>Shape</title><path d="M16.919 15.091a9.363 9.363 0 0 0 1.914-5.674 9.417 9.417 0 1 0-4.194 7.834l3.512 3.513.555.555.154-.153c.523.138 1.101.009 1.51-.401.41-.41.54-.99.402-1.513l.154-.154-4.007-4.007zM1.83 9.416a7.586 7.586 0 1 1 15.171 0 7.586 7.586 0 0 1-15.171 0z" fill="#ef562d" fill-rule="evenodd"/></svg><svg width="21" height="22" viewBox="0 0 21 22" id="L1VzZXJzL3ZlYm1laGFuaWNhL0RvY3VtZW50cy9rb21iaWtvcm0vZnJvbnRlbmQvaW1nL3Nwcml0ZS9oZWFkZXIvc2Vhcmguc3Zn" x="42" y="206" xmlns="http://www.w3.org/2000/svg"><title>Shape</title><path d="M16.919 15.091a9.363 9.363 0 0 0 1.914-5.674 9.417 9.417 0 1 0-4.194 7.834l3.512 3.513.555.555.154-.153c.523.138 1.101.009 1.51-.401.41-.41.54-.99.402-1.513l.154-.154-4.007-4.007zM1.83 9.416a7.586 7.586 0 1 1 15.171 0 7.586 7.586 0 0 1-15.171 0z" fill="#88B14B" fill-rule="evenodd"/></svg><svg width="21" height="24" viewBox="0 0 21 24" id="L1VzZXJzL3ZlYm1laGFuaWNhL0RvY3VtZW50cy9rb21iaWtvcm0vZnJvbnRlbmQvaW1nL3Nwcml0ZS9oZWFkZXIvcHJpY2Uuc3Zn" x="21" y="206" xmlns="http://www.w3.org/2000/svg"><title>Page 1</title><g transform="translate(1)" stroke="#88B14B" stroke-width="2" fill="none" fill-rule="evenodd"><g transform="translate(2.326 .616)"><path d="M7 16.83V0"/><path stroke-linejoin="round" d="M14 10l-6.998 6.773L0 10"/></g><path d="M18.66 18.375v2.096c0 1.152-1.476 2.096-3.28 2.096H3.28c-1.804 0-3.28-.944-3.28-2.096v-2.096" stroke-linejoin="round"/></g></svg></svg>