<?xml version="1.0" encoding="UTF-8" standalone="no"?><svg width="278" height="255" viewBox="0 0 278 255" xmlns="http://www.w3.org/2000/svg" xmlns:xlink="http://www.w3.org/1999/xlink"><svg width="26" height="23" viewBox="0 0 26 23" id="L1VzZXJzL3ZlYm1laGFuaWNhL0RvY3VtZW50cy9rb21iaWtvcm0vZnJvbnRlbmQvaW1nL3Nwcml0ZS9jb250ZW50L2NhcnQuc3Zn" x="160" y="152" xmlns="http://www.w3.org/2000/svg"><title>cart</title><g transform="translate(1 1)" fill="none" fill-rule="evenodd"><path d="M.321 1.583L3.82.413C4.46.2 5.244.55 5.564 1.19L6.8 3.656l1.166 2.327 3.561 7.114c.32.64 1.099.966 1.73.725l9.347-3.571c.631-.242 1.112-1.034 1.069-1.763L23.42 4.24c-.043-.729-.621-1.255-1.285-1.17L7.63 4.92" stroke="#EF562D" stroke-width="1.8" stroke-linecap="round" stroke-linejoin="round"/><path d="M16.036 19.157c0 1.379-1.024 2.497-2.286 2.497s-2.286-1.118-2.286-2.497c0-1.38 1.024-2.497 2.286-2.497s2.286 1.118 2.286 2.497M23.121 19.157c0 1.379-1.023 2.497-2.285 2.497-1.263 0-2.286-1.118-2.286-2.497 0-1.38 1.023-2.497 2.286-2.497 1.262 0 2.285 1.118 2.285 2.497" fill="#EF562D"/></g></svg><svg width="18" height="23" viewBox="0 0 18 23" id="L1VzZXJzL3ZlYm1laGFuaWNhL0RvY3VtZW50cy9rb21iaWtvcm0vZnJvbnRlbmQvaW1nL3Nwcml0ZS9jb250ZW50L2NvbXBhcmUuc3Zn" x="179" y="81" xmlns="http://www.w3.org/2000/svg"><title>Rectangle 130</title><defs><path d="M22 674h18v23s-6.072-7.402-9-7.402c-3.072 0-9 7.402-9 7.402v-23z" id="ba"/></defs><g transform="translate(-22 -674)" fill="none" fill-rule="evenodd"><use fill="#EF562D" xlink:href="#ba"/><path stroke="#FFF" d="M22.5 674.5v21.127l.097-.112a48.237 48.237 0 0 1 2.399-2.571c.72-.715 1.42-1.353 2.089-1.896 1.54-1.251 2.848-1.95 3.915-1.95 1.069 0 2.42.758 4.048 2.112a31.4 31.4 0 0 1 1.9 1.732 51.601 51.601 0 0 1 2.552 2.706V674.5h-17z"/></g></svg><svg width="79" height="81" viewBox="0 0 79 81" id="L1VzZXJzL3ZlYm1laGFuaWNhL0RvY3VtZW50cy9rb21iaWtvcm0vZnJvbnRlbmQvaW1nL3Nwcml0ZS9jb250ZW50L2l0ZW0tLW5ldy5zdmc=" x="119" xmlns="http://www.w3.org/2000/svg"><title>Fill 1</title><path d="M36.166 1.56c.897-1.384 2.414-1.417 3.37-.072l2.096 2.944a2.867 2.867 0 0 0 4.111.608l2.453-1.9c1.305-1.011 2.794-.555 3.31 1.013L52.671 7.7a3.057 3.057 0 0 0 3.8 1.949l2.895-.91c1.573-.494 2.885.45 2.915 2.099l.065 3.657c.029 1.649 1.401 3.064 3.05 3.144l3.198.156c1.648.08 2.6 1.436 2.114 3.013l-1.011 3.284c-.486 1.577.368 3.372 1.899 3.99l3.257 1.314c1.53.617 1.975 2.204.987 3.527l-1.933 2.594c-.987 1.323-.76 3.273.505 4.33l2.898 2.429c1.265 1.058 1.166 2.657-.222 3.55l-2.698 1.74a3.03 3.03 0 0 0-.913 4.157l2.074 3.262c.884 1.392.29 2.823-1.32 3.18l-3.299.73a2.89 2.89 0 0 0-2.182 3.556l.94 3.654c.412 1.598-.594 2.745-2.231 2.549l-3.598-.432a2.872 2.872 0 0 0-3.22 2.634l-.292 3.6c-.133 1.646-1.46 2.412-2.95 1.704l-3.422-1.626a2.946 2.946 0 0 0-3.95 1.443l-1.451 3.195c-.683 1.502-2.215 1.797-3.407.655l-2.755-2.643a3.043 3.043 0 0 0-4.261.068l-2.452 2.506c-1.154 1.18-2.72.948-3.478-.517l-1.73-3.332c-.76-1.465-2.595-2.07-4.076-1.343l-3.184 1.56c-1.483.728-2.889-.014-3.126-1.647l-.529-3.645c-.236-1.632-1.77-2.806-3.409-2.61l-3.526.427c-1.637.197-2.723-.967-2.41-2.586l.688-3.574c.313-1.62-.75-3.234-2.362-3.586l-3.424-.748c-1.611-.353-2.262-1.813-1.443-3.246l1.78-3.116c.819-1.431.34-3.314-1.063-4.182L1.446 45.78c-1.403-.868-1.54-2.473-.305-3.568l2.596-2.3c1.236-1.095 1.396-3.038.357-4.321l-2.223-2.742C.834 31.567 1.23 30 2.756 29.37l3.053-1.264c1.524-.631 2.3-2.413 1.724-3.96l-1.266-3.395c-.575-1.546.301-2.877 1.95-2.958l3.168-.154a3.017 3.017 0 0 0 2.857-3.143l-.171-3.661c-.078-1.648 1.15-2.6 2.727-2.113l3.06.943a2.865 2.865 0 0 0 3.634-2.017l.913-3.445c.422-1.596 1.854-2.1 3.181-1.12l2.724 2.01a2.793 2.793 0 0 0 4.044-.736l1.813-2.797z" fill="#88B14B" fill-rule="evenodd"/></svg><svg width="79" height="81" viewBox="0 0 79 81" id="L1VzZXJzL3ZlYm1laGFuaWNhL0RvY3VtZW50cy9rb21iaWtvcm0vZnJvbnRlbmQvaW1nL3Nwcml0ZS9jb250ZW50L2l0ZW0tLWJlc3Quc3Zn" y="34" xmlns="http://www.w3.org/2000/svg"><title>Fill 1</title><path d="M36.166 1.56c.897-1.384 2.414-1.417 3.37-.072l2.096 2.944a2.867 2.867 0 0 0 4.111.608l2.453-1.9c1.305-1.011 2.794-.555 3.31 1.013L52.671 7.7a3.057 3.057 0 0 0 3.8 1.949l2.895-.91c1.573-.494 2.885.45 2.915 2.099l.065 3.657c.029 1.649 1.401 3.064 3.05 3.144l3.198.156c1.648.08 2.6 1.436 2.114 3.013l-1.011 3.284c-.486 1.577.368 3.372 1.899 3.99l3.257 1.314c1.53.617 1.975 2.204.987 3.527l-1.933 2.594c-.987 1.323-.76 3.273.505 4.33l2.898 2.429c1.265 1.058 1.166 2.657-.222 3.55l-2.698 1.74a3.03 3.03 0 0 0-.913 4.157l2.074 3.262c.884 1.392.29 2.823-1.32 3.18l-3.299.73a2.89 2.89 0 0 0-2.182 3.556l.94 3.654c.412 1.598-.594 2.745-2.231 2.549l-3.598-.432a2.872 2.872 0 0 0-3.22 2.634l-.292 3.6c-.133 1.646-1.46 2.412-2.95 1.704l-3.422-1.626a2.946 2.946 0 0 0-3.95 1.443l-1.451 3.195c-.683 1.502-2.215 1.797-3.407.655l-2.755-2.643a3.043 3.043 0 0 0-4.261.068l-2.452 2.506c-1.154 1.18-2.72.948-3.478-.517l-1.73-3.332c-.76-1.465-2.595-2.07-4.076-1.343l-3.184 1.56c-1.483.728-2.889-.014-3.126-1.647l-.529-3.645c-.236-1.632-1.77-2.806-3.409-2.61l-3.526.427c-1.637.197-2.723-.967-2.41-2.586l.688-3.574c.313-1.62-.75-3.234-2.362-3.586l-3.424-.748c-1.611-.353-2.262-1.813-1.443-3.246l1.78-3.116c.819-1.431.34-3.314-1.063-4.182L1.446 45.78c-1.403-.868-1.54-2.473-.305-3.568l2.596-2.3c1.236-1.095 1.396-3.038.357-4.321l-2.223-2.742C.834 31.567 1.23 30 2.756 29.37l3.053-1.264c1.524-.631 2.3-2.413 1.724-3.96l-1.266-3.395c-.575-1.546.301-2.877 1.95-2.958l3.168-.154a3.017 3.017 0 0 0 2.857-3.143l-.171-3.661c-.078-1.648 1.15-2.6 2.727-2.113l3.06.943a2.865 2.865 0 0 0 3.634-2.017l.913-3.445c.422-1.596 1.854-2.1 3.181-1.12l2.724 2.01a2.793 2.793 0 0 0 4.044-.736l1.813-2.797z" fill="#EF562D" fill-rule="evenodd"/></svg><svg width="30" height="25" viewBox="0 0 30 25" id="L1VzZXJzL3ZlYm1laGFuaWNhL0RvY3VtZW50cy9rb21iaWtvcm0vZnJvbnRlbmQvaW1nL3Nwcml0ZS9jb250ZW50L3NsaWRlci0tYXJyb3dzLS1uZXh0LnN2Zw==" x="149" y="81" xmlns="http://www.w3.org/2000/svg"><title>Group 6</title><g transform="translate(0 1.094)" stroke="#4A4A4A" stroke-width="1.597" fill="none" fill-rule="evenodd" stroke-linecap="round"><path d="M28.543 11.669H.997"/><path stroke-linejoin="round" d="M17.963.585l11.085 11.084L17.963 22.75"/></g></svg><svg width="30" height="25" viewBox="0 0 30 25" id="L1VzZXJzL3ZlYm1laGFuaWNhL0RvY3VtZW50cy9rb21iaWtvcm0vZnJvbnRlbmQvaW1nL3Nwcml0ZS9jb250ZW50L3NsaWRlci0tYXJyb3dzLS1wcmV2LnN2Zw==" x="119" y="81" xmlns="http://www.w3.org/2000/svg"><title>Group 6</title><g transform="matrix(-1 0 0 1 30 1.094)" stroke="#4A4A4A" stroke-width="1.597" fill="none" fill-rule="evenodd" stroke-linecap="round"><path d="M28.543 11.669H.997"/><path stroke-linejoin="round" d="M17.963.585l11.085 11.084L17.963 22.75"/></g></svg><svg width="16" height="20" viewBox="0 0 16 20" id="L1VzZXJzL3ZlYm1laGFuaWNhL0RvY3VtZW50cy9rb21iaWtvcm0vZnJvbnRlbmQvaW1nL3Nwcml0ZS9jb250ZW50L3VsLS1tYXJrZXIuc3Zn" x="158" y="221" xmlns="http://www.w3.org/2000/svg"><title>Fill 1 Copy 3</title><path d="M10.18 5.727c2.2 1.115 4.023 2.842 4.065 5.91.01.713-.029 1.436.155 2.071.131.457.39.924.658 1.343.31.483.695.97.542 1.611-.089.372-.411.76-.697.998-2.574 2.16-10.377 2.216-13.548.423-.588-.333-1.327-.96-1.354-1.65-.028-.72.528-1.188.813-1.727.274-.52.524-1.236.58-1.957.037-.47-.021-.922 0-1.343.141-2.803 1.684-4.306 3.523-5.411-.58-1.058-.865-2.443-.968-4.106-.032-.513-.06-1.145.232-1.381.677-.546 1.544.225 2.477.115C7.308.547 7.723.065 8.322.01c.676-.062 1.157.216 1.703.384.489.15.857.136 1.007.46.243.526-.085 1.997-.193 2.61-.162.91-.344 1.553-.658 2.264" fill="#EF562D" fill-rule="evenodd"/></svg><svg width="42" height="42" viewBox="0 0 42 42" id="L1VzZXJzL3ZlYm1laGFuaWNhL0RvY3VtZW50cy9rb21iaWtvcm0vZnJvbnRlbmQvaW1nL3Nwcml0ZS9mb290ZXIvZmFjZWJvb2suc3Zn" x="201" y="179" xmlns="http://www.w3.org/2000/svg"><title>Group 4</title><g transform="translate(1 1)" fill="none" fill-rule="evenodd"><path d="M17.882 20.097c.053.066.023.525.023.61l.002 9.683h4.22c.025-2.548.001-5.164.001-7.725 0-.036-.009-2.48.003-2.53.008-.034.009-.03.018-.044.006 0 2.684.022 2.778 0l.046-.014.37-3.534h-3.202c-.012-.523.003-1.059.003-1.582 0-.478-.01-1.068.276-1.33l2.907-.291-.004-3.545c-.55-.033-1.203-.004-1.766-.004-.583 0-1.175-.011-1.75.027-1.095.071-1.979.396-2.62.939-.926 1.478-1.284.208-1.29 5.787l-2.122.001.004 3.55 2.103.002z" fill="#FFF"/><path d="M39.968 19.87c0 10.973-8.942 19.869-19.971 19.869-11.03 0-19.972-8.896-19.972-19.87C.025 8.897 8.966 0 19.997 0c11.03 0 19.971 8.896 19.971 19.87z" stroke="#FFF" stroke-width="2"/></g></svg><svg width="119" height="34" viewBox="0 0 119 34" id="L1VzZXJzL3ZlYm1laGFuaWNhL0RvY3VtZW50cy9rb21iaWtvcm0vZnJvbnRlbmQvaW1nL3Nwcml0ZS9mb290ZXIvd2ViLW1lY2hhbmljYS5zdmc=" xmlns="http://www.w3.org/2000/svg"><title>Page 1</title><g fill="none" fill-rule="evenodd"><path d="M53.327 12.2l-.005.028c-.206 1.074-1.144 1.503-1.928 1.448-.778-.055-1.614-.621-1.614-1.735V7.517c0-.86-.181-1.398-1.078-1.415-.36-.008-.624.064-.807.22-.338.282-.377.817-.377 1.195v4.364c0 1.097-1 1.776-1.926 1.776-.764 0-1.655-.478-1.655-1.828V7.517c0-1.044-.298-1.415-1.138-1.415-.915 0-1.108.77-1.108 1.415v4.37c0 .356.102 3.474 3.575 3.474 2.24 0 3.09-1.245 3.125-1.297l.35-.531.357.528c.036.054.899 1.3 3.208 1.3 1.925 0 3.266-1.552 3.266-2.943V7.152c0-.223-.11-1.059-1.082-1.059-.97 0-1.163.808-1.163 1.059v5.047zM70.329 11.83c0 1.302-.756 1.961-1.706 1.961-.992 0-1.704-.659-1.704-1.962V9.624c0-1.146.531-2.058 1.704-2.137 1.173.08 1.706.991 1.706 2.137v2.205zm2.093-2.896c-.13-1.421-.971-2.84-3.496-2.84-.66 0-1.447.297-1.96.688V3.56c0-.223-.106-1.059-1.035-1.059-.929 0-1.112.807-1.112 1.059v5.716a3.187 3.187 0 0 0-.016.29v1.781s.056 1.257.272 1.877c.582 1.672 2.169 2.145 3.625 2.145 1.011 0 2.219-.367 2.979-1.199.454-.498.72-1.18.763-2.004v-2.058l-.02-1.173zM58.632 9.624c0-1.188.567-2.125 1.83-2.145.608.047 1.26.385 1.28 1.518-.142.555-2.383 1.065-3.11 1.305v-.678zm5.128-.253l.02-.02c.178-1.433-.754-3.286-3.432-3.258-2.677.028-3.475 1.827-3.475 1.827s.006.012.01.016a4.196 4.196 0 0 0-.367 1.629v2.323c0 .356.1 3.472 3.574 3.472 2.242 0 3.253-1.244 3.287-1.296l.108-.164c.91-1.652-1.227-1.818-1.647-1.095-.266.458-.717.851-1.422.851-.739 0-1.711-.455-1.772-1.708a85.031 85.031 0 0 1 3.582-1.238c1.259-.396 1.504-.87 1.534-1.339zM5.491 20.047c.216.231.564.586 1 .96.394.34.911.526 1.454.523h.056l.1-.006c.546-.046 1.328-.476 1.632-.753l.02-.017.02-.022c.006-.006.768-.792 1.928-1.846l1.92-1.756 3.67 3.465c.294.277.985.93 2.123.93 1.021 0 1.6-.545 1.944-.87l.103-.096c-.009.008 1.128-1.035 2.752-2.627l3.206-2.91.595-.542-1.583-1.474a2.188 2.188 0 0 0-1.456-.524h-.047l-.098.006c-.512.044-.972.24-1.32.556l-2.286 2.078-1.925 1.76c-.47-.446-4.146-3.92-4.146-3.92a2.224 2.224 0 0 0-2.986-.026l-3.443 3.128-3.74 3.438.507.545z" fill="#F26F27"/><path d="M29.485 23.119c-.966-.134-1.676.868-1.968 1.31-2.35 3.554-6.284 5.629-10.813 5.629-6.584 0-12.062-4.785-13.108-11.04l.54-.5a.074.074 0 0 1 .007.007l2.934-2.72-2.963-2.766a2.983 2.983 0 0 0-.418-.34 1.377 1.377 0 0 0-.21-.123c-.021-.011-.04-.023-.062-.032l-.03-.013a1.479 1.479 0 0 0-.422-.121 2.61 2.61 0 0 0-1.11.039c-.742.196-1.296.72-1.562 1.48l-.02.056-.012.059A17.12 17.12 0 0 0 0 17.034c0 9.203 7.49 16.76 16.698 16.847 5.786.054 10.839-2.598 13.927-7.202.441-.658 1.425-3.204-1.14-3.56" fill="#F26F27"/><path d="M101.26 18.09c-.93 0-1.112.807-1.112 1.059V26.292c0 .251.183 1.059 1.113 1.059.929 0 1.036-.836 1.036-1.06V19.15c0-.223-.107-1.058-1.036-1.058M53.327 21.251l-.005-.028c-.205-1.073-1.144-1.503-1.929-1.448-.777.055-1.613.622-1.613 1.735v4.423c0 .862-.181 1.399-1.078 1.416-.36.008-.624-.064-.807-.219-.338-.283-.378-.818-.378-1.197V21.57c0-1.096-.999-1.775-1.926-1.775-.763 0-1.655.48-1.655 1.827v4.312c0 1.046-.297 1.416-1.137 1.416-.915 0-1.108-.769-1.108-1.416v-4.37c0-.356.11-3.444 4.027-3.472 2.241-.016 3.023 1.476 3.023 1.476s.634-1.615 3.321-1.448c1.92.119 3.51 1.531 3.51 3.286v4.894c0 .223-.11 1.059-1.082 1.059-.97 0-1.163-.807-1.163-1.059v-5.048zM94.66 18.09c-3.918.029-4.027 3.117-4.027 3.473v4.37c0 .647.191 1.417 1.107 1.417.84 0 1.138-.37 1.138-1.416V21.62c0-1.348.895-1.77 1.655-1.826 1.21-.09 1.926.678 1.926 1.774v4.365c0 .378.039.913.376 1.197.183.154.448.226.808.219.898-.018 1.078-.554 1.078-1.416V21.51c0-2.137-1.821-3.435-4.062-3.42M77.034 18.09c-.762.006-1.378.13-1.879.324v-2.858c0-.223-.107-1.059-1.035-1.059-.93 0-1.113.808-1.113 1.059v10.378c0 .646.192 1.416 1.108 1.416.84 0 1.137-.37 1.137-1.416V21.62c0-1.348.894-1.77 1.655-1.826 1.21-.09 1.926.678 1.926 1.774v4.365c0 .378.04.913.377 1.197.183.154.448.226.807.219.898-.018 1.08-.554 1.08-1.416V21.51c0-2.137-1.823-3.435-4.063-3.42M70.221 24.803c-.265.457-.715.85-1.421.85-.764 0-1.785-.478-1.785-1.827v-2.205c0-1.188.551-1.978 1.815-1.999.476.037.911.26 1.132.891.074.212.602.96 1.359.807.972-.194.837-.968.63-1.451-.42-.976-1.43-1.798-3.22-1.778-2.678.028-3.476 1.827-3.476 1.827l.01.015a4.183 4.183 0 0 0-.365 1.63v2.322c.013.5.35 3.473 3.823 3.473 2.242 0 3.002-1.245 3.038-1.297l.109-.164c.907-1.652-1.229-1.819-1.649-1.094M58.761 21.621c0-1.187.567-2.125 1.83-2.145.608.048 1.26.384 1.28 1.518-.142.556-2.383 1.064-3.11 1.304v-.677zm5.128-.253l.02-.019c.178-1.434-.754-3.286-3.431-3.259-2.678.028-3.476 1.828-3.476 1.828s.006.012.01.016a4.194 4.194 0 0 0-.366 1.628v2.323c0 .356.1 3.473 3.573 3.473 2.242 0 3.252-1.245 3.287-1.298l.108-.164c.91-1.65-1.225-1.818-1.647-1.094-.267.458-.716.852-1.42.852-.741 0-1.713-.457-1.774-1.71a85.222 85.222 0 0 1 3.583-1.238c1.259-.396 1.503-.869 1.533-1.338zM87.24 24.802c0 1.188-.551 1.19-1.562 1.142-.627-.048-1.519-.17-1.549-1.578.037-.935.256-1.506 1.094-1.736.713-.195 1.942.194 2.008.612l.009-.022v1.582zm-1.628-6.711c-2.03-.078-2.599.073-2.808.674-.218.628.45.955 1.392.955.534 0 .788-.037 1.157-.037.764 0 2.004.467 2.006 2.08-.012-.016-.017-.038-.031-.052-.388-.39-2.17-1.038-3.82-.139-1.514.824-1.465 2.304-1.433 2.917 0 .014.008.03.01.044-.078 1.546 1.019 2.86 3.559 2.86 1.943 0 3.712-.142 3.712-2.758v-3.072c0-.356-.274-3.342-3.744-3.472zM108.82 24.803c-.265.457-.715.85-1.421.85-.764 0-1.784-.478-1.784-1.827v-2.205c0-1.188.552-1.978 1.814-1.999.477.037.912.26 1.132.891.075.212.603.96 1.36.807.971-.194.838-.968.63-1.451-.42-.976-1.431-1.798-3.22-1.778-2.678.028-3.476 1.827-3.476 1.827l.01.015a4.187 4.187 0 0 0-.366 1.63v2.322c.013.5.35 3.473 3.825 3.473 2.239 0 3-1.245 3.035-1.297l.11-.164c.908-1.652-1.228-1.819-1.649-1.094M116.518 24.802c0 1.188-.552 1.19-1.563 1.142-.627-.048-1.519-.17-1.548-1.578.037-.935.255-1.506 1.093-1.736.713-.195 1.943.194 2.008.612l.01-.024v1.584zm-1.63-6.711c-2.029-.078-2.597.073-2.806.674-.22.628.45.955 1.392.955.533 0 .788-.037 1.157-.037.763 0 2.005.467 2.007 2.08-.013-.016-.019-.038-.033-.052-.389-.39-2.169-1.038-3.82-.139-1.514.824-1.465 2.304-1.432 2.917.001.012.008.025.01.038-.083 1.55 1.016 2.865 3.559 2.865 1.942 0 3.71-.14 3.71-2.757v-3.072c0-.356-.272-3.342-3.743-3.472zM16.768 0C11.353 0 6.291 2.525 3.17 6.616c-.604.791-1.63 2.355-.575 3.39 1.593 1.562 3.284-.46 3.88-1.213 2.465-3.12 6.182-4.972 10.23-4.972 6.192 0 11.555 4.58 12.94 10.523l-3.772 3.363 1.965 1.814.528.454c.318.278.62.538.917.754l-.004.018.428.284c.636.444 1.466.526 2.22.216.649-.264 1.107-.862 1.29-1.68l.007-.028.003-.027c.121-.825.182-1.658.182-2.477C33.41 7.642 25.944 0 16.768 0" fill="#58585B"/></g></svg><svg width="42" height="42" viewBox="0 0 42 42" id="L1VzZXJzL3ZlYm1laGFuaWNhL0RvY3VtZW50cy9rb21iaWtvcm0vZnJvbnRlbmQvaW1nL3Nwcml0ZS9mb290ZXIvdHdpdHRlci5zdmc=" x="159" y="179" xmlns="http://www.w3.org/2000/svg"><title>Group</title><g transform="translate(1 1)" fill="none" fill-rule="evenodd"><path d="M30.793 20.99c.081-.073.017.025.08-.118l.145-.508c.785-.025 1.327-.084 1.96-.335l1.307-.89c-.432-.006-.887.11-1.59.002l-1.426-.297c.118-.074.299-.077.465-.101a5.71 5.71 0 0 0 .488-.088c.328-.076.569-.15.845-.276l1.095-1.066c-.5.196-.953.277-1.627.285-.328.003-1.518-.015-1.627-.306-.132-.346-.13-.672-.403-1.319a6.788 6.788 0 0 0-.63-1.16 6.395 6.395 0 0 0-1.839-1.805l-3.001-.836c.188-.18.895-.321 1.15-.389 1.339-.355 1.223-.841.9-.931-.414-.116-1.423.262-1.874.4l.808-.853c-.84.078-1.39.496-2.02.882l.262-.64c-.793.265-2.224 2.145-2.62 2.898l-1.68 3.664c-.143-.058-1.136-1.07-1.895-1.522-.662-.394-1.547-.815-2.308-1.165-1.831-.844-3.14-1.357-5.015-2.04-.093 1.638.964 2.54 2.282 3.42l-1.607.21c.028.7.57 1.428.983 1.778.75.637 1.142.639 1.83.898l.141.072c-1.108.191-.777.069-1.74.69.012.436.966 1.363 1.686 1.522l1.602.207c-.111.1-.285.172-.416.256a1.228 1.228 0 0 0-.348.307c-.22.266-.336.568-.19.938l1.854.841c-.1.196-.705.68-.908.82-1.11.765-2.358 1.303-3.949 1.373a7.634 7.634 0 0 1-3.089-.51c-.996-.396-1.405-.728-2.165-1.312.223.382.728.91 1.037 1.235 2.91 3.069 7.615 4.763 12.534 3.89 3.004-.535 4.94-1.566 6.698-2.845.29-.21.98-.827 1.23-1.082.764-.785 1.445-1.626 1.943-2.597.149-.292.664-1.301.642-1.597" fill="#FFF"/><path d="M39.944 19.87c0 10.973-8.943 19.869-19.972 19.869C8.942 39.739 0 30.843 0 19.869 0 8.897 8.942 0 19.972 0c11.03 0 19.972 8.896 19.972 19.87z" stroke="#FFF" stroke-width="2"/></g></svg><svg width="43" height="42" viewBox="0 0 43 42" id="L1VzZXJzL3ZlYm1laGFuaWNhL0RvY3VtZW50cy9rb21iaWtvcm0vZnJvbnRlbmQvaW1nL3Nwcml0ZS9mb290ZXIvdmsuc3Zn" x="116" y="179" xmlns="http://www.w3.org/2000/svg"><title>Group 3</title><g transform="translate(1 1)" fill="none" fill-rule="evenodd"><path d="M18.267 25.688h2.845c.962 0 1.639-.183 2.03-.554.396-.37.593-.869.593-1.496 0-.58-.194-1.047-.585-1.4-.39-.353-1.07-.531-2.05-.531h-2.833v3.98zm0-7.72h2.425c.87 0 1.475-.165 1.82-.49.34-.329.508-.8.508-1.414 0-.571-.168-1.02-.508-1.34-.345-.326-.938-.486-1.783-.486h-2.462v3.73zm-5.627-7.71h10.443c1.74 0 3.077.471 4.005 1.409.933.938 1.4 2.1 1.4 3.482 0 1.162-.332 2.16-.997 2.993-.444.554-1.092.993-1.946 1.314 1.295.338 2.25.923 2.862 1.747.61.83.916 1.868.916 3.117 0 1.02-.218 1.936-.65 2.75a5.059 5.059 0 0 1-1.786 1.932c-.467.292-1.173.507-2.119.64-1.257.178-2.088.27-2.5.27H12.64V10.257z" fill="#FFF"/><path d="M40.456 19.87c0 10.973-8.942 19.869-19.971 19.869-11.031 0-19.973-8.896-19.973-19.87C.512 8.897 9.454 0 20.485 0c11.029 0 19.971 8.896 19.971 19.87z" stroke="#FFF" stroke-width="2"/></g></svg><svg width="26" height="23" viewBox="0 0 26 23" id="L1VzZXJzL3ZlYm1laGFuaWNhL0RvY3VtZW50cy9rb21iaWtvcm0vZnJvbnRlbmQvaW1nL3Nwcml0ZS9oZWFkZXIvY2FydC0td2hpdGUuc3Zn" x="243" y="179" xmlns="http://www.w3.org/2000/svg"><title>cart</title><g transform="translate(1 1)" fill="none" fill-rule="evenodd"><path d="M.321 1.583L3.82.413C4.46.2 5.244.55 5.564 1.19L6.8 3.656l1.166 2.327 3.561 7.114c.32.64 1.099.966 1.73.725l9.347-3.571c.631-.242 1.112-1.034 1.069-1.763L23.42 4.24c-.043-.729-.621-1.255-1.285-1.17L7.63 4.92" stroke="#FFF" stroke-width="1.8" stroke-linecap="round" stroke-linejoin="round"/><path d="M16.036 19.157c0 1.379-1.024 2.497-2.286 2.497s-2.286-1.118-2.286-2.497c0-1.38 1.024-2.497 2.286-2.497s2.286 1.118 2.286 2.497M23.121 19.157c0 1.379-1.023 2.497-2.285 2.497-1.263 0-2.286-1.118-2.286-2.497 0-1.38 1.023-2.497 2.286-2.497 1.262 0 2.285 1.118 2.285 2.497" fill="#FFF"/></g></svg><svg width="26" height="23" viewBox="0 0 26 23" id="L1VzZXJzL3ZlYm1laGFuaWNhL0RvY3VtZW50cy9rb21iaWtvcm0vZnJvbnRlbmQvaW1nL3Nwcml0ZS9oZWFkZXIvY2FydC5zdmc=" x="79" y="83" xmlns="http://www.w3.org/2000/svg"><title>cart</title><g transform="translate(1 1)" fill="none" fill-rule="evenodd"><path d="M.321 1.583L3.82.413C4.46.2 5.244.55 5.564 1.19L6.8 3.656l1.166 2.327 3.561 7.114c.32.64 1.099.966 1.73.725l9.347-3.571c.631-.242 1.112-1.034 1.069-1.763L23.42 4.24c-.043-.729-.621-1.255-1.285-1.17L7.63 4.92" stroke="#EF562D" stroke-width="2" stroke-linecap="round" stroke-linejoin="round"/><path d="M16.036 19.157c0 1.379-1.024 2.497-2.286 2.497s-2.286-1.118-2.286-2.497c0-1.38 1.024-2.497 2.286-2.497s2.286 1.118 2.286 2.497M23.121 19.157c0 1.379-1.023 2.497-2.285 2.497-1.263 0-2.286-1.118-2.286-2.497 0-1.38 1.023-2.497 2.286-2.497 1.262 0 2.285 1.118 2.285 2.497" fill="#EF562D"/></g></svg><svg width="59" height="73" viewBox="0 0 59 73" id="L1VzZXJzL3ZlYm1laGFuaWNhL0RvY3VtZW50cy9rb21iaWtvcm0vZnJvbnRlbmQvaW1nL3Nwcml0ZS9oZWFkZXIvYmxvY2stMS5zdmc=" x="57" y="179" xmlns="http://www.w3.org/2000/svg"><title>Fill 1</title><path d="M31.2 70.428c.105.027.212.057.32.09a7.68 7.68 0 0 1-.32-.09m-1.542-5.663h4.096c1.542-1.456 2.324-4.577 2.235-7.01-.035-.118-.122-.186-.28-.186a.808.808 0 0 0-.093.007c-1.943 2.437-5.467 3.35-5.958 7.19M8.006.406c.518 0 .43.584.423 1.09.615-.04.191-1.083.85-1.083.025 0 .052.002.081.005v1.258c.069.074.134.104.198.104.15 0 .293-.167.467-.333.172-.168.375-.334.644-.334.058 0 .118.007.18.024-.19.782.385.827.56 1.258-.037.924-1.202.758-1.49 1.438 1.714 1.175 3.846 1.764 5.4 3.235 4.294 4.063 5.213 11.06 9.312 14.56.724.618 2.484.8 4.396.8 1.734 0 3.591-.15 4.914-.262 3.956-.333 6.225-2.378 7.635-4.852a13.783 13.783 0 0 0-.187-3.056c-.078-.615.559-.54.746-.899.4-4.886 1.766-8.84 6.704-9.346.532.384 1.055.778 1.117 1.617h2.235c1.417 2.467 3.969 3.838 5.214 6.47-.232 1.296-.997 1.592.559 1.618.154 1.586-.508 2.385-.931 3.416 1.512 1.053-.06 2.384-.187 3.235-.197 1.325.327 2.514.932 3.595-.244 1.22-.174 2.82.372 3.775-.438 1.073-1.111 1.923-2.42 2.156 1.66 5.377-5.033 6.595-1.863 10.066.351 9.684-5.29 13.586-11.546 16.895-.09.003-.181.005-.27.005-.578 0-1.102-.054-1.627-.107a15.468 15.468 0 0 0-1.637-.108c-.239 0-.488.009-.75.03-.607 3.652.583 6.138 3.912 6.47-.264.147-.578.204-.907.204-.773 0-1.625-.32-2.074-.563.004 2.335.89 3.815 1.304 5.752-1.42-.366-1.195-2.32-2.42-2.876-3.348.483-4.381 3.2-8.194 3.236.63-1.85 3.572-1.465 4.469-3.056-.96-.752-3.36-.112-4.469-.72-1.397 2.495-1.036 4.514 1.543 5.304a6.487 6.487 0 0 0-1.61-.215c-2.219 0-3.628 1.33-4.774 2.46-.31-.239-.062-1.017-.373-1.257-1.5-.069-2.866-.13-4.243-.13-1.04 0-2.087.034-3.206.13.995-1.437 3.508-1.407 5.96-1.438-.274-.694-1.33-.636-2.05-.899.279-.323.594-.432.946-.432.381 0 .804.128 1.27.257.466.13.972.259 1.52.259.237 0 .482-.025.735-.084.911-1.703 4.405-5.864 3.91-8.267-.339-1.644-2.495-1.197-3.724-2.337-1.763-5.609-7.848-7.045-11.919-10.426h-2.421c-2.202-2.25-5.228-4.515-6.145-7.548-1.09-3.607.619-8.119.931-12.582.136-1.949 1.084-3.385 1.49-5.212.33-1.49.055-2.969.186-4.314.173-1.782 1.114-3.813.186-5.393a1.598 1.598 0 0 0-.095-.003c-.444 0-.654.226-.863.452-.21.225-.419.45-.86.45h-.044c-2.157-.233-3.16-2.327-2.235-4.494-.065-.235-.327-.282-.372-.538-.947.014-1.517.392-2.479.392-.156 0-.322-.01-.501-.033.04-1.4 1.676-1.26 1.303-3.056.093.012.177.019.257.019.292 0 .504-.08.675-.198-.248-1.392.05-2.18 1.303-2.517-.206-.34-.237-.849-.372-1.258.25.117.447.17.604.17.528 0 .597-.591.7-1.248a.768.768 0 0 1 .113-.009c.46 0 .41.498.818.548.502-.212-.001-.936 0-1.258.87.059.805 1.02 1.676 1.078.266-.221.352-.617.372-1.078a.917.917 0 0 1 .136-.012" fill="#88B14B" fill-rule="evenodd"/></svg><svg width="80" height="69" viewBox="0 0 80 69" id="L1VzZXJzL3ZlYm1laGFuaWNhL0RvY3VtZW50cy9rb21iaWtvcm0vZnJvbnRlbmQvaW1nL3Nwcml0ZS9oZWFkZXIvYmxvY2stMi5zdmc=" x="198" y="43" xmlns="http://www.w3.org/2000/svg"><title>Page 1</title><path d="M28.66 51.589c-.569-2.659.04-5.608 2.443-7.029-.95-.581-1.844-1.215-2.443-2.13.072-4.048 2.192-6.133 3.997-8.52-.54-1.5.083-2.999.668-4.047-3.63 2.166-8.435 3.63-14.22 2.555.153-1.06 1.445-1.027 2.445-1.277-.98-.296-3.052.194-4.666 0 .127-.872 1.568-.483 2.222-.853-.923-.605-3.358.239-3.999-.637.188-.814 1.332-.713 2-1.066-1.058-.903-3.552-.43-3.778-2.13-.019-1.295 1.977-.661 2.89-1.065-2.02-3.033-7.702-2.557-10.889-4.474.163-.198.405-.323.668-.427-.336-.389-.96-.5-1.334-.851-.039-.464.182-.678.666-.639-1.169-.754-.655-1.802-1.999-2.343-.196-.684.733-.292.668-.852C2.446 15.163.606 14.796 0 13.25c.092-.763.708-1.026 1.554-1.065-.285-.721-1.382-.664-1.333-1.705.26-1.1 1.708-1.06 3.11-1.065-1.618-.326-3.046-3.037-.666-3.62-.365-.517-.565-1.035-.222-1.705.583-.436 1.3-.742 2.444-.639.023-.946-.622-1.25-.445-2.343C5.268.76 6.628.93 7.775.894c3.77 2.355 7.07 5.003 11.11 8.095 3.154 2.414 7.638 6.64 11.995 7.24 9.511 1.312 18.17-3.19 28.885-1.915.374.044.933-.035 1.33 0 5.745.497 9.326 4.54 12.444 0-.953-4.981-7.071-5.008-6.445-11.504.857-2.058 3.938-3.633 6.89-2.341 1.366 1.67 3.547 2.56 4.664 4.473-2.18 1.089-.124 4.17-.888 6.177-1.995-.97.125-4.685-1.111-6.177-.69-.023-1.063.26-1.556.424.25 1.078.487 3.073-.221 3.836 2.23 3.54 3.7 7.811 5.11 12.14.046.897-.996.752-1.334 1.278.078 3.16 1.532 5.618 1.333 8.308-.225 3.048-2.35 7.954-4.888 10.01-3.095 2.51-9.437 4.857-14.219 5.539-1.841.263-3.518.188-5.332 0-3.309 5.372-1.412 14.666 1.11 19.81 2.542.546 4.772 1.39 7.332 1.917-2.786.398-6.433-.222-9.553-.213-.424-.374-.797-.798-.888-1.49-.544.613-1.738.605-2.223 1.277-.469-1.237 1.465-2.001 2-2.982-.17-5.73-2.31-9.573-2.442-15.337-1.758.73-2.769 2.176-4.668 2.77 1.247 2.52 5.116 4.298 4.668 8.093-.238 2.009-1.965 4.19-4.002 5.112.163-.485.199-1.087.447-1.49-.217-.527-.854.293-1.556 0 .675-1.927 2.789-3.458 1.776-5.752-.819-.063-1.142 1.446-1.555 1.065 1.718-2.223.128-4.288-1.11-5.965-1.545.437-2.518 1.421-3.777 2.132-.713-.168-.97-.774-1.556-1.065-.843.042-.843.895-1.777.852-1.335-.194-2.018-1.716-.888-2.557-1.705-.663-3.942 2.623-5.111 0-.545.242-1.23 1.057-1.777.638-.73-1.57 1.122-2.481-1.332-1.703" fill="#88B14B" fill-rule="evenodd"/></svg><svg width="80" height="64" viewBox="0 0 80 64" id="L1VzZXJzL3ZlYm1laGFuaWNhL0RvY3VtZW50cy9rb21iaWtvcm0vZnJvbnRlbmQvaW1nL3Nwcml0ZS9oZWFkZXIvYmxvY2stMy5zdmc=" y="115" xmlns="http://www.w3.org/2000/svg"><title>Fill 1 Copy 2</title><path d="M75.193 16.765c.287-2.392.413-6.303-1.346-6.63 1.402 1.175.721 5.324 1.346 6.63m2.5 18.969c.335.845.602 1.755 1.346 2.209-.683.218-1.13-1.37-1.73-1.841-.347.644.753 1.482 1.152 2.025.196.385-.902-.902-1.345-1.104.596 1.7 1.718 2.896 2.884 4.05-1.906-.96-3.634-3.397-4.038-6.445-.272-2.046-.196-3.693-1.154-4.972-.774 1.919-1.373 3.122-1.153 5.156.149 1.388 1.629 2.778 1.538 4.052-.077 1.074-1.756 2.82-2.309 4.42-1.109 3.214-1.795 6.017-.576 9.944-1.514 1.066-2.867 2.288-2.5 5.156-1.317 1.1-4.574 1.545-6.154.369.101-2.42 2.173-2.953 3.077-4.604.525-4.149 2.706-8.837 2.115-14.365-.128-1.204-.672-2.247-.769-3.314-1.164 1.402-3.43 1.748-3.27 4.42-1.043-.01-1.162-1.372-2.307-.737-.954-.177-.323 1.164-.769 1.473-.91.073-.417-1.197-1.154-1.289-.551.147-.121 1.235-.961 1.105-.517-2.145-3.14-2.272-4.616-3.5-3.633 1.367-7.556 3.244-12.884 2.395.9 3.768 1.584 7.513 2.692 11.234.423 1.418 1.664 4.138 1.538 5.156-.106.872-1.255 1.233-1.538 2.026-.605 1.698.164 3.208-.77 4.604-2.32.525-5.685 1.024-6.922-.737 1.583-3.313 4.737-4.336 4.038-9.023-.686-4.6-4.636-8.653-6.154-12.339-1.384.577-2.762 1.16-4.808 1.105-.89 3.557-1.837 10.325 0 13.627-1.027.183-1.537.86-2.115 1.474.846.928.416 2.187 0 3.314-1.871.54-4.257 1.032-6.346.369.25-2.34 1.98-3.26 2.885-4.972.167-3.571 1.12-6.85.77-10.13-.116-1.077-.696-2.104-.77-3.13-.066-.912.42-1.88.192-2.762-.182-.701-1.151-1.144-1.73-1.842-1.654-1.986-2.977-5.696-4.424-7.734-2.022-2.847-5.224-5.2-6.346-9.024-2.122.067-3.842-.25-4.808-1.288-1.788.907-3.755-.199-5.192-.737-1.12-3.375 1.225-4.942 2.308-6.814C2.87 12.299.714 12.276 0 10.872c.551-2.418 3.674-2.375 6.154-2.946C3.066 7.51-.422 2.59 3.077.376c-.34 2.405.634 4.294 2.885 4.419.498.028 1.051-.448 1.73-.552 2.473-.38 5.89.546 7.885-.368-.242-2.163-2.808-2.1-3.461-3.868 3.463-.118 7.024 1.249 6.538 5.525-.48.828-1.34 1.295-1.73 2.21 2.168.367 5.393-.563 7.115 1.289.1.772-.336 1.028-.385 1.657 4.136.09 12.296-.257 18.077 0 2.985.133 5.625.097 8.654-.184 5.501-.51 10.293-2.715 16.346-3.13 4.107-.283 8.63 1.045 9.423 3.866.602 2.14.08 6.52-.192 8.656-.454 3.555 1.007 6.37 1.346 8.84.285 2.079-.498 3.717 0 5.34.438 1.43 1.57 2.135 2.115 3.683-.068.258-.338.016-.384-.184-.59-.478-.568-1.543-1.346-1.841" fill="#88B14B" fill-rule="evenodd"/></svg><svg width="80" height="43" viewBox="0 0 80 43" id="L1VzZXJzL3ZlYm1laGFuaWNhL0RvY3VtZW50cy9rb21iaWtvcm0vZnJvbnRlbmQvaW1nL3Nwcml0ZS9oZWFkZXIvYmxvY2stNC5zdmc=" x="198" xmlns="http://www.w3.org/2000/svg"><title>Fill 1</title><path d="M79.888 12.14c.535 1.327-1.078 2.365 0 2.826-2.164.34-.402-1.571-.781-2.074-2.537.813-1.593 5.525-2.544 8.48-1.034 3.224-3.28 4.466-.78 7.535.562.692 1.567 1.057 1.76 1.884.377 1.616-1.023 4.02-.783 6.028.097.804.615 1.218.587 2.26-.362.406-.573.957-1.563.755v1.696c-1.465.05-2.764.99-4.107.564.008-2.29 1.996-3.958 1.956-6.217-.052-2.917-2.45-5.19-4.888-6.406-.67 2.559-3.053 4.924-3.715 8.101-.692.611-.688-.591-1.565-.378-.697.523-.843 1.574-1.172 2.45-1.319.015-2.68.071-3.519-.376 1.063-3.324 5.15-4.15 4.3-8.477-.412-2.101-3.033-2.637-2.932-5.464-2.423.478-4.054 2.083-6.842 2.45-1.97.257-3.374-.643-5.475-.942-2.76-.396-7.526-.599-9.971 0-4.773 1.168-1.047 8.708-2.15 13.187-.437.424-.98-.013-1.369-.188-.117.702.501 1.19 0 1.696-.843.567-2.525.33-3.909.376 1.021-2.091 3.45-6.483.586-8.855-.994 1.113-.54 3.624-.976 5.276-.705.34-.578-.035-1.174-.19-.505.395-.717 1.07-.586 2.073-1.347-.144-1.979-.144-3.325 0 2.784-2.931 2.967-7.157 1.76-11.869-2.712-.352-5.733-2.068-8.406-2.448-1.632-.233-3.092.096-4.498 0-5.432-.376-9.428-3.878-13.49-5.84-.306-1.576-.602-3.307.196-4.523 3.794.976 6.61-1.8 8.212-4.144-1.13-2.805-2.167-5.7-3.91-7.913 2.571-.343 3.81.599 5.474 1.13.216-1.213-.72-1.316-.587-2.448 2.724-.523 3.394 2.912 5.67 3.202 1.329.17 3.737-1.306 6.06-1.694 3.66-.615 8.361-.703 12.318-.943 3.883-.237 7.087-1.411 10.361-1.695C50.031.51 54.22-.075 60.533.27c7.714.423 15.622 4.678 17.596 11.115.557.279 1.54.149 1.759.754" fill="#88B14B" fill-rule="evenodd"/></svg><svg width="80" height="64" viewBox="0 0 80 64" id="L1VzZXJzL3ZlYm1laGFuaWNhL0RvY3VtZW50cy9rb21iaWtvcm0vZnJvbnRlbmQvaW1nL3Nwcml0ZS9oZWFkZXIvYmxvY2stNS5zdmc=" x="80" y="115" xmlns="http://www.w3.org/2000/svg"><title>Fill 1</title><path d="M16.138.346c-1.388 1.682-3.658 2.51-4.16 5.04 3.006-.934 5.464-3.901 9.948-3.997-1.04 2.027-4.284 2.296-5.608 4.17-3.304 4.68 4.726 8.47 9.951 8.515 3.733.03 7.892-.33 11.94.695 2.71.685 5.561 1.773 8.322 1.911 5.405.272 10.536-2.262 16.464-1.564 2.025.239 3.835 1.95 5.788 1.911 2.207-.041 4.193-3.073 7.055-2.085 2.198.903 3.32 2.836 4.162 5.04-1.328.029-2.016-2.062-3.8-2.434-2.205-.46-4.348.431-6.331.87-.864 3.593 2.99 6.962 3.257 11.294.164 2.696-.58 5.377-.362 7.82.168 1.873 1.09 3.537 1.266 5.213.224 2.134-.561 4.969-.362 7.471.208 2.598 1.415 9.088-3.618 6.95-.729-1.445.334-2.85.542-4.517.605-4.85-.053-11.18-2.17-14.076-.608-.83-2.079-2.25-3.437-1.389-.468 1.295.628 2.417.722 3.823.124 1.849-.976 4.218-1.085 6.602-.098 2.167.006 4.18-.904 5.91-1.05-.035-2.342.162-2.894-.35-.82-1.544.97-2.85 1.266-4.343.662-3.355-.72-6.823-.904-9.904-3.55-1.333-8.367.335-13.209.347-2.65.005-5.037-.607-7.597-.696-3.841 5.706-2.7 16.012-2.534 23.459-.549 1.356-2.547 2.059-4.16 1.39-.289-2.508 1.117-3.9 1.266-6.083.183-2.655-1.52-4.75-1.627-7.123-.04-.87.5-1.625.541-2.433.109-1.986-.855-3.605-1.084-5.56-2.697 4.1-.342 10.953-1.447 15.812-.637.694-2.301 1.225-3.618.695-.506-2.03.942-3.351 1.265-5.56.305-2.083-.826-3.966-.904-6.082-.077-2.061 1.175-4.439.181-6.95-.768-1.94-2.937-2.817-3.98-4.344-1.434-5.9-3.394-11.663-8.502-14.423-1.501-.81-3.907-1.563-5.61-1.563-3.071 0-9.465 3.944-10.13-.347-.393-2.534 2.445-4.648 3.436-6.43.767-1.377 1.266-2.896 2.173-4.517.584-1.052 1.753-2.109 2.532-3.128 2.26-2.961 3.154-4.44 7.418-5.213.153-.032.17.067.18.173h.362z" fill="#88B14B" fill-rule="evenodd"/></svg><svg width="57" height="76" viewBox="0 0 57 76" id="L1VzZXJzL3ZlYm1laGFuaWNhL0RvY3VtZW50cy9rb21iaWtvcm0vZnJvbnRlbmQvaW1nL3Nwcml0ZS9oZWFkZXIvYmxvY2stNi5zdmc=" y="179" xmlns="http://www.w3.org/2000/svg"><title>Fill 1</title><path d="M49.64 3.157c1.997 1.367 5.801.997 6.778 3.343-2.207.603-4.38.062-6.594.528-.988.208-2.041 1.073-3.297 1.583-.91.37-2.071.314-2.748.705-4.548 2.616-1.983 11.834-.367 16.01.956 2.468 2.786 4.259 4.03 6.86.827 1.728.858 3.53 1.283 5.279.746 3.078 3.232 6.174 2.747 9.676-.368 2.66-2.95 6.03-4.763 7.389-1.934 1.45-5.328 2.827-8.06 4.047-2.55 1.14-6.185 3.035-6.593 5.278-.46 2.52 1.41 6.926 2.016 8.971 3.382-.396 6.145-.91 7.326 1.76-3.925.665-11.062 1.72-10.807-3.168-2.776.321-4.203-.653-5.495-1.758-.247-1.58-.57-3.088-.733-4.75-9.459-.229-11.463-8.88-17.402-12.668-1.54-.98-3.504-1-4.03-3.166C1.823 48.732.525 48.573 0 47.669c3.674-.488 6.983-.755 10.441-1.231 1.91-.264 3.847-1.615 5.863-2.112.731-.18 1.529.01 2.197-.177 1.075-.297 2.15-1.346 3.115-1.759 2.065-.882 4.96-1.45 7.693-2.463 1.045-.387 2.34-.996 3.662-1.407 3.373-1.048 5.148-1.23 5.313-5.454.176-4.534-2.016-9.249-2.381-14.074-.358-4.728-.142-10.39 1.466-13.724C38.894 2.104 42.41.495 47.44.167c1.01.733 1.484 1.976 2.2 2.99z" fill="#88B14B" fill-rule="evenodd"/></svg><svg width="65" height="59" viewBox="0 0 65 59" id="L1VzZXJzL3ZlYm1laGFuaWNhL0RvY3VtZW50cy9rb21iaWtvcm0vZnJvbnRlbmQvaW1nL3Nwcml0ZS9oZWFkZXIvYmxvY2stNy5zdmc=" x="198" y="112" xmlns="http://www.w3.org/2000/svg"><title>Fill 1</title><path d="M1.979 52.668c.117-.257-.779-.257-.66 0-.462-.204.52-.327.33-.79-.466-.131-.427.223-.825.157 1.18-.608-.731-.544.165-1.423-.095-.33-.623.228-.989.158.245-.396.74-.555 1.154-.791-.129-.35-1.02.03-.824-.633.711.136.754-.427.33-.633 1.363-.184 1.31-1.031 2.969-.789-.53-3.546.832-6.18 1.154-9.329.263-2.57 2.3-4.841 3.957-6.799 5.442-6.423 12.885-9.07 25.069-8.538 3.91.17 7.192.046 10.884 1.106-.097-.673.119-1.046.166-1.582 1.747-2.201 3.613-4.1 1.979-7.114-1.29-2.381-3.39-4.649-3.463-7.432-.084-3.11 1.413-8.085 5.277-6.009.376-1.192 1.482-2.146 2.805-2.054 1.779.121 2.728 2.741 2.801 4.584.151 3.768-.536 7.976 1.486 10.752 1.623 2.23 4.057 1.412 5.607 3.953-.297 3.854 4.717 7.262 1.979 10.278-1.437 1.584-4.357 1.444-6.762 2.373-1.165 3.46-2.001 7.17-4.453 10.119-1.23 1.48-2.7 1.641-4.123 2.687-2.97 2.187-1.402 7.9 1.485 9.014 1.717.663 3.17.314 3.628 2.371-1.172 1.245-2.797.548-4.453.792-2.482.363-4.63 2.22-7.092.474-.8-.57-1.437-1.895-2.31-3.004-.994-1.268-2.54-2.202-2.638-3.638-.15-2.207 2.229-3.292 2.474-5.534-3.118 1.536-7.014 3.3-10.059 5.534-.9.66-2.093 1.42-2.474 2.53 2.725 2.293 11.18-1.982 11.214 3.321-1.202.638-3.213 1.5-5.443 1.265-.693-.074-1.413-.656-2.308-.79-2.197-.331-5.546-.343-7.916-.158-2.35.18-4.23.552-5.113-1.266-.045-.57.304-.762.33-1.264-.911.494-3.571 2.017-5.608.948-1.205.441-3.482.645-4.947.316.027-.185.3-.133.494-.159-.566-.441-.885-.705-1.814-.474-.02-.284.202-.333.165-.631-2.284.38-1.673-1.426-3.463-.95.049-.322.446-.31.495-.632-.291.09-.969-.191-.99.159-.392-.048.183-.429.33-.475" fill="#88B14B" fill-rule="evenodd"/></svg><svg width="39" height="49" viewBox="0 0 39 49" id="L1VzZXJzL3ZlYm1laGFuaWNhL0RvY3VtZW50cy9rb21iaWtvcm0vZnJvbnRlbmQvaW1nL3Nwcml0ZS9oZWFkZXIvbG9nby0tbWlkZGxlLnN2Zw==" x="79" y="34" xmlns="http://www.w3.org/2000/svg"><title>Fill 1</title><path d="M33.263 40.3c-.782.806-3.269 2.259-3.269.096 0-.878.534-.916.962-1.25 2.256-1.76 2.152-4.523 2.018-7.69-.085-2.017.112-3.787-.288-5.48-1.014-4.29-4.417-8.363-8.555-9.516-1.748-.487-4.706-.396-6.73-.288-4.206.223-6.957 2.176-8.94 4.806-1.457 1.934-2.546 4.69-2.691 7.594-.053 1.06.082 2.147 0 3.268-.184 2.533-1.066 4.987-2.115 6.825-.477.837-1.358 1.416-1.345 2.404.028 2.284 4.562 3.589 6.92 4.133 6.064 1.4 14.38 1.342 20.284-.096 2.08-.506 7.083-1.626 7.017-4.133-.033-1.264-1.465-1.86-1.826-3.076-.265.768-.69 1.628-1.442 2.403M20.189 2.425c-1.166.322-2.057 1.299-3.46 1.442-1.729.178-2.834-.453-4.71-.769.06 3.271.618 6.862 1.538 9.325.289.775.547 2.2 1.826 1.634-.209-1.522-1.881-6.224.289-6.345 1.66-.091 1.219 2.007 1.441 3.461.17 1.115.51 1.969.673 2.691 1.936.006 3.339-.046 5.19 0 1.457-2.773 1.89-6.57 2.212-10.477-1.831-.332-2.993-1.514-4.999-.962m5.095 11.92c5.465 2.796 9.99 7.12 10.093 14.804.024 1.788-.07 3.6.385 5.19.328 1.145.967 2.316 1.634 3.365.769 1.209 1.726 2.43 1.346 4.038-.22.93-1.021 1.9-1.73 2.499-6.394 5.407-25.77 5.55-33.645 1.058C1.906 44.465.07 42.895.003 41.165c-.07-1.803 1.311-2.975 2.018-4.326.682-1.303 1.303-3.095 1.442-4.902.09-1.174-.052-2.311 0-3.365.35-7.02 4.18-10.785 8.748-13.554-1.437-2.65-2.148-6.12-2.403-10.286-.08-1.287-.15-2.87.576-3.46 1.682-1.368 3.834.564 6.152.289C18.15 1.369 19.181.16 20.67.022c1.677-.155 2.87.541 4.23.961 1.21.375 2.125.34 2.499 1.154.604 1.316-.21 5.003-.48 6.537-.403 2.281-.854 3.89-1.635 5.671" fill="#88B14B" fill-rule="evenodd"/></svg><svg width="29" height="37" viewBox="0 0 29 37" id="L1VzZXJzL3ZlYm1laGFuaWNhL0RvY3VtZW50cy9rb21iaWtvcm0vZnJvbnRlbmQvaW1nL3Nwcml0ZS9oZWFkZXIvbG9nby5zdmc=" x="160" y="115" xmlns="http://www.w3.org/2000/svg"><title>Fill 1</title><path d="M24.843 30.1c-.583.601-2.44 1.686-2.44.071 0-.655.398-.684.717-.933 1.686-1.315 1.608-3.378 1.508-5.744-.064-1.506.083-2.829-.215-4.092-.758-3.205-3.3-6.247-6.39-7.108-1.305-.364-3.515-.296-5.026-.216-3.142.167-5.197 1.626-6.677 3.59-1.089 1.444-1.902 3.503-2.01 5.672-.04.792.06 1.604 0 2.441-.138 1.891-.796 3.724-1.58 5.098-.356.624-1.014 1.056-1.005 1.795.021 1.706 3.407 2.68 5.17 3.087 4.528 1.045 10.739 1.002 15.148-.072 1.554-.378 5.29-1.215 5.241-3.087-.024-.944-1.094-1.39-1.364-2.298a4.76 4.76 0 0 1-1.077 1.795M15.08 1.812c-.871.24-1.537.97-2.585 1.077-1.29.132-2.116-.34-3.518-.575.046 2.443.463 5.125 1.15 6.964.215.58.408 1.644 1.363 1.22-.155-1.136-1.405-4.648.216-4.738 1.24-.068.91 1.499 1.077 2.585.127.833.38 1.47.502 2.01 1.446.004 2.494-.034 3.877 0 1.087-2.072 1.41-4.908 1.651-7.825-1.367-.248-2.235-1.13-3.733-.718m3.805 8.902c4.082 2.088 7.461 5.318 7.539 11.057.018 1.335-.053 2.689.287 3.877.245.855.722 1.729 1.22 2.513.575.902 1.29 1.815 1.006 3.015-.165.694-.763 1.419-1.293 1.867-4.775 4.039-19.247 4.145-25.128.79C1.423 33.21.052 32.037.002 30.745c-.053-1.346.98-2.222 1.507-3.23.51-.974.973-2.312 1.077-3.662.068-.877-.039-1.726 0-2.513.262-5.243 3.123-8.056 6.534-10.123-1.073-1.98-1.604-4.57-1.795-7.682-.06-.962-.112-2.144.43-2.585 1.257-1.021 2.864.421 4.596.216 1.204-.144 1.975-1.046 3.087-1.15 1.253-.116 2.144.405 3.159.718.904.28 1.588.254 1.867.862.451.983-.158 3.736-.36 4.882-.3 1.704-.637 2.906-1.22 4.236" fill="#88B14B" fill-rule="evenodd"/></svg><svg width="21" height="22" viewBox="0 0 21 22" id="L1VzZXJzL3ZlYm1laGFuaWNhL0RvY3VtZW50cy9rb21iaWtvcm0vZnJvbnRlbmQvaW1nL3Nwcml0ZS9oZWFkZXIvc2Vhcmguc3Zn" x="137" y="221" xmlns="http://www.w3.org/2000/svg"><title>Shape</title><path d="M16.919 15.091a9.363 9.363 0 0 0 1.914-5.674 9.417 9.417 0 1 0-4.194 7.834l3.512 3.513.555.555.154-.153c.523.138 1.101.009 1.51-.401.41-.41.54-.99.402-1.513l.154-.154-4.007-4.007zM1.83 9.416a7.586 7.586 0 1 1 15.171 0 7.586 7.586 0 0 1-15.171 0z" fill="#88B14B" fill-rule="evenodd"/></svg><svg width="21" height="24" viewBox="0 0 21 24" id="L1VzZXJzL3ZlYm1laGFuaWNhL0RvY3VtZW50cy9rb21iaWtvcm0vZnJvbnRlbmQvaW1nL3Nwcml0ZS9oZWFkZXIvcHJpY2Uuc3Zn" x="116" y="221" xmlns="http://www.w3.org/2000/svg"><title>Page 1</title><g transform="translate(1)" stroke="#88B14B" stroke-width="2" fill="none" fill-rule="evenodd"><g transform="translate(2.326 .616)"><path d="M7 16.83V0"/><path stroke-linejoin="round" d="M14 10l-6.998 6.773L0 10"/></g><path d="M18.66 18.375v2.096c0 1.152-1.476 2.096-3.28 2.096H3.28c-1.804 0-3.28-.944-3.28-2.096v-2.096" stroke-linejoin="round"/></g></svg></svg>