<svg width="26" height="23" viewBox="0 0 26 23" xmlns="http://www.w3.org/2000/svg"><title>cart</title><g fill="none" fill-rule="evenodd"><path d="M1.321 2.583l3.498-1.17c.64-.213 1.425.136 1.745.776L7.8 4.656l1.166 2.327 3.561 7.114c.32.64 1.099.966 1.73.725l9.347-3.571c.631-.242 1.112-1.034 1.069-1.763L24.42 5.24c-.043-.729-.621-1.255-1.285-1.17L8.63 5.92" stroke="#EF562D" stroke-width="1.8" stroke-linecap="round" stroke-linejoin="round"/><path d="M17.036 20.157c0 1.379-1.024 2.497-2.286 2.497s-2.286-1.118-2.286-2.497c0-1.38 1.024-2.497 2.286-2.497s2.286 1.118 2.286 2.497m7.085 0c0 1.379-1.023 2.497-2.285 2.497-1.263 0-2.286-1.118-2.286-2.497 0-1.38 1.023-2.497 2.286-2.497 1.262 0 2.285 1.118 2.285 2.497" fill="#EF562D"/></g></svg>