<svg width="18" height="23" viewBox="0 0 18 23" xmlns="http://www.w3.org/2000/svg" xmlns:xlink="http://www.w3.org/1999/xlink"><title>Rectangle 130</title><defs><path d="M22 674h18v23s-6.072-7.402-9-7.402c-3.072 0-9 7.402-9 7.402v-23z" id="a"/></defs><g transform="translate(-22 -674)" fill="none" fill-rule="evenodd"><use fill="#FFF" xlink:href="#a"/><path stroke="#FFF" d="M22.5 674.5v21.127l.097-.112a48.237 48.237 0 0 1 2.399-2.571 28.47 28.47 0 0 1 2.089-1.896c1.54-1.251 2.848-1.95 3.915-1.95 1.069 0 2.42.758 4.048 2.112a31.4 31.4 0 0 1 1.9 1.732 51.601 51.601 0 0 1 2.552 2.706V674.5h-17z"/></g></svg>