<svg width="48" height="49" viewBox="0 0 48 49" xmlns="http://www.w3.org/2000/svg"><title>Fill 1</title><path d="M22.3.944C22.836.106 23.747.086 24.321.9l1.257 1.78a1.711 1.711 0 0 0 2.467.369l1.471-1.15c.783-.611 1.677-.335 1.986.613l.7 2.146a1.831 1.831 0 0 0 2.28 1.179l1.737-.55c.944-.3 1.73.272 1.749 1.27l.039 2.211c.017.998.841 1.854 1.83 1.902l1.92.095c.988.048 1.559.868 1.267 1.822l-.606 1.987c-.292.954.22 2.04 1.139 2.414l1.954.795c.918.373 1.185 1.333.593 2.133l-1.16 1.57c-.593.8-.456 1.98.303 2.62l1.739 1.468c.759.64.7 1.607-.133 2.148l-1.62 1.052a1.842 1.842 0 0 0-.547 2.515l1.244 1.973c.53.842.175 1.708-.792 1.924l-1.979.442a1.749 1.749 0 0 0-1.31 2.15l.564 2.211c.247.967-.355 1.66-1.338 1.542l-2.16-.261a1.727 1.727 0 0 0-1.931 1.593l-.175 2.179c-.08.995-.876 1.458-1.77 1.03l-2.053-.984a1.761 1.761 0 0 0-2.37.873l-.871 1.933c-.41.909-1.33 1.087-2.044.396l-1.653-1.599a1.815 1.815 0 0 0-2.557.041l-1.47 1.516c-.693.714-1.632.574-2.088-.312l-1.038-2.016a1.849 1.849 0 0 0-2.445-.812l-1.91.944c-.89.44-1.734-.01-1.876-.997l-.317-2.205c-.143-.987-1.063-1.698-2.046-1.578l-2.115.257c-.983.12-1.634-.585-1.446-1.564l.413-2.162c.187-.98-.451-1.956-1.418-2.17l-2.054-.452c-.967-.213-1.357-1.097-.866-1.963l1.068-1.885c.49-.866.204-2.005-.638-2.53l-1.778-1.11c-.843-.524-.925-1.495-.184-2.158l1.558-1.39a1.932 1.932 0 0 0 .215-2.615l-1.334-1.659c-.624-.775-.385-1.722.53-2.104l1.832-.764c.915-.382 1.38-1.46 1.035-2.395l-.76-2.055c-.346-.935.18-1.74 1.17-1.789l1.9-.093A1.82 1.82 0 0 0 9.145 8.77l-.102-2.215c-.046-.997.69-1.572 1.636-1.278l1.836.57a1.718 1.718 0 0 0 2.18-1.22l.548-2.084c.254-.966 1.113-1.27 1.91-.678l1.634 1.217a1.667 1.667 0 0 0 2.426-.446L22.3.944z" fill="#EF562D" fill-rule="evenodd"/></svg>