<svg width="79" height="81" viewBox="0 0 79 81" xmlns="http://www.w3.org/2000/svg"><title>Fill 1</title><path d="M36.166 1.56c.897-1.384 2.414-1.417 3.37-.072l2.096 2.944a2.867 2.867 0 0 0 4.111.608l2.453-1.9c1.305-1.011 2.794-.555 3.31 1.013L52.671 7.7a3.057 3.057 0 0 0 3.8 1.949l2.895-.91c1.573-.494 2.885.45 2.915 2.099l.065 3.657c.029 1.649 1.401 3.064 3.05 3.144l3.198.156c1.648.08 2.6 1.436 2.114 3.013l-1.011 3.284c-.486 1.577.368 3.372 1.899 3.99l3.257 1.314c1.53.617 1.975 2.204.987 3.527l-1.933 2.594c-.987 1.323-.76 3.273.505 4.33l2.898 2.429c1.265 1.058 1.166 2.657-.222 3.55l-2.698 1.74a3.03 3.03 0 0 0-.913 4.157l2.074 3.262c.884 1.392.29 2.823-1.32 3.18l-3.299.73a2.89 2.89 0 0 0-2.182 3.556l.94 3.654c.412 1.598-.594 2.745-2.231 2.549l-3.598-.432a2.872 2.872 0 0 0-3.22 2.634l-.292 3.6c-.133 1.646-1.46 2.412-2.95 1.704l-3.422-1.626a2.946 2.946 0 0 0-3.95 1.443l-1.451 3.195c-.683 1.502-2.215 1.797-3.407.655l-2.755-2.643a3.043 3.043 0 0 0-4.261.068l-2.452 2.506c-1.154 1.18-2.72.948-3.478-.517l-1.73-3.332c-.76-1.465-2.595-2.07-4.076-1.343l-3.184 1.56c-1.483.728-2.889-.014-3.126-1.647l-.529-3.645c-.236-1.632-1.77-2.806-3.409-2.61l-3.526.427c-1.637.197-2.723-.967-2.41-2.586l.688-3.574c.313-1.62-.75-3.234-2.362-3.586l-3.424-.748c-1.611-.353-2.262-1.813-1.443-3.246l1.78-3.116c.819-1.431.34-3.314-1.063-4.182L1.446 45.78c-1.403-.868-1.54-2.473-.305-3.568l2.596-2.3c1.236-1.095 1.396-3.038.357-4.321l-2.223-2.742C.834 31.567 1.23 30 2.756 29.37l3.053-1.264c1.524-.631 2.3-2.413 1.724-3.96l-1.266-3.395c-.575-1.546.301-2.877 1.95-2.958l3.168-.154a3.017 3.017 0 0 0 2.857-3.143l-.171-3.661c-.078-1.648 1.15-2.6 2.727-2.113l3.06.943a2.865 2.865 0 0 0 3.634-2.017l.913-3.445c.422-1.596 1.854-2.1 3.181-1.12l2.724 2.01a2.793 2.793 0 0 0 4.044-.736l1.813-2.797z" fill="#88B14B" fill-rule="evenodd"/></svg>