<svg width="47" height="48" viewBox="0 0 47 48" xmlns="http://www.w3.org/2000/svg"><title>Fill 1</title><path d="M21.516.925c.534-.82 1.436-.84 2.006-.043l1.246 1.744a1.71 1.71 0 0 0 2.446.36l1.46-1.125c.776-.6 1.662-.33 1.969.6l.694 2.102a1.82 1.82 0 0 0 2.26 1.155l1.722-.54c.936-.292 1.717.267 1.735 1.244l.038 2.167c.017.978.834 1.816 1.815 1.864l1.903.092c.98.047 1.546.85 1.257 1.785l-.601 1.947c-.29.934.219 1.998 1.13 2.364l1.937.779c.91.365 1.175 1.306.588 2.09l-1.15 1.537a1.903 1.903 0 0 0 .3 2.566l1.724 1.44c.753.626.694 1.574-.132 2.104l-1.605 1.03a1.792 1.792 0 0 0-.543 2.463l1.233 1.933c.527.825.173 1.673-.785 1.885l-1.962.433a1.712 1.712 0 0 0-1.298 2.107l.558 2.165c.246.947-.352 1.627-1.327 1.51l-2.14-.255a1.707 1.707 0 0 0-1.916 1.56l-.173 2.134c-.08.975-.87 1.43-1.756 1.01l-2.036-.964a1.755 1.755 0 0 0-2.35.855l-.863 1.894c-.406.89-1.318 1.064-2.026.388l-1.64-1.567a1.816 1.816 0 0 0-2.535.04l-1.458 1.486c-.687.699-1.619.562-2.07-.307l-1.03-1.974a1.844 1.844 0 0 0-2.424-.796l-1.895.925c-.881.43-1.718-.009-1.859-.977l-.314-2.16A1.842 1.842 0 0 0 9.62 40.43l-2.097.253c-.975.117-1.62-.573-1.434-1.533l.41-2.118a1.837 1.837 0 0 0-1.406-2.125l-2.037-.443c-.96-.209-1.346-1.074-.859-1.923l1.06-1.847a1.856 1.856 0 0 0-.633-2.478L.861 27.129c-.836-.515-.917-1.466-.182-2.115l1.545-1.363c.734-.649.83-1.8.212-2.56l-1.323-1.625c-.618-.76-.382-1.688.526-2.061l1.816-.75a1.86 1.86 0 0 0 1.026-2.345l-.753-2.013c-.343-.916.18-1.705 1.16-1.753l1.885-.09a1.79 1.79 0 0 0 1.7-1.863L8.37 6.42c-.045-.976.685-1.54 1.623-1.252l1.82.559a1.706 1.706 0 0 0 2.163-1.195l.543-2.042c.251-.946 1.103-1.244 1.893-.664l1.62 1.192c.79.58 1.873.385 2.406-.437L21.516.925z" fill="#88B14B" fill-rule="evenodd"/></svg>