<svg width="21" height="25" viewBox="0 0 21 25" xmlns="http://www.w3.org/2000/svg"><title>Page 1</title><path d="M12.986 7.8c2.59 1.326 4.736 3.375 4.785 7.018.011.848-.034 1.707.182 2.461.155.543.458 1.098.775 1.595.364.573.818 1.152.638 1.914-.104.44-.484.9-.82 1.185-3.031 2.563-12.217 2.631-15.95.501-.693-.395-1.563-1.14-1.595-1.96-.033-.854.622-1.41.957-2.05.324-.618.618-1.467.684-2.324.043-.557-.025-1.096 0-1.595.165-3.328 1.981-5.113 4.147-6.425-.682-1.257-1.019-2.902-1.14-4.876-.037-.61-.07-1.36.274-1.641.797-.648 1.817.267 2.916.137.765-.091 1.254-.664 1.96-.73.795-.073 1.36.257 2.005.456.574.178 1.008.162 1.184.547.287.624-.1 2.372-.227 3.099-.19 1.081-.405 1.844-.775 2.689z" stroke="#EF562D" stroke-width="2" fill="none"/></svg>