<svg width="24" height="23" viewBox="0 0 24 23" xmlns="http://www.w3.org/2000/svg"><title>Fill 1</title><path d="M1.957 21.415c1.326-.862 2.367-2.294 3.053-3.61-1.11 1.076-2.524 2.14-3.053 3.61m16.524-6.68c1.154.342 2.632 1.296 4.035.7-.412-1.086-2.733-.853-4.035-.7m-10.307.861c1.835-.629 3.73-1.2 5.835-1.562-1.216-1.133-2.348-2.35-3.218-3.825-.743 1.923-1.71 3.626-2.617 5.387m2.835-9.913c.577-1.085.84-3.755-.272-4.472-.32 1.345-.18 3.38.272 4.472M7.52 16.889c-1.062 1.484-2.205 3.762-3.708 4.957-.358.285-.933.604-1.418.647-.767.067-1.682-.335-1.854-.808-.243-.667.344-1.567.818-2.102.582-.658 1.339-1.188 2.072-1.67.776-.51 1.786-.794 2.4-1.347.436-.393.73-1.163 1.145-1.94.75-1.406 1.382-2.656 2.072-4.094.298-.621.888-1.554.927-2.101.05-.696-.434-1.661-.6-2.479-.19-.938-.335-1.865-.381-2.694C8.927 2.1 9.012.805 10.137.564c3.132-.67 1.977 4.068 1.69 5.927-.07.46-.246.962-.218 1.347.055.744.798 1.889 1.255 2.586.765 1.168 1.492 2 2.563 2.694.246.16.583.436.872.485.59.1 1.416-.172 2.127-.216 1.613-.099 4.279-.106 4.745 1.024.237.576.06 1.644-.328 2.047-.796.83-2.885.185-3.871-.107-.603-.179-1.234-.358-1.8-.593-.513-.212-1.122-.702-1.582-.754-.61-.07-1.466.243-2.127.377-2.212.448-3.92.828-5.944 1.508" stroke="#EF562D" stroke-width=".5" fill="#EF562D" fill-rule="evenodd"/></svg>