<svg width="16" height="20" viewBox="0 0 16 20" xmlns="http://www.w3.org/2000/svg"><title>Fill 1 Copy 3</title><path d="M10.18 5.727c2.2 1.115 4.023 2.842 4.065 5.91.01.713-.029 1.436.155 2.071.131.457.39.924.658 1.343.31.483.695.97.542 1.611-.089.372-.411.76-.697.998-2.574 2.16-10.377 2.216-13.548.423-.588-.333-1.327-.96-1.354-1.65-.028-.72.528-1.188.813-1.727.274-.52.524-1.236.58-1.957.037-.47-.021-.922 0-1.343.141-2.803 1.684-4.306 3.523-5.411-.58-1.058-.865-2.443-.968-4.106-.032-.513-.06-1.145.232-1.381.677-.546 1.544.225 2.477.115C7.308.547 7.723.065 8.322.01c.676-.062 1.157.216 1.703.384.489.15.857.136 1.007.46.243.526-.085 1.997-.193 2.61-.162.91-.344 1.553-.658 2.264" fill="#EF562D" fill-rule="evenodd"/></svg>