<svg width="80" height="64" viewBox="0 0 80 64" xmlns="http://www.w3.org/2000/svg"><title>Fill 1</title><path d="M16.138.346c-1.388 1.682-3.658 2.51-4.16 5.04 3.006-.934 5.464-3.901 9.948-3.997-1.04 2.027-4.284 2.296-5.608 4.17-3.304 4.68 4.726 8.47 9.951 8.515 3.733.03 7.892-.33 11.94.695 2.71.685 5.561 1.773 8.322 1.911 5.405.272 10.536-2.262 16.464-1.564 2.025.239 3.835 1.95 5.788 1.911 2.207-.041 4.193-3.073 7.055-2.085 2.198.903 3.32 2.836 4.162 5.04-1.328.029-2.016-2.062-3.8-2.434-2.205-.46-4.348.431-6.331.87-.864 3.593 2.99 6.962 3.257 11.294.164 2.696-.58 5.377-.362 7.82.168 1.873 1.09 3.537 1.266 5.213.224 2.134-.561 4.969-.362 7.471.208 2.598 1.415 9.088-3.618 6.95-.729-1.445.334-2.85.542-4.517.605-4.85-.053-11.18-2.17-14.076-.608-.83-2.079-2.25-3.437-1.389-.468 1.295.628 2.417.722 3.823.124 1.849-.976 4.218-1.085 6.602-.098 2.167.006 4.18-.904 5.91-1.05-.035-2.342.162-2.894-.35-.82-1.544.97-2.85 1.266-4.343.662-3.355-.72-6.823-.904-9.904-3.55-1.333-8.367.335-13.209.347-2.65.005-5.037-.607-7.597-.696-3.841 5.706-2.7 16.012-2.534 23.459-.549 1.356-2.547 2.059-4.16 1.39-.289-2.508 1.117-3.9 1.266-6.083.183-2.655-1.52-4.75-1.627-7.123-.04-.87.5-1.625.541-2.433.109-1.986-.855-3.605-1.084-5.56-2.697 4.1-.342 10.953-1.447 15.812-.637.694-2.301 1.225-3.618.695-.506-2.03.942-3.351 1.265-5.56.305-2.083-.826-3.966-.904-6.082-.077-2.061 1.175-4.439.181-6.95-.768-1.94-2.937-2.817-3.98-4.344-1.434-5.9-3.394-11.663-8.502-14.423-1.501-.81-3.907-1.563-5.61-1.563-3.071 0-9.465 3.944-10.13-.347-.393-2.534 2.445-4.648 3.436-6.43.767-1.377 1.266-2.896 2.173-4.517.584-1.052 1.753-2.109 2.532-3.128 2.26-2.961 3.154-4.44 7.418-5.213.153-.032.17.067.18.173h.362z" fill="#88B14B" fill-rule="evenodd"/></svg>