<svg width="80" height="43" viewBox="0 0 80 43" xmlns="http://www.w3.org/2000/svg"><title>Fill 1</title><path d="M79.888 12.14c.535 1.327-1.078 2.365 0 2.826-2.164.34-.402-1.571-.781-2.074-2.537.813-1.593 5.525-2.544 8.48-1.034 3.224-3.28 4.466-.78 7.535.562.692 1.567 1.057 1.76 1.884.377 1.616-1.023 4.02-.783 6.028.097.804.615 1.218.587 2.26-.362.406-.573.957-1.563.755v1.696c-1.465.05-2.764.99-4.107.564.008-2.29 1.996-3.958 1.956-6.217-.052-2.917-2.45-5.19-4.888-6.406-.67 2.559-3.053 4.924-3.715 8.101-.692.611-.688-.591-1.565-.378-.697.523-.843 1.574-1.172 2.45-1.319.015-2.68.071-3.519-.376 1.063-3.324 5.15-4.15 4.3-8.477-.412-2.101-3.033-2.637-2.932-5.464-2.423.478-4.054 2.083-6.842 2.45-1.97.257-3.374-.643-5.475-.942-2.76-.396-7.526-.599-9.971 0-4.773 1.168-1.047 8.708-2.15 13.187-.437.424-.98-.013-1.369-.188-.117.702.501 1.19 0 1.696-.843.567-2.525.33-3.909.376 1.021-2.091 3.45-6.483.586-8.855-.994 1.113-.54 3.624-.976 5.276-.705.34-.578-.035-1.174-.19-.505.395-.717 1.07-.586 2.073-1.347-.144-1.979-.144-3.325 0 2.784-2.931 2.967-7.157 1.76-11.869-2.712-.352-5.733-2.068-8.406-2.448-1.632-.233-3.092.096-4.498 0-5.432-.376-9.428-3.878-13.49-5.84-.306-1.576-.602-3.307.196-4.523 3.794.976 6.61-1.8 8.212-4.144-1.13-2.805-2.167-5.7-3.91-7.913 2.571-.343 3.81.599 5.474 1.13.216-1.213-.72-1.316-.587-2.448 2.724-.523 3.394 2.912 5.67 3.202 1.329.17 3.737-1.306 6.06-1.694 3.66-.615 8.361-.703 12.318-.943 3.883-.237 7.087-1.411 10.361-1.695C50.031.51 54.22-.075 60.533.27c7.714.423 15.622 4.678 17.596 11.115.557.279 1.54.149 1.759.754" fill="#88B14B" fill-rule="evenodd"/></svg>