<svg width="80" height="69" viewBox="0 0 80 69" xmlns="http://www.w3.org/2000/svg"><title>Page 1</title><path d="M28.66 51.589c-.569-2.659.04-5.608 2.443-7.029-.95-.581-1.844-1.215-2.443-2.13.072-4.048 2.192-6.133 3.997-8.52-.54-1.5.083-2.999.668-4.047-3.63 2.166-8.435 3.63-14.22 2.555.153-1.06 1.445-1.027 2.445-1.277-.98-.296-3.052.194-4.666 0 .127-.872 1.568-.483 2.222-.853-.923-.605-3.358.239-3.999-.637.188-.814 1.332-.713 2-1.066-1.058-.903-3.552-.43-3.778-2.13-.019-1.295 1.977-.661 2.89-1.065-2.02-3.033-7.702-2.557-10.889-4.474.163-.198.405-.323.668-.427-.336-.389-.96-.5-1.334-.851-.039-.464.182-.678.666-.639-1.169-.754-.655-1.802-1.999-2.343-.196-.684.733-.292.668-.852C2.446 15.163.606 14.796 0 13.25c.092-.763.708-1.026 1.554-1.065-.285-.721-1.382-.664-1.333-1.705.26-1.1 1.708-1.06 3.11-1.065-1.618-.326-3.046-3.037-.666-3.62C2.3 5.278 2.1 4.76 2.443 4.09c.583-.436 1.3-.742 2.444-.639.023-.946-.622-1.25-.445-2.343C5.268.76 6.628.93 7.775.894c3.77 2.355 7.07 5.003 11.11 8.095 3.154 2.414 7.638 6.64 11.995 7.24 9.511 1.312 18.17-3.19 28.885-1.915.374.044.933-.035 1.33 0 5.745.497 9.326 4.54 12.444 0-.953-4.981-7.071-5.008-6.445-11.504.857-2.058 3.938-3.633 6.89-2.341 1.366 1.67 3.547 2.56 4.664 4.473-2.18 1.089-.124 4.17-.888 6.177-1.995-.97.125-4.685-1.111-6.177-.69-.023-1.063.26-1.556.424.25 1.078.487 3.073-.221 3.836 2.23 3.54 3.7 7.811 5.11 12.14.046.897-.996.752-1.334 1.278.078 3.16 1.532 5.618 1.333 8.308-.225 3.048-2.35 7.954-4.888 10.01-3.095 2.51-9.437 4.857-14.219 5.539-1.841.263-3.518.188-5.332 0-3.309 5.372-1.412 14.666 1.11 19.81 2.542.546 4.772 1.39 7.332 1.917-2.786.398-6.433-.222-9.553-.213-.424-.374-.797-.798-.888-1.49-.544.613-1.738.605-2.223 1.277-.469-1.237 1.465-2.001 2-2.982-.17-5.73-2.31-9.573-2.442-15.337-1.758.73-2.769 2.176-4.668 2.77 1.247 2.52 5.116 4.298 4.668 8.093-.238 2.009-1.965 4.19-4.002 5.112.163-.485.199-1.087.447-1.49-.217-.527-.854.293-1.556 0 .675-1.927 2.789-3.458 1.776-5.752-.819-.063-1.142 1.446-1.555 1.065 1.718-2.223.128-4.288-1.11-5.965-1.545.437-2.518 1.421-3.777 2.132-.713-.168-.97-.774-1.556-1.065-.843.042-.843.895-1.777.852-1.335-.194-2.018-1.716-.888-2.557-1.705-.663-3.942 2.623-5.111 0-.545.242-1.23 1.057-1.777.638-.73-1.57 1.122-2.481-1.332-1.703" fill="#88B14B" fill-rule="evenodd"/></svg>