<svg width="59" height="73" viewBox="0 0 59 73" xmlns="http://www.w3.org/2000/svg"><title>Fill 1</title><path d="M31.2 70.428c.105.027.212.057.32.09a7.68 7.68 0 0 1-.32-.09m-1.542-5.663h4.096c1.542-1.456 2.324-4.577 2.235-7.01-.035-.118-.122-.186-.28-.186a.808.808 0 0 0-.093.007c-1.943 2.437-5.467 3.35-5.958 7.19M8.006.406c.518 0 .43.584.423 1.09.615-.04.191-1.083.85-1.083.025 0 .052.002.081.005v1.258c.069.074.134.104.198.104.15 0 .293-.167.467-.333.172-.168.375-.334.644-.334.058 0 .118.007.18.024-.19.782.385.827.56 1.258-.037.924-1.202.758-1.49 1.438 1.714 1.175 3.846 1.764 5.4 3.235 4.294 4.063 5.213 11.06 9.312 14.56.724.618 2.484.8 4.396.8 1.734 0 3.591-.15 4.914-.262 3.956-.333 6.225-2.378 7.635-4.852a13.783 13.783 0 0 0-.187-3.056c-.078-.615.559-.54.746-.899.4-4.886 1.766-8.84 6.704-9.346.532.384 1.055.778 1.117 1.617h2.235c1.417 2.467 3.969 3.838 5.214 6.47-.232 1.296-.997 1.592.559 1.618.154 1.586-.508 2.385-.931 3.416 1.512 1.053-.06 2.384-.187 3.235-.197 1.325.327 2.514.932 3.595-.244 1.22-.174 2.82.372 3.775-.438 1.073-1.111 1.923-2.42 2.156 1.66 5.377-5.033 6.595-1.863 10.066.351 9.684-5.29 13.586-11.546 16.895-.09.003-.181.005-.27.005-.578 0-1.102-.054-1.627-.107a15.468 15.468 0 0 0-1.637-.108c-.239 0-.488.009-.75.03-.607 3.652.583 6.138 3.912 6.47-.264.147-.578.204-.907.204-.773 0-1.625-.32-2.074-.563.004 2.335.89 3.815 1.304 5.752-1.42-.366-1.195-2.32-2.42-2.876-3.348.483-4.381 3.2-8.194 3.236.63-1.85 3.572-1.465 4.469-3.056-.96-.752-3.36-.112-4.469-.72-1.397 2.495-1.036 4.514 1.543 5.304a6.487 6.487 0 0 0-1.61-.215c-2.219 0-3.628 1.33-4.774 2.46-.31-.239-.062-1.017-.373-1.257-1.5-.069-2.866-.13-4.243-.13-1.04 0-2.087.034-3.206.13.995-1.437 3.508-1.407 5.96-1.438-.274-.694-1.33-.636-2.05-.899a1.17 1.17 0 0 1 .946-.432c.381 0 .804.128 1.27.257.466.13.972.259 1.52.259.237 0 .482-.025.735-.084.911-1.703 4.405-5.864 3.91-8.267-.339-1.644-2.495-1.197-3.724-2.337-1.763-5.609-7.848-7.045-11.919-10.426h-2.421c-2.202-2.25-5.228-4.515-6.145-7.548-1.09-3.607.619-8.119.931-12.582.136-1.949 1.084-3.385 1.49-5.212.33-1.49.055-2.969.186-4.314.173-1.782 1.114-3.813.186-5.393a1.598 1.598 0 0 0-.095-.003c-.444 0-.654.226-.863.452-.21.225-.419.45-.86.45h-.044c-2.157-.233-3.16-2.327-2.235-4.494-.065-.235-.327-.282-.372-.538-.947.014-1.517.392-2.479.392-.156 0-.322-.01-.501-.033.04-1.4 1.676-1.26 1.303-3.056.093.012.177.019.257.019.292 0 .504-.08.675-.198-.248-1.392.05-2.18 1.303-2.517-.206-.34-.237-.849-.372-1.258.25.117.447.17.604.17.528 0 .597-.591.7-1.248a.768.768 0 0 1 .113-.009c.46 0 .41.498.818.548.502-.212-.001-.936 0-1.258.87.059.805 1.02 1.676 1.078.266-.221.352-.617.372-1.078a.917.917 0 0 1 .136-.012" fill="#88B14B" fill-rule="evenodd"/></svg>