<svg width="80" height="64" viewBox="0 0 80 64" xmlns="http://www.w3.org/2000/svg"><title>Fill 1 Copy 2</title><path d="M75.193 16.765c.287-2.392.413-6.303-1.346-6.63 1.402 1.175.721 5.324 1.346 6.63m2.5 18.969c.335.845.602 1.755 1.346 2.209-.683.218-1.13-1.37-1.73-1.841-.347.644.753 1.482 1.152 2.025.196.385-.902-.902-1.345-1.104.596 1.7 1.718 2.896 2.884 4.05-1.906-.96-3.634-3.397-4.038-6.445-.272-2.046-.196-3.693-1.154-4.972-.774 1.919-1.373 3.122-1.153 5.156.149 1.388 1.629 2.778 1.538 4.052-.077 1.074-1.756 2.82-2.309 4.42-1.109 3.214-1.795 6.017-.576 9.944-1.514 1.066-2.867 2.288-2.5 5.156-1.317 1.1-4.574 1.545-6.154.369.101-2.42 2.173-2.953 3.077-4.604.525-4.149 2.706-8.837 2.115-14.365-.128-1.204-.672-2.247-.769-3.314-1.164 1.402-3.43 1.748-3.27 4.42-1.043-.01-1.162-1.372-2.307-.737-.954-.177-.323 1.164-.769 1.473-.91.073-.417-1.197-1.154-1.289-.551.147-.121 1.235-.961 1.105-.517-2.145-3.14-2.272-4.616-3.5-3.633 1.367-7.556 3.244-12.884 2.395.9 3.768 1.584 7.513 2.692 11.234.423 1.418 1.664 4.138 1.538 5.156-.106.872-1.255 1.233-1.538 2.026-.605 1.698.164 3.208-.77 4.604-2.32.525-5.685 1.024-6.922-.737 1.583-3.313 4.737-4.336 4.038-9.023-.686-4.6-4.636-8.653-6.154-12.339-1.384.577-2.762 1.16-4.808 1.105-.89 3.557-1.837 10.325 0 13.627-1.027.183-1.537.86-2.115 1.474.846.928.416 2.187 0 3.314-1.871.54-4.257 1.032-6.346.369.25-2.34 1.98-3.26 2.885-4.972.167-3.571 1.12-6.85.77-10.13-.116-1.077-.696-2.104-.77-3.13-.066-.912.42-1.88.192-2.762-.182-.701-1.151-1.144-1.73-1.842-1.654-1.986-2.977-5.696-4.424-7.734-2.022-2.847-5.224-5.2-6.346-9.024-2.122.067-3.842-.25-4.808-1.288-1.788.907-3.755-.199-5.192-.737-1.12-3.375 1.225-4.942 2.308-6.814C2.87 12.299.714 12.276 0 10.872c.551-2.418 3.674-2.375 6.154-2.946C3.066 7.51-.422 2.59 3.077.376c-.34 2.405.634 4.294 2.885 4.419.498.028 1.051-.448 1.73-.552 2.473-.38 5.89.546 7.885-.368-.242-2.163-2.808-2.1-3.461-3.868 3.463-.118 7.024 1.249 6.538 5.525-.48.828-1.34 1.295-1.73 2.21 2.168.367 5.393-.563 7.115 1.289.1.772-.336 1.028-.385 1.657 4.136.09 12.296-.257 18.077 0 2.985.133 5.625.097 8.654-.184 5.501-.51 10.293-2.715 16.346-3.13 4.107-.283 8.63 1.045 9.423 3.866.602 2.14.08 6.52-.192 8.656-.454 3.555 1.007 6.37 1.346 8.84.285 2.079-.498 3.717 0 5.34.438 1.43 1.57 2.135 2.115 3.683-.068.258-.338.016-.384-.184-.59-.478-.568-1.543-1.346-1.841" fill="#88B14B" fill-rule="evenodd"/></svg>