<svg width="39" height="49" viewBox="0 0 39 49" xmlns="http://www.w3.org/2000/svg"><title>Fill 1</title><path d="M33.263 40.3c-.782.806-3.269 2.259-3.269.096 0-.878.534-.916.962-1.25 2.256-1.76 2.152-4.523 2.018-7.69-.085-2.017.112-3.787-.288-5.48-1.014-4.29-4.417-8.363-8.555-9.516-1.748-.487-4.706-.396-6.73-.288-4.206.223-6.957 2.176-8.94 4.806-1.457 1.934-2.546 4.69-2.691 7.594-.053 1.06.082 2.147 0 3.268-.184 2.533-1.066 4.987-2.115 6.825-.477.837-1.358 1.416-1.345 2.404.028 2.284 4.562 3.589 6.92 4.133 6.064 1.4 14.38 1.342 20.284-.096 2.08-.506 7.083-1.626 7.017-4.133-.033-1.264-1.465-1.86-1.826-3.076-.265.768-.69 1.628-1.442 2.403M20.189 2.425c-1.166.322-2.057 1.299-3.46 1.442-1.729.178-2.834-.453-4.71-.769.06 3.271.618 6.862 1.538 9.325.289.775.547 2.2 1.826 1.634-.209-1.522-1.881-6.224.289-6.345 1.66-.091 1.219 2.007 1.441 3.461.17 1.115.51 1.969.673 2.691 1.936.006 3.339-.046 5.19 0 1.457-2.773 1.89-6.57 2.212-10.477-1.831-.332-2.993-1.514-4.999-.962m5.095 11.92c5.465 2.796 9.99 7.12 10.093 14.804.024 1.788-.07 3.6.385 5.19.328 1.145.967 2.316 1.634 3.365.769 1.209 1.726 2.43 1.346 4.038-.22.93-1.021 1.9-1.73 2.499-6.394 5.407-25.77 5.55-33.645 1.058C1.906 44.465.07 42.895.003 41.165c-.07-1.803 1.311-2.975 2.018-4.326.682-1.303 1.303-3.095 1.442-4.902.09-1.174-.052-2.311 0-3.365.35-7.02 4.18-10.785 8.748-13.554-1.437-2.65-2.148-6.12-2.403-10.286-.08-1.287-.15-2.87.576-3.46 1.682-1.368 3.834.564 6.152.289C18.15 1.369 19.181.16 20.67.022c1.677-.155 2.87.541 4.23.961 1.21.375 2.125.34 2.499 1.154.604 1.316-.21 5.003-.48 6.537-.403 2.281-.854 3.89-1.635 5.671" fill="#88B14B" fill-rule="evenodd"/></svg>