<svg width="29" height="37" viewBox="0 0 29 37" xmlns="http://www.w3.org/2000/svg"><title>Fill 1</title><path d="M24.843 30.1c-.583.601-2.44 1.686-2.44.071 0-.655.398-.684.717-.933 1.686-1.315 1.608-3.378 1.508-5.744-.064-1.506.083-2.829-.215-4.092-.758-3.205-3.3-6.247-6.39-7.108-1.305-.364-3.515-.296-5.026-.216-3.142.167-5.197 1.626-6.677 3.59-1.089 1.444-1.902 3.503-2.01 5.672-.04.792.06 1.604 0 2.441-.138 1.891-.796 3.724-1.58 5.098-.356.624-1.014 1.056-1.005 1.795.021 1.706 3.407 2.68 5.17 3.087 4.528 1.045 10.739 1.002 15.148-.072 1.554-.378 5.29-1.215 5.241-3.087-.024-.944-1.094-1.39-1.364-2.298a4.76 4.76 0 0 1-1.077 1.795M15.08 1.812c-.871.24-1.537.97-2.585 1.077-1.29.132-2.116-.34-3.518-.575.046 2.443.463 5.125 1.15 6.964.215.58.408 1.644 1.363 1.22-.155-1.136-1.405-4.648.216-4.738 1.24-.068.91 1.499 1.077 2.585.127.833.38 1.47.502 2.01 1.446.004 2.494-.034 3.877 0 1.087-2.072 1.41-4.908 1.651-7.825-1.367-.248-2.235-1.13-3.733-.718m3.805 8.902c4.082 2.088 7.461 5.318 7.539 11.057.018 1.335-.053 2.689.287 3.877.245.855.722 1.729 1.22 2.513.575.902 1.29 1.815 1.006 3.015-.165.694-.763 1.419-1.293 1.867-4.775 4.039-19.247 4.145-25.128.79C1.423 33.21.052 32.037.002 30.745c-.053-1.346.98-2.222 1.507-3.23.51-.974.973-2.312 1.077-3.662.068-.877-.039-1.726 0-2.513.262-5.243 3.123-8.056 6.534-10.123-1.073-1.98-1.604-4.57-1.795-7.682-.06-.962-.112-2.144.43-2.585 1.257-1.021 2.864.421 4.596.216 1.204-.144 1.975-1.046 3.087-1.15 1.253-.116 2.144.405 3.159.718.904.28 1.588.254 1.867.862.451.983-.158 3.736-.36 4.882-.3 1.704-.637 2.906-1.22 4.236" fill="#88B14B" fill-rule="evenodd"/></svg>