<?xml version="1.0" encoding="UTF-8" standalone="no"?>
<svg width="42px" height="42px" viewBox="0 0 42 42" version="1.1" xmlns="http://www.w3.org/2000/svg" xmlns:xlink="http://www.w3.org/1999/xlink">
    <!-- Generator: Sketch 45.2 (43514) - http://www.bohemiancoding.com/sketch -->
    <title>Group 4</title>
    <desc>Created with Sketch.</desc>
    <defs></defs>
    <g id="Symbols" stroke="none" stroke-width="1" fill="none" fill-rule="evenodd">
        <g id="footer_320" transform="translate(-130.000000, -639.000000)">
            <g id="Group-2">
                <g id="Group-15" transform="translate(21.000000, 48.000000)">
                    <g id="Group-7" transform="translate(0.000000, 554.000000)">
                        <g id="Page-1" transform="translate(1.000000, 38.000000)">
                            <g id="Group-4" transform="translate(109.000000, 0.000000)">
                                <path d="M17.8820143,20.096549 C17.9348344,20.1632157 17.9048767,20.6220392 17.9048767,20.7075294 L17.9072418,30.3898824 L22.1273317,30.3898824 C22.1517709,27.8416471 22.1281201,25.2259608 22.1281201,22.6651765 C22.1281201,22.629098 22.1194481,20.1851765 22.1312735,20.1341961 C22.1391571,20.1012549 22.1399455,20.1051765 22.1486175,20.0910588 C22.1549243,20.0918431 24.8329825,20.1130196 24.9267974,20.0902745 L24.9733106,20.0769412 L25.3438397,16.5428235 L22.1407339,16.5428235 C22.1289085,16.0204706 22.1438873,15.484 22.1438873,14.9608627 C22.1446757,14.4832157 22.1336386,13.8926275 22.4198132,13.6306667 L25.3272841,13.3396863 L25.322554,9.79458824 C24.7722788,9.76164706 24.1195169,9.79145098 23.5574164,9.79145098 C22.9740302,9.79145098 22.381972,9.77968627 21.8072577,9.81811765 C20.7122259,9.8894902 19.8284746,10.2141961 19.1875381,10.7569412 C18.2612153,12.2353725 17.9025116,10.9647843 17.8962048,16.5443922 L15.7747286,16.5451765 L15.7794587,20.0949804 L17.8820143,20.096549 Z" id="Fill-9" fill="#FFFFFF"></path>
                                <path d="M39.9684656,19.8698039 C39.9684656,30.8431373 31.0261005,39.7388235 19.9969471,39.7388235 C8.96621693,39.7388235 0.0246402116,30.8431373 0.0246402116,19.8698039 C0.0246402116,8.89568627 8.96621693,0 19.9969471,0 C31.0261005,0 39.9684656,8.89568627 39.9684656,19.8698039 L39.9684656,19.8698039 Z" id="Stroke-11" stroke="#FFFFFF" stroke-width="2"></path>
                            </g>
                        </g>
                    </g>
                </g>
            </g>
        </g>
    </g>
</svg>