<?xml version="1.0" encoding="UTF-8" standalone="no"?>
<svg width="43px" height="42px" viewBox="0 0 43 42" version="1.1" xmlns="http://www.w3.org/2000/svg" xmlns:xlink="http://www.w3.org/1999/xlink">
    <!-- Generator: Sketch 45.2 (43514) - http://www.bohemiancoding.com/sketch -->
    <title>Group 3</title>
    <desc>Created with Sketch.</desc>
    <defs></defs>
    <g id="Symbols" stroke="none" stroke-width="1" fill="none" fill-rule="evenodd">
        <g id="footer_320" transform="translate(-75.000000, -639.000000)">
            <g id="Group-2">
                <g id="Group-15" transform="translate(21.000000, 48.000000)">
                    <g id="Group-7" transform="translate(0.000000, 554.000000)">
                        <g id="Page-1" transform="translate(1.000000, 38.000000)">
                            <g id="Group-3" transform="translate(54.000000, 0.000000)">
                                <path d="M18.2665767,25.6878431 L21.1117672,25.6878431 C22.0743545,25.6878431 22.7507672,25.505098 23.142582,25.1341176 C23.5375503,24.7631373 23.7346402,24.265098 23.7346402,23.6384314 C23.7346402,23.0572549 23.5414921,22.5905882 23.1504656,22.2376471 C22.7594392,21.8847059 22.0790847,21.7066667 21.0999418,21.7066667 L18.2665767,21.7066667 L18.2665767,25.6878431 Z M18.2665767,17.9678431 L20.6915714,17.9678431 C21.5619206,17.9678431 22.1665926,17.8031373 22.5118942,17.4784314 C22.8516772,17.1490196 23.0195979,16.6776471 23.0195979,16.0643137 C23.0195979,15.492549 22.8516772,15.0447059 22.5118942,14.7239216 C22.1665926,14.3984314 21.573746,14.2384314 20.7294127,14.2384314 L18.2665767,14.2384314 L18.2665767,17.9678431 Z M12.6400529,10.2572549 L23.0826667,10.2572549 C24.8225767,10.2572549 26.1596349,10.7294118 27.0875344,11.6666667 C28.0209524,12.6047059 28.4876614,13.7670588 28.4876614,15.1490196 C28.4876614,16.3113725 28.1557619,17.3090196 27.4911746,18.1419608 C27.0465397,18.6956863 26.3985079,19.134902 25.5447143,19.4556863 C26.8399894,19.7937255 27.7946931,20.3788235 28.4072487,21.2031373 C29.0174392,22.0321569 29.3233228,23.0705882 29.3233228,24.32 C29.3233228,25.3403922 29.1049471,26.2556863 28.6721376,27.0698039 C28.2353862,27.8847059 27.6425397,28.5247059 26.8865026,29.0015686 C26.4197937,29.2941176 25.7142116,29.5090196 24.7681799,29.6415686 C23.510746,29.8203922 22.6798148,29.9121569 22.268291,29.9121569 L12.6400529,29.9121569 L12.6400529,10.2572549 Z" id="Fill-5" fill="#ef562d"></path>
                                <path d="M40.4561455,19.8698039 C40.4561455,30.8431373 31.5137804,39.7388235 20.484627,39.7388235 C9.45389683,39.7388235 0.512320106,30.8431373 0.512320106,19.8698039 C0.512320106,8.89568627 9.45389683,0 20.484627,0 C31.5137804,0 40.4561455,8.89568627 40.4561455,19.8698039 L40.4561455,19.8698039 Z" id="Stroke-7" stroke="#ef562d" stroke-width="2"></path>
                            </g>
                        </g>
                    </g>
                </g>
            </g>
        </g>
    </g>
</svg>