<?xml version="1.0" encoding="UTF-8" standalone="no"?>
<svg width="119px" height="34px" viewBox="0 0 119 34" version="1.1" xmlns="http://www.w3.org/2000/svg" xmlns:xlink="http://www.w3.org/1999/xlink">
    <!-- Generator: Sketch 45.2 (43514) - http://www.bohemiancoding.com/sketch -->
    <title>Page 1</title>
    <desc>Created with Sketch.</desc>
    <defs></defs>
    <g id="Symbols" stroke="none" stroke-width="1" fill="none" fill-rule="evenodd">
        <g id="footer_320" transform="translate(-22.000000, -811.000000)">
            <g id="Group-2">
                <g id="Page-1" transform="translate(22.000000, 811.000000)">
                    <path d="M53.3269411,12.1992667 L53.3216522,12.2279333 C53.1160467,13.3019333 52.17793,13.7312667 51.3938522,13.6759333 C50.6163856,13.6212667 49.78008,13.0546 49.78008,11.9412667 L49.78008,7.51726667 C49.78008,6.6566 49.5989356,6.1186 48.7018078,6.10193333 C48.3421633,6.09393333 48.07838,6.16593333 47.8945911,6.32126667 C47.5567633,6.60393333 47.5184189,7.13926667 47.5184189,7.51726667 L47.5184189,11.8812667 C47.5184189,12.9779333 46.5188189,13.6566 45.5919411,13.6566 C44.8283578,13.6566 43.9365189,13.1786 43.9365189,11.8292667 L43.9365189,7.51726667 C43.9365189,6.4726 43.6390189,6.10193333 42.7994078,6.10193333 C41.88443,6.10193333 41.6913856,6.87126667 41.6913856,7.51726667 L41.6913856,11.8879333 C41.6913856,12.2432667 41.7931967,15.3606 45.2660133,15.3606 C47.5065189,15.3606 48.3553856,14.1159333 48.3910856,14.0639333 L48.7408133,13.5326 L49.0984744,14.0612667 C49.1341744,14.1146 49.9969244,15.3606 52.3055244,15.3606 C54.23068,15.3606 55.5720744,13.8092667 55.5720744,12.4179333 L55.5720744,7.15193333 C55.5720744,6.9286 55.4616689,6.09326667 54.4904967,6.09326667 C53.5193244,6.09326667 53.3269411,6.9006 53.3269411,7.15193333 L53.3269411,12.1992667 Z" id="Fill-1" fill="#F26F27"></path>
                    <path d="M70.3286033,11.8294667 C70.3286033,13.1321333 69.5729533,13.7914667 68.6229367,13.7914667 C67.63127,13.7914667 66.9185922,13.1321333 66.9185922,11.8294667 L66.9185922,9.62413333 C66.9185922,8.47813333 67.4501256,7.56613333 68.6229367,7.4868 C69.7964089,7.56613333 70.3286033,8.47813333 70.3286033,9.62413333 L70.3286033,11.8294667 Z M72.4223422,8.93413333 C72.2927644,7.5128 71.4505089,6.09346667 68.9263867,6.09346667 C68.2665978,6.09346667 67.4785533,6.39146667 66.9661922,6.78213333 L66.9661922,3.5588 C66.9661922,3.33613333 66.8604144,2.50013333 65.9308922,2.50013333 C65.0020311,2.50013333 64.8189033,3.30746667 64.8189033,3.5588 L64.8189033,9.2748 C64.8056811,9.41146667 64.8030367,9.5168 64.8030367,9.56546667 L64.8030367,11.3461333 C64.8030367,11.3461333 64.8592311,12.6028 65.0747533,13.2228 C65.6571922,14.8948 67.2438589,15.3681333 68.7002867,15.3681333 C69.7111256,15.3681333 70.9189756,15.0014667 71.6785922,14.1694667 C72.1334367,13.6708 72.3985422,12.9894667 72.4421756,12.1648 L72.4421756,10.1074667 L72.4223422,8.93413333 Z" id="Fill-3" fill="#F26F27"></path>
                    <path d="M58.6319611,9.62433333 C58.6319611,8.43633333 59.1991944,7.499 60.4625778,7.479 C61.0701389,7.52566667 61.7213333,7.86366667 61.7424889,8.997 C61.5996889,9.55166667 59.3591833,10.0616667 58.6319611,10.3016667 L58.6319611,9.62433333 Z M63.7595389,9.371 L63.7800333,9.35166667 C63.9578722,7.91766667 63.0257056,6.065 60.3475444,6.093 C57.6707056,6.121 56.8727444,7.92033333 56.8727444,7.92033333 C56.8727444,7.92033333 56.8793556,7.93166667 56.8826611,7.93633333 C56.5408667,8.68233333 56.5164056,9.405 56.5164056,9.565 L56.5164056,11.8883333 C56.5164056,12.2436667 56.6168944,15.3603333 60.0903722,15.3603333 C62.3322,15.3603333 63.3430389,14.1156667 63.3767556,14.0636667 L63.4851778,13.8996667 C64.3948667,12.2483333 62.2581556,12.0823333 61.8376889,12.805 C61.5719222,13.263 61.1210444,13.6563333 60.4156389,13.6563333 C59.6771778,13.6563333 58.7046833,13.201 58.6438611,11.9476667 C58.9215278,11.845 60.6807444,11.195 62.2264222,10.7096667 C63.4845167,10.3143333 63.7297889,9.84033333 63.7595389,9.371 L63.7595389,9.371 Z" id="Fill-5" fill="#F26F27"></path>
                    <path d="M5.49099056,20.0468667 C5.70651278,20.2782 6.05491833,20.6328667 6.49059056,21.0062 C6.88527389,21.3462 7.40226278,21.5328667 7.945035,21.5302 L8.00056833,21.5302 L8.10105722,21.5235333 C8.647135,21.4775333 9.42856833,21.0482 9.73334056,20.7708667 L9.75251278,20.7542 L9.77234611,20.7322 C9.77895722,20.7255333 10.5412183,19.9402 11.7014683,18.8855333 C11.7014683,18.8855333 12.9985683,17.6988667 13.6206739,17.1302 C14.0847739,17.5688667 17.2911628,20.5948667 17.2911628,20.5948667 C17.5853572,20.8722 18.2755572,21.5255333 19.4139906,21.5255333 C20.4354072,21.5255333 21.0132183,20.9802 21.3583183,20.6548667 L21.4614517,20.5588667 C21.4521961,20.5668667 22.5893072,19.5235333 24.2129961,17.9322 L27.4187239,15.0222 L28.014385,14.4795333 L26.4310239,13.0062 C26.0303906,12.6615333 25.5279461,12.4802 24.9745961,12.4815333 L24.9283183,12.4828667 L24.8298128,12.4882 C24.3181128,12.5315333 23.8579794,12.7275333 23.510235,13.0442 L21.2241128,15.1222 C21.2241128,15.1222 19.9217239,16.3128667 19.2989572,16.8822 C18.8282461,16.4362 15.1531294,12.9622 15.1531294,12.9622 C14.7643961,12.5948667 14.2236072,12.3802 13.6682739,12.3722 C13.1056683,12.3702 12.5609128,12.5755333 12.1668906,12.9362 C12.1642461,12.9375333 8.72382389,16.0635333 8.72382389,16.0635333 C8.72117944,16.0662 4.98325722,19.5015333 4.98325722,19.5015333 L5.49099056,20.0468667 Z" id="Fill-7" fill="#F26F27"></path>
                    <path d="M29.4849606,23.1185333 C28.5190772,22.9845333 27.8090439,23.9872 27.5174939,24.4285333 C25.1665828,27.9832 21.2329717,30.0578667 16.7043606,30.0578667 C10.120355,30.0578667 4.64172722,25.2725333 3.59584944,19.0178667 L4.13663833,18.5185333 C4.13862167,18.5198667 4.14324944,18.5245333 4.14324944,18.5245333 L7.07659944,15.8045333 L4.11416056,13.0392 C4.03152167,12.9572 3.88211056,12.8245333 3.69567722,12.6992 C3.63154944,12.6538667 3.56213278,12.6118667 3.48544389,12.5758667 C3.46494944,12.5645333 3.44511611,12.5532 3.42396056,12.5438667 C3.41404389,12.5398667 3.40478833,12.5352 3.39487167,12.5312 C3.26198833,12.4712 3.11984944,12.4285333 2.97176056,12.4098667 C2.617405,12.3452 2.224705,12.3532 1.86109389,12.4485333 C1.11998833,12.6445333 0.565977222,13.1692 0.299549444,13.9285333 L0.280377222,13.9845333 L0.268477222,14.0438667 C0.0906383333,15.0432 6.61111112e-05,16.0492 6.61111112e-05,17.0345333 C6.61111112e-05,26.2365333 7.490455,33.7932 16.6984106,33.8805333 C22.4837939,33.9352 27.5366661,31.2825333 30.6247161,26.6785333 C31.0663383,26.0212 32.0500717,23.4752 29.4849606,23.1185333" id="Fill-9" fill="#F26F27"></path>
                    <path d="M101.260736,18.0905333 C100.330553,18.0905333 100.148086,18.8972 100.148086,19.1485333 L100.148086,21.0845333 L100.148086,24.3838667 L100.148086,26.2918667 C100.148086,26.5432 100.330553,27.3505333 101.260736,27.3505333 C102.189597,27.3505333 102.296697,26.5145333 102.296697,26.2918667 L102.296697,24.4152 L102.296697,21.0258667 L102.296697,19.1485333 C102.296697,18.9258667 102.189597,18.0905333 101.260736,18.0905333" id="Fill-12" fill="#58585B"></path>
                    <path d="M53.3269411,21.2513333 L53.3216522,21.2233333 C53.1167078,20.15 52.17793,19.72 51.3931911,19.7753333 C50.6163856,19.83 49.78008,20.3973333 49.78008,21.51 L49.78008,25.9333333 C49.78008,26.7953333 49.5989356,27.332 48.7018078,27.3493333 C48.3415022,27.3566667 48.0777189,27.2853333 47.8945911,27.13 C47.5567633,26.8466667 47.5170967,26.312 47.5170967,25.9333333 L47.5170967,21.5693333 C47.5170967,20.4733333 46.5181578,19.794 45.59128,19.794 C44.8283578,19.794 43.9358578,20.2733333 43.9358578,21.6213333 L43.9358578,25.9333333 C43.9358578,26.9793333 43.6390189,27.3493333 42.7987467,27.3493333 C41.8837689,27.3493333 41.6913856,26.58 41.6913856,25.9333333 L41.6913856,21.5626667 C41.6913856,21.2073333 41.8017911,18.1186667 45.7175522,18.0906667 C47.95938,18.0746667 48.7408133,19.5666667 48.7408133,19.5666667 C48.7408133,19.5666667 49.37548,17.952 52.0622356,18.1186667 C53.9814411,18.238 55.5720744,19.65 55.5720744,21.4046667 L55.5720744,26.2993333 C55.5720744,26.522 55.4616689,27.358 54.4904967,27.358 C53.5193244,27.358 53.3269411,26.5506667 53.3269411,26.2993333 L53.3269411,21.2513333 Z" id="Fill-14" fill="#58585B"></path>
                    <path d="M94.6592772,18.0905333 C90.7415328,18.1185333 90.6331106,21.2072 90.6331106,21.5625333 L90.6331106,25.9338667 C90.6331106,26.5798667 90.8241717,27.3498667 91.7398106,27.3498667 C92.5794217,27.3498667 92.8775828,26.9792 92.8775828,25.9338667 L92.8775828,21.6212 C92.8775828,20.2732 93.7733883,19.8505333 94.533005,19.7945333 C95.7434994,19.7058667 96.4594828,20.4732 96.4594828,21.5692 L96.4594828,25.9338667 C96.4594828,26.3118667 96.4978272,26.8465333 96.8349939,27.1305333 C97.0181217,27.2852 97.2832272,27.3565333 97.6428717,27.3498667 C98.5406606,27.3318667 98.7211439,26.7958667 98.7211439,25.9338667 L98.7211439,21.5098667 C98.7211439,19.3725333 96.8997828,18.0752 94.6592772,18.0905333" id="Fill-16" fill="#58585B"></path>
                    <path d="M77.0339889,18.0905333 C76.2717278,18.0958667 75.6562333,18.2192 75.1551111,18.4138667 L75.1551111,15.5558667 C75.1551111,15.3332 75.0480111,14.4972 74.1198111,14.4972 C73.19095,14.4972 73.0071611,15.3052 73.0071611,15.5558667 L73.0071611,25.9338667 C73.0071611,26.5798667 73.1988833,27.3498667 74.1145222,27.3498667 C74.9541333,27.3498667 75.2522944,26.9792 75.2522944,25.9338667 L75.2522944,21.6212 C75.2522944,20.2732 76.1461167,19.8505333 76.9070556,19.7945333 C78.11755,19.7058667 78.8328722,20.4732 78.8328722,21.5692 L78.8328722,25.9338667 C78.8328722,26.3118667 78.8725389,26.8465333 79.2097056,27.1305333 C79.3928333,27.2852 79.6579389,27.3565333 80.0169222,27.3498667 C80.9153722,27.3318667 81.0965167,26.7958667 81.0965167,25.9338667 L81.0965167,21.5098667 C81.0965167,19.3725333 79.2744944,18.0752 77.0339889,18.0905333" id="Fill-18" fill="#58585B"></path>
                    <path d="M70.2214372,24.8027333 C69.9556706,25.2600667 69.506115,25.6534 68.8000483,25.6534 C68.0358039,25.6534 67.0150483,25.1754 67.0150483,23.8260667 L67.0150483,23.3440667 L67.0150483,22.1040667 L67.0150483,21.6214 C67.0150483,20.4334 67.566415,19.6434 68.8297983,19.6220667 C69.3064594,19.6587333 69.7414706,19.8827333 69.9616206,20.5134 C70.035665,20.7247333 70.5638928,21.4727333 71.320865,21.3200667 C72.2926983,21.1260667 72.1584928,20.3520667 71.9509039,19.8687333 C71.5304372,18.8934 70.5215817,18.0714 68.7312928,18.0907333 C66.0531317,18.1187333 65.2551706,19.9180667 65.2551706,19.9180667 C65.2551706,19.9180667 65.2631039,19.9294 65.2650872,19.9334 C64.9232928,20.6787333 64.9001539,21.4020667 64.9001539,21.5627333 L64.9001539,22.1040667 L64.9001539,23.3440667 L64.9001539,23.8854 C64.9133761,24.3840667 65.2492206,27.3580667 68.7233594,27.3580667 C70.9645261,27.3580667 71.725465,26.1134 71.7605039,26.0607333 L71.8695872,25.8967333 C72.7772928,24.2454 70.6412428,24.0780667 70.2214372,24.8027333" id="Fill-20" fill="#58585B"></path>
                    <path d="M58.7610761,21.6211333 C58.7610761,20.4338 59.3283094,19.4964667 60.5916928,19.4758 C61.1992539,19.5238 61.8504483,19.8604667 61.8709428,20.9944667 C61.7288039,21.5498 59.4882983,22.0578 58.7610761,22.2984667 L58.7610761,21.6211333 Z M63.8886539,21.3678 L63.9084872,21.3491333 C64.0869872,19.9151333 63.1548206,18.0631333 60.4779817,18.0904667 C57.7998206,18.1184667 57.0018594,19.9178 57.0018594,19.9178 C57.0018594,19.9178 57.0084706,19.9298 57.0117761,19.9338 C56.6699817,20.6791333 56.6455206,21.4024667 56.6455206,21.5624667 L56.6455206,23.8851333 C56.6455206,24.2411333 56.7460094,27.3578 60.2194872,27.3578 C62.461315,27.3578 63.4708317,26.1131333 63.5058706,26.0604667 L63.6142928,25.8964667 C64.5246428,24.2458 62.3885928,24.0784667 61.9668039,24.8024667 C61.7003761,25.2598 61.2514817,25.6538 60.5460761,25.6538 C59.8056317,25.6538 58.8337983,25.1971333 58.7729761,23.9438 C59.0513039,23.8404667 60.8111817,23.1918 62.3561983,22.7064667 C63.6149539,22.3104667 63.8589039,21.8371333 63.8886539,21.3678 L63.8886539,21.3678 Z" id="Fill-22" fill="#58585B"></path>
                    <path d="M87.2398917,24.8020667 C87.2398917,25.9900667 86.688525,25.9927333 85.6776861,25.9440667 C85.0509528,25.8960667 84.1591139,25.7740667 84.1293639,24.3660667 C84.1663861,23.4307333 84.3852139,22.8600667 85.2228417,22.6300667 C85.9355194,22.4354 87.1651861,22.8240667 87.2306361,23.2420667 C87.2306361,23.2420667 87.2372472,23.2267333 87.2398917,23.2200667 L87.2398917,24.8020667 Z M85.611575,18.0907333 C83.5819639,18.0134 83.0134083,18.1640667 82.8038361,18.7654 C82.5856694,19.3927333 83.2540528,19.7200667 84.1961361,19.7200667 C84.7296528,19.7200667 84.9835194,19.6834 85.3530806,19.6834 C86.117325,19.6834 87.3569083,20.1500667 87.3588917,21.7620667 C87.3469917,21.7467333 87.3417028,21.7254 87.3278194,21.7107333 C86.9397472,21.3200667 85.1587139,20.6734 83.5079194,21.5720667 C81.993975,22.3960667 82.0428972,23.8760667 82.0746306,24.4887333 C82.0752917,24.5034 82.0825639,24.5180667 82.0852083,24.5327333 C82.0071972,26.0794 83.1039806,27.3920667 85.6439694,27.3920667 C87.586975,27.3920667 89.3561083,27.2514 89.3561083,24.6354 L89.3561083,21.5627333 C89.3561083,21.2067333 89.0824083,18.2214 85.611575,18.0907333 L85.611575,18.0907333 Z" id="Fill-24" fill="#58585B"></path>
                    <path d="M108.820277,24.8027333 C108.554511,25.2600667 108.104955,25.6534 107.398888,25.6534 C106.635305,25.6534 105.614549,25.1754 105.614549,23.8260667 L105.614549,23.3440667 L105.614549,22.1040667 L105.614549,21.6214 C105.614549,20.4334 106.166577,19.6434 107.428638,19.6220667 C107.905961,19.6587333 108.340972,19.8827333 108.561122,20.5134 C108.635827,20.7247333 109.164055,21.4727333 109.920366,21.3200667 C110.892199,21.1260667 110.758655,20.3520667 110.550405,19.8687333 C110.130599,18.8934 109.119761,18.0714 107.331455,18.0907333 C104.653294,18.1187333 103.855333,19.9180667 103.855333,19.9180667 C103.855333,19.9180667 103.862605,19.9294 103.865911,19.9334 C103.523455,20.6787333 103.498994,21.4020667 103.498994,21.5627333 L103.498994,22.1040667 L103.498994,23.3440667 L103.498994,23.8854 C103.512216,24.3840667 103.848722,27.3580667 107.323522,27.3580667 C109.562705,27.3580667 110.324305,26.1134 110.359344,26.0607333 L110.468427,25.8967333 C111.376794,24.2454 109.241405,24.0780667 108.820277,24.8027333" id="Fill-26" fill="#58585B"></path>
                    <path d="M116.517924,24.8020667 C116.517924,25.9900667 115.965897,25.9927333 114.955058,25.9440667 C114.327663,25.8960667 113.436486,25.7740667 113.406736,24.3660667 C113.443758,23.4307333 113.661924,22.8600667 114.500213,22.6300667 C115.212891,22.4354 116.442558,22.8240667 116.508008,23.2420667 C116.508008,23.2420667 116.514619,23.2260667 116.517924,23.2180667 L116.517924,24.8020667 Z M114.888947,18.0907333 C112.859336,18.0134 112.29078,18.1640667 112.081869,18.7654 C111.86238,19.3927333 112.531424,19.7200667 113.474169,19.7200667 C114.007024,19.7200667 114.261552,19.6834 114.631113,19.6834 C115.394036,19.6834 116.635602,20.1500667 116.637586,21.7634 C116.625024,21.7474 116.619074,21.7254 116.605191,21.7107333 C116.216458,21.3200667 114.436086,20.6734 112.785291,21.5720667 C111.270686,22.3960667 111.320269,23.8760667 111.353324,24.4887333 C111.353986,24.5014 111.360597,24.5140667 111.36258,24.5274 C111.279941,26.0760667 112.379369,27.3920667 114.922002,27.3920667 C116.863686,27.3920667 118.632819,27.2514 118.632819,24.6354 L118.632819,21.5627333 C118.632819,21.2067333 118.35978,18.2214 114.888947,18.0907333 L114.888947,18.0907333 Z" id="Fill-28" fill="#58585B"></path>
                    <path d="M16.7679594,0 C11.3534594,0 6.29133167,2.52466667 3.169565,6.616 C2.56597056,7.40733333 1.539265,8.97133333 2.59505944,10.0066667 C4.18767611,11.568 5.87945944,9.54533333 6.47512056,8.79266667 C8.93974278,5.67333333 12.6565094,3.82133333 16.7044928,3.82133333 C22.8971206,3.82133333 28.2600539,8.40133333 29.6457428,14.344 L25.8727817,17.7073333 L27.8376039,19.5206667 L28.3664928,19.9753333 C28.6844872,20.2526667 28.9852928,20.5133333 29.2834539,20.7293333 L29.2788261,20.7473333 L29.7072261,21.0313333 C30.343215,21.4753333 31.1729094,21.5566667 31.9278983,21.2473333 C32.5757872,20.9833333 33.0339372,20.3853333 33.217065,19.5666667 L33.2236761,19.5393333 L33.2269817,19.512 C33.347965,18.6873333 33.4094483,17.854 33.4094483,17.0346667 C33.4094483,7.642 25.9435206,0 16.7679594,0" id="Fill-30" fill="#58585B"></path>
                </g>
            </g>
        </g>
    </g>
</svg>